<ttFont>
    <TTGlyph name="A" xMin="12" yMin="0" xMax="897" yMax="805">
      <contour>
        <pt x="660" y="45" on="1"/>
        <pt x="660" y="70" on="0"/>
        <pt x="667" y="120" on="0"/>
        <pt x="676" y="169" on="0"/>
        <pt x="683" y="220" on="0"/>
        <pt x="683" y="246" on="1"/>
        <pt x="650" y="246" on="0"/>
        <pt x="602" y="240" on="0"/>
        <pt x="556" y="234" on="0"/>
        <pt x="504" y="231" on="0"/>
        <pt x="467" y="233" on="1"/>
        <pt x="440" y="203" on="0"/>
        <pt x="371" y="135" on="0"/>
        <pt x="293" y="77" on="0"/>
        <pt x="207" y="38" on="0"/>
        <pt x="163" y="38" on="1"/>
        <pt x="133" y="38" on="0"/>
        <pt x="78" y="58" on="0"/>
        <pt x="36" y="94" on="0"/>
        <pt x="12" y="145" on="0"/>
        <pt x="12" y="176" on="1"/>
        <pt x="12" y="192" on="0"/>
        <pt x="23" y="209" on="0"/>
        <pt x="41" y="209" on="1"/>
        <pt x="50" y="209" on="0"/>
        <pt x="64" y="176" on="0"/>
        <pt x="87" y="135" on="0"/>
        <pt x="123" y="102" on="0"/>
        <pt x="154" y="102" on="1"/>
        <pt x="192" y="102" on="0"/>
        <pt x="265" y="131" on="0"/>
        <pt x="332" y="176" on="0"/>
        <pt x="391" y="232" on="0"/>
        <pt x="415" y="259" on="1"/>
        <pt x="412" y="284" on="0"/>
        <pt x="382" y="308" on="0"/>
        <pt x="349" y="332" on="0"/>
        <pt x="323" y="372" on="0"/>
        <pt x="323" y="415" on="1"/>
        <pt x="323" y="476" on="0"/>
        <pt x="397" y="545" on="0"/>
        <pt x="461" y="545" on="1"/>
        <pt x="480" y="545" on="0"/>
        <pt x="517" y="537" on="0"/>
        <pt x="555" y="526" on="0"/>
        <pt x="592" y="518" on="0"/>
        <pt x="611" y="518" on="1"/>
        <pt x="623" y="518" on="0"/>
        <pt x="638" y="524" on="0"/>
        <pt x="650" y="536" on="0"/>
        <pt x="664" y="556" on="0"/>
        <pt x="675" y="570" on="1"/>
        <pt x="681" y="578" on="0"/>
        <pt x="706" y="613" on="0"/>
        <pt x="736" y="656" on="0"/>
        <pt x="770" y="704" on="0"/>
        <pt x="800" y="748" on="0"/>
        <pt x="824" y="782" on="0"/>
        <pt x="829" y="791" on="1"/>
        <pt x="840" y="800" on="0"/>
        <pt x="858" y="805" on="0"/>
        <pt x="870" y="805" on="1"/>
        <pt x="882" y="805" on="0"/>
        <pt x="894" y="788" on="0"/>
        <pt x="897" y="764" on="0"/>
        <pt x="896" y="739" on="0"/>
        <pt x="896" y="732" on="1"/>
        <pt x="896" y="729" on="0"/>
        <pt x="896" y="716" on="0"/>
        <pt x="895" y="702" on="0"/>
        <pt x="895" y="689" on="0"/>
        <pt x="895" y="687" on="1"/>
        <pt x="892" y="677" on="0"/>
        <pt x="879" y="637" on="0"/>
        <pt x="863" y="586" on="0"/>
        <pt x="846" y="530" on="0"/>
        <pt x="831" y="478" on="0"/>
        <pt x="819" y="438" on="0"/>
        <pt x="817" y="428" on="1"/>
        <pt x="816" y="423" on="0"/>
        <pt x="812" y="401" on="0"/>
        <pt x="808" y="376" on="0"/>
        <pt x="804" y="354" on="0"/>
        <pt x="804" y="350" on="1"/>
        <pt x="813" y="348" on="0"/>
        <pt x="831" y="340" on="0"/>
        <pt x="831" y="331" on="1"/>
        <pt x="831" y="321" on="0"/>
        <pt x="816" y="309" on="0"/>
        <pt x="796" y="299" on="0"/>
        <pt x="779" y="285" on="0"/>
        <pt x="778" y="272" on="1"/>
        <pt x="776" y="260" on="0"/>
        <pt x="766" y="197" on="0"/>
        <pt x="753" y="126" on="0"/>
        <pt x="742" y="64" on="0"/>
        <pt x="739" y="52" on="1"/>
        <pt x="738" y="49" on="0"/>
        <pt x="732" y="33" on="0"/>
        <pt x="724" y="17" on="0"/>
        <pt x="716" y="3" on="0"/>
        <pt x="714" y="0" on="1"/>
        <pt x="690" y="5" on="0"/>
        <pt x="660" y="20" on="0"/>
      </contour>
      <contour>
        <pt x="643" y="429" on="1"/>
        <pt x="631" y="429" on="0"/>
        <pt x="588" y="395" on="0"/>
        <pt x="546" y="350" on="0"/>
        <pt x="514" y="305" on="0"/>
        <pt x="514" y="294" on="1"/>
        <pt x="520" y="294" on="0"/>
        <pt x="555" y="295" on="0"/>
        <pt x="594" y="296" on="0"/>
        <pt x="629" y="298" on="0"/>
        <pt x="636" y="298" on="1"/>
        <pt x="640" y="298" on="0"/>
        <pt x="657" y="302" on="0"/>
        <pt x="673" y="306" on="0"/>
        <pt x="686" y="310" on="0"/>
        <pt x="687" y="311" on="1"/>
        <pt x="688" y="311" on="0"/>
        <pt x="688" y="324" on="0"/>
        <pt x="688" y="328" on="1"/>
        <pt x="688" y="336" on="0"/>
        <pt x="683" y="370" on="0"/>
        <pt x="672" y="404" on="0"/>
        <pt x="655" y="429" on="0"/>
      </contour>
      <contour>
        <pt x="362" y="428" on="1"/>
        <pt x="362" y="414" on="0"/>
        <pt x="382" y="378" on="0"/>
        <pt x="412" y="346" on="0"/>
        <pt x="446" y="324" on="0"/>
        <pt x="461" y="324" on="1"/>
        <pt x="475" y="324" on="0"/>
        <pt x="513" y="358" on="0"/>
        <pt x="548" y="403" on="0"/>
        <pt x="572" y="445" on="0"/>
        <pt x="572" y="453" on="1"/>
        <pt x="572" y="470" on="0"/>
        <pt x="549" y="487" on="0"/>
        <pt x="518" y="494" on="0"/>
        <pt x="484" y="494" on="0"/>
        <pt x="473" y="494" on="1"/>
        <pt x="459" y="494" on="0"/>
        <pt x="420" y="489" on="0"/>
        <pt x="386" y="475" on="0"/>
        <pt x="362" y="449" on="0"/>
      </contour>
      <contour>
        <pt x="662" y="479" on="1"/>
        <pt x="684" y="453" on="0"/>
        <pt x="722" y="393" on="0"/>
        <pt x="739" y="362" on="1"/>
        <pt x="828" y="682" on="1"/>
      </contour>
    </TTGlyph>
    <TTGlyph name="AE" xMin="12" yMin="0" xMax="1232" yMax="805">
      <contour>
        <pt x="660" y="45" on="1"/>
        <pt x="660" y="70" on="0"/>
        <pt x="667" y="120" on="0"/>
        <pt x="676" y="169" on="0"/>
        <pt x="683" y="220" on="0"/>
        <pt x="683" y="246" on="1"/>
        <pt x="650" y="246" on="0"/>
        <pt x="602" y="240" on="0"/>
        <pt x="556" y="234" on="0"/>
        <pt x="504" y="231" on="0"/>
        <pt x="467" y="233" on="1"/>
        <pt x="440" y="203" on="0"/>
        <pt x="371" y="135" on="0"/>
        <pt x="293" y="77" on="0"/>
        <pt x="207" y="38" on="0"/>
        <pt x="163" y="38" on="1"/>
        <pt x="133" y="38" on="0"/>
        <pt x="78" y="58" on="0"/>
        <pt x="36" y="94" on="0"/>
        <pt x="12" y="145" on="0"/>
        <pt x="12" y="176" on="1"/>
        <pt x="12" y="192" on="0"/>
        <pt x="23" y="209" on="0"/>
        <pt x="41" y="209" on="1"/>
        <pt x="50" y="209" on="0"/>
        <pt x="64" y="176" on="0"/>
        <pt x="87" y="135" on="0"/>
        <pt x="123" y="102" on="0"/>
        <pt x="154" y="102" on="1"/>
        <pt x="192" y="102" on="0"/>
        <pt x="265" y="131" on="0"/>
        <pt x="332" y="176" on="0"/>
        <pt x="391" y="232" on="0"/>
        <pt x="415" y="259" on="1"/>
        <pt x="412" y="284" on="0"/>
        <pt x="382" y="308" on="0"/>
        <pt x="349" y="332" on="0"/>
        <pt x="323" y="372" on="0"/>
        <pt x="323" y="415" on="1"/>
        <pt x="323" y="476" on="0"/>
        <pt x="397" y="545" on="0"/>
        <pt x="461" y="545" on="1"/>
        <pt x="480" y="545" on="0"/>
        <pt x="517" y="537" on="0"/>
        <pt x="555" y="526" on="0"/>
        <pt x="592" y="518" on="0"/>
        <pt x="611" y="518" on="1"/>
        <pt x="623" y="518" on="0"/>
        <pt x="638" y="524" on="0"/>
        <pt x="650" y="536" on="0"/>
        <pt x="664" y="556" on="0"/>
        <pt x="675" y="570" on="1"/>
        <pt x="681" y="578" on="0"/>
        <pt x="706" y="613" on="0"/>
        <pt x="736" y="656" on="0"/>
        <pt x="770" y="704" on="0"/>
        <pt x="800" y="748" on="0"/>
        <pt x="824" y="782" on="0"/>
        <pt x="829" y="791" on="1"/>
        <pt x="840" y="800" on="0"/>
        <pt x="858" y="805" on="0"/>
        <pt x="870" y="805" on="1"/>
        <pt x="882" y="805" on="0"/>
        <pt x="894" y="788" on="0"/>
        <pt x="897" y="764" on="0"/>
        <pt x="896" y="739" on="0"/>
        <pt x="896" y="732" on="1"/>
        <pt x="896" y="722" on="1"/>
        <pt x="896" y="716" on="0"/>
        <pt x="895" y="702" on="0"/>
        <pt x="895" y="695" on="1"/>
        <pt x="895" y="687" on="1"/>
        <pt x="892" y="677" on="0"/>
        <pt x="879" y="637" on="0"/>
        <pt x="863" y="586" on="0"/>
        <pt x="846" y="530" on="0"/>
        <pt x="831" y="478" on="0"/>
        <pt x="819" y="438" on="0"/>
        <pt x="817" y="428" on="1"/>
        <pt x="816" y="423" on="0"/>
        <pt x="812" y="401" on="0"/>
        <pt x="808" y="376" on="0"/>
        <pt x="804" y="354" on="0"/>
        <pt x="804" y="350" on="1"/>
        <pt x="813" y="348" on="0"/>
        <pt x="822" y="344" on="1"/>
        <pt x="826" y="342" on="0"/>
        <pt x="828" y="339" on="1"/>
        <pt x="857" y="367" on="0"/>
        <pt x="887" y="391" on="1"/>
        <pt x="927" y="423" on="0"/>
        <pt x="957" y="450" on="1"/>
        <pt x="957" y="456" on="0"/>
        <pt x="946" y="476" on="0"/>
        <pt x="943" y="501" on="1"/>
        <pt x="943" y="545" on="0"/>
        <pt x="983" y="618" on="0"/>
        <pt x="1048" y="669" on="0"/>
        <pt x="1129" y="697" on="0"/>
        <pt x="1171" y="697" on="1"/>
        <pt x="1189" y="697" on="0"/>
        <pt x="1213" y="670" on="0"/>
        <pt x="1227" y="632" on="0"/>
        <pt x="1232" y="592" on="0"/>
        <pt x="1232" y="579" on="1"/>
        <pt x="1197" y="579" on="1"/>
        <pt x="1197" y="590" on="0"/>
        <pt x="1192" y="614" on="0"/>
        <pt x="1181" y="633" on="0"/>
        <pt x="1164" y="646" on="0"/>
        <pt x="1151" y="646" on="1"/>
        <pt x="1128" y="646" on="0"/>
        <pt x="1074" y="621" on="0"/>
        <pt x="1027" y="582" on="0"/>
        <pt x="995" y="532" on="0"/>
        <pt x="995" y="507" on="1"/>
        <pt x="995" y="494" on="0"/>
        <pt x="1012" y="483" on="0"/>
        <pt x="1039" y="479" on="0"/>
        <pt x="1069" y="479" on="0"/>
        <pt x="1096" y="476" on="0"/>
        <pt x="1113" y="464" on="0"/>
        <pt x="1113" y="451" on="1"/>
        <pt x="1113" y="443" on="0"/>
        <pt x="1109" y="428" on="0"/>
        <pt x="1099" y="423" on="1"/>
        <pt x="1041" y="408" on="0"/>
        <pt x="948" y="367" on="0"/>
        <pt x="872" y="310" on="0"/>
        <pt x="807" y="232" on="0"/>
        <pt x="776" y="178" on="1"/>
        <pt x="776" y="176" on="0"/>
        <pt x="775" y="160" on="0"/>
        <pt x="775" y="158" on="1"/>
        <pt x="775" y="122" on="0"/>
        <pt x="816" y="85" on="0"/>
        <pt x="850" y="85" on="1"/>
        <pt x="888" y="85" on="0"/>
        <pt x="983" y="109" on="0"/>
        <pt x="1073" y="137" on="0"/>
        <pt x="1148" y="161" on="0"/>
        <pt x="1166" y="161" on="1"/>
        <pt x="1165" y="139" on="0"/>
        <pt x="1129" y="99" on="0"/>
        <pt x="1071" y="66" on="0"/>
        <pt x="998" y="40" on="0"/>
        <pt x="923" y="24" on="0"/>
        <pt x="852" y="18" on="0"/>
        <pt x="825" y="21" on="1"/>
        <pt x="799" y="21" on="0"/>
        <pt x="760" y="45" on="0"/>
        <pt x="747" y="64" on="1"/>
        <pt x="743" y="70" on="1"/>
        <pt x="740" y="58" on="0"/>
        <pt x="739" y="52" on="1"/>
        <pt x="738" y="49" on="0"/>
        <pt x="732" y="33" on="0"/>
        <pt x="724" y="17" on="0"/>
        <pt x="716" y="3" on="0"/>
        <pt x="714" y="0" on="1"/>
        <pt x="690" y="5" on="0"/>
        <pt x="660" y="20" on="0"/>
      </contour>
      <contour>
        <pt x="362" y="428" on="1"/>
        <pt x="362" y="414" on="0"/>
        <pt x="382" y="378" on="0"/>
        <pt x="412" y="346" on="0"/>
        <pt x="446" y="324" on="0"/>
        <pt x="461" y="324" on="1"/>
        <pt x="475" y="324" on="0"/>
        <pt x="513" y="358" on="0"/>
        <pt x="548" y="403" on="0"/>
        <pt x="572" y="445" on="0"/>
        <pt x="572" y="453" on="1"/>
        <pt x="572" y="470" on="0"/>
        <pt x="549" y="487" on="0"/>
        <pt x="518" y="494" on="0"/>
        <pt x="501" y="494" on="1"/>
        <pt x="473" y="494" on="1"/>
        <pt x="459" y="494" on="0"/>
        <pt x="420" y="489" on="0"/>
        <pt x="386" y="475" on="0"/>
        <pt x="362" y="449" on="0"/>
      </contour>
      <contour>
        <pt x="662" y="479" on="1"/>
        <pt x="684" y="453" on="0"/>
        <pt x="722" y="393" on="0"/>
        <pt x="739" y="362" on="1"/>
        <pt x="828" y="682" on="1"/>
      </contour>
      <contour>
        <pt x="643" y="429" on="1"/>
        <pt x="631" y="429" on="0"/>
        <pt x="588" y="395" on="0"/>
        <pt x="546" y="350" on="0"/>
        <pt x="514" y="305" on="0"/>
        <pt x="514" y="294" on="1"/>
        <pt x="520" y="294" on="0"/>
        <pt x="555" y="295" on="0"/>
        <pt x="594" y="296" on="0"/>
        <pt x="629" y="298" on="0"/>
        <pt x="636" y="298" on="1"/>
        <pt x="640" y="298" on="0"/>
        <pt x="657" y="302" on="0"/>
        <pt x="673" y="306" on="0"/>
        <pt x="686" y="310" on="0"/>
        <pt x="687" y="311" on="1"/>
        <pt x="688" y="311" on="0"/>
        <pt x="688" y="317" on="1"/>
        <pt x="688" y="328" on="1"/>
        <pt x="688" y="336" on="0"/>
        <pt x="683" y="370" on="0"/>
        <pt x="672" y="404" on="0"/>
        <pt x="655" y="429" on="0"/>
      </contour>
    </TTGlyph>
    <TTGlyph name="AEacute" xMin="12" yMin="0" xMax="1232" yMax="1167">
      <component glyphName="AE" x="0" y="0" flags="0x1204"/>
      <component glyphName="acute" x="883" y="338" flags="0x1004"/>
    </TTGlyph>
    <TTGlyph name="Aacute" xMin="12" yMin="0" xMax="952" yMax="1055">
      <component glyphName="A" x="0" y="0" flags="0x1204"/>
      <component glyphName="acute" x="776" y="226" flags="0x1004"/>
    </TTGlyph>
    <TTGlyph name="Abreve" xMin="12" yMin="0" xMax="983" yMax="1004">
      <component glyphName="A" x="0" y="0" flags="0x1204"/>
      <component glyphName="breve" x="650" y="162" flags="0x1004"/>
    </TTGlyph>
    <TTGlyph name="Acircumflex" xMin="12" yMin="0" xMax="965" yMax="1062">
      <component glyphName="A" x="0" y="0" flags="0x1204"/>
      <component glyphName="circumflex" x="610" y="114" flags="0x1004"/>
    </TTGlyph>
    <TTGlyph name="Adieresis" xMin="12" yMin="0" xMax="1013" yMax="968">
      <component glyphName="A" x="0" y="0" flags="0x1204"/>
      <component glyphName="dieresis" x="644" y="222" flags="0x1004"/>
    </TTGlyph>
    <TTGlyph name="Agrave" xMin="12" yMin="0" xMax="903" yMax="1062">
      <component glyphName="A" x="0" y="0" flags="0x1204"/>
      <component glyphName="grave" x="687" y="222" flags="0x1004"/>
    </TTGlyph>
    <TTGlyph name="Amacron" xMin="12" yMin="0" xMax="1024" yMax="934">
      <component glyphName="A" x="0" y="0" flags="0x1204"/>
      <component glyphName="macron" x="653" y="317" flags="0x1004"/>
    </TTGlyph>
    <TTGlyph name="Aogonek" xMin="12" yMin="-156" xMax="897" yMax="805">
      <contour>
        <pt x="776" y="-156" on="1"/>
        <pt x="747" y="-156" on="0"/>
        <pt x="672" y="-146" on="0"/>
        <pt x="606" y="-127" on="0"/>
        <pt x="561" y="-98" on="0"/>
        <pt x="561" y="-79" on="1"/>
        <pt x="565" y="-49" on="0"/>
        <pt x="600" y="2" on="0"/>
        <pt x="622" y="20" on="1"/>
        <pt x="640" y="34" on="0"/>
        <pt x="660" y="42" on="1"/>
        <pt x="660" y="45" on="1"/>
        <pt x="660" y="70" on="0"/>
        <pt x="667" y="120" on="0"/>
        <pt x="676" y="169" on="0"/>
        <pt x="683" y="220" on="0"/>
        <pt x="683" y="246" on="1"/>
        <pt x="650" y="246" on="0"/>
        <pt x="602" y="240" on="0"/>
        <pt x="556" y="234" on="0"/>
        <pt x="504" y="231" on="0"/>
        <pt x="467" y="233" on="1"/>
        <pt x="440" y="203" on="0"/>
        <pt x="371" y="135" on="0"/>
        <pt x="293" y="77" on="0"/>
        <pt x="207" y="38" on="0"/>
        <pt x="163" y="38" on="1"/>
        <pt x="133" y="38" on="0"/>
        <pt x="78" y="58" on="0"/>
        <pt x="36" y="94" on="0"/>
        <pt x="12" y="145" on="0"/>
        <pt x="12" y="176" on="1"/>
        <pt x="12" y="192" on="0"/>
        <pt x="23" y="209" on="0"/>
        <pt x="41" y="209" on="1"/>
        <pt x="50" y="209" on="0"/>
        <pt x="64" y="176" on="0"/>
        <pt x="87" y="135" on="0"/>
        <pt x="123" y="102" on="0"/>
        <pt x="154" y="102" on="1"/>
        <pt x="192" y="102" on="0"/>
        <pt x="265" y="131" on="0"/>
        <pt x="332" y="176" on="0"/>
        <pt x="391" y="232" on="0"/>
        <pt x="415" y="259" on="1"/>
        <pt x="412" y="284" on="0"/>
        <pt x="382" y="308" on="0"/>
        <pt x="349" y="332" on="0"/>
        <pt x="323" y="372" on="0"/>
        <pt x="323" y="415" on="1"/>
        <pt x="323" y="476" on="0"/>
        <pt x="397" y="545" on="0"/>
        <pt x="461" y="545" on="1"/>
        <pt x="480" y="545" on="0"/>
        <pt x="517" y="537" on="0"/>
        <pt x="555" y="526" on="0"/>
        <pt x="592" y="518" on="0"/>
        <pt x="611" y="518" on="1"/>
        <pt x="623" y="518" on="0"/>
        <pt x="638" y="524" on="0"/>
        <pt x="650" y="536" on="0"/>
        <pt x="664" y="556" on="0"/>
        <pt x="675" y="570" on="1"/>
        <pt x="681" y="578" on="0"/>
        <pt x="706" y="613" on="0"/>
        <pt x="736" y="656" on="0"/>
        <pt x="770" y="704" on="0"/>
        <pt x="800" y="748" on="0"/>
        <pt x="824" y="782" on="0"/>
        <pt x="829" y="791" on="1"/>
        <pt x="840" y="800" on="0"/>
        <pt x="858" y="805" on="0"/>
        <pt x="870" y="805" on="1"/>
        <pt x="882" y="805" on="0"/>
        <pt x="894" y="788" on="0"/>
        <pt x="897" y="764" on="0"/>
        <pt x="896" y="739" on="0"/>
        <pt x="896" y="732" on="1"/>
        <pt x="896" y="722" on="1"/>
        <pt x="896" y="716" on="0"/>
        <pt x="895" y="702" on="0"/>
        <pt x="895" y="695" on="1"/>
        <pt x="895" y="687" on="1"/>
        <pt x="892" y="677" on="0"/>
        <pt x="879" y="637" on="0"/>
        <pt x="863" y="586" on="0"/>
        <pt x="846" y="530" on="0"/>
        <pt x="831" y="478" on="0"/>
        <pt x="819" y="438" on="0"/>
        <pt x="817" y="428" on="1"/>
        <pt x="816" y="423" on="0"/>
        <pt x="812" y="401" on="0"/>
        <pt x="808" y="376" on="0"/>
        <pt x="804" y="354" on="0"/>
        <pt x="804" y="350" on="1"/>
        <pt x="813" y="348" on="0"/>
        <pt x="831" y="340" on="0"/>
        <pt x="831" y="331" on="1"/>
        <pt x="831" y="321" on="0"/>
        <pt x="816" y="309" on="0"/>
        <pt x="796" y="299" on="0"/>
        <pt x="779" y="285" on="0"/>
        <pt x="778" y="272" on="1"/>
        <pt x="776" y="260" on="0"/>
        <pt x="766" y="197" on="0"/>
        <pt x="753" y="126" on="0"/>
        <pt x="742" y="64" on="0"/>
        <pt x="739" y="52" on="1"/>
        <pt x="738" y="49" on="0"/>
        <pt x="732" y="33" on="0"/>
        <pt x="724" y="17" on="0"/>
        <pt x="716" y="3" on="0"/>
        <pt x="714" y="0" on="1"/>
        <pt x="699" y="3" on="0"/>
        <pt x="687" y="7" on="1"/>
        <pt x="678" y="-3" on="0"/>
        <pt x="670" y="-11" on="1"/>
        <pt x="661" y="-21" on="0"/>
        <pt x="646" y="-41" on="0"/>
        <pt x="643" y="-61" on="1"/>
        <pt x="634" y="-80" on="0"/>
        <pt x="651" y="-98" on="0"/>
        <pt x="693" y="-106" on="0"/>
        <pt x="754" y="-107" on="0"/>
        <pt x="787" y="-109" on="1"/>
      </contour>
      <contour>
        <pt x="362" y="428" on="1"/>
        <pt x="362" y="414" on="0"/>
        <pt x="382" y="378" on="0"/>
        <pt x="412" y="346" on="0"/>
        <pt x="446" y="324" on="0"/>
        <pt x="461" y="324" on="1"/>
        <pt x="475" y="324" on="0"/>
        <pt x="513" y="358" on="0"/>
        <pt x="548" y="403" on="0"/>
        <pt x="572" y="445" on="0"/>
        <pt x="572" y="453" on="1"/>
        <pt x="572" y="470" on="0"/>
        <pt x="549" y="487" on="0"/>
        <pt x="518" y="494" on="0"/>
        <pt x="501" y="494" on="1"/>
        <pt x="473" y="494" on="1"/>
        <pt x="459" y="494" on="0"/>
        <pt x="420" y="489" on="0"/>
        <pt x="386" y="475" on="0"/>
        <pt x="362" y="449" on="0"/>
      </contour>
      <contour>
        <pt x="662" y="479" on="1"/>
        <pt x="684" y="453" on="0"/>
        <pt x="722" y="393" on="0"/>
        <pt x="739" y="362" on="1"/>
        <pt x="828" y="682" on="1"/>
      </contour>
      <contour>
        <pt x="643" y="429" on="1"/>
        <pt x="631" y="429" on="0"/>
        <pt x="588" y="395" on="0"/>
        <pt x="546" y="350" on="0"/>
        <pt x="514" y="305" on="0"/>
        <pt x="514" y="294" on="1"/>
        <pt x="520" y="294" on="0"/>
        <pt x="555" y="295" on="0"/>
        <pt x="594" y="296" on="0"/>
        <pt x="629" y="298" on="0"/>
        <pt x="636" y="298" on="1"/>
        <pt x="640" y="298" on="0"/>
        <pt x="657" y="302" on="0"/>
        <pt x="673" y="306" on="0"/>
        <pt x="686" y="310" on="0"/>
        <pt x="687" y="311" on="1"/>
        <pt x="688" y="311" on="0"/>
        <pt x="688" y="317" on="1"/>
        <pt x="688" y="328" on="1"/>
        <pt x="688" y="336" on="0"/>
        <pt x="683" y="370" on="0"/>
        <pt x="672" y="404" on="0"/>
        <pt x="655" y="429" on="0"/>
      </contour>
    </TTGlyph>
    <TTGlyph name="Aring" xMin="12" yMin="0" xMax="1015" yMax="1045">
      <contour>
        <pt x="781" y="838" on="1"/>
        <pt x="781" y="840" on="0"/>
        <pt x="782" y="859" on="0"/>
        <pt x="782" y="861" on="1"/>
        <pt x="807" y="916" on="0"/>
        <pt x="884" y="1008" on="0"/>
        <pt x="934" y="1044" on="1"/>
        <pt x="935" y="1044" on="0"/>
        <pt x="942" y="1045" on="0"/>
        <pt x="944" y="1045" on="1"/>
        <pt x="964" y="1045" on="0"/>
        <pt x="991" y="1028" on="0"/>
        <pt x="1008" y="1001" on="0"/>
        <pt x="1015" y="968" on="0"/>
        <pt x="1015" y="952" on="1"/>
        <pt x="1015" y="923" on="0"/>
        <pt x="987" y="860" on="0"/>
        <pt x="940" y="808" on="0"/>
        <pt x="909" y="791" on="1"/>
        <pt x="902" y="787" on="0"/>
        <pt x="894" y="783" on="1"/>
        <pt x="895" y="780" on="0"/>
        <pt x="895" y="776" on="1"/>
        <pt x="897" y="764" on="0"/>
        <pt x="896" y="739" on="0"/>
        <pt x="896" y="732" on="1"/>
        <pt x="896" y="722" on="1"/>
        <pt x="896" y="716" on="0"/>
        <pt x="895" y="702" on="0"/>
        <pt x="895" y="695" on="1"/>
        <pt x="895" y="687" on="1"/>
        <pt x="892" y="677" on="0"/>
        <pt x="879" y="637" on="0"/>
        <pt x="863" y="586" on="0"/>
        <pt x="846" y="530" on="0"/>
        <pt x="831" y="478" on="0"/>
        <pt x="819" y="438" on="0"/>
        <pt x="817" y="428" on="1"/>
        <pt x="816" y="423" on="0"/>
        <pt x="812" y="401" on="0"/>
        <pt x="808" y="376" on="0"/>
        <pt x="804" y="354" on="0"/>
        <pt x="804" y="350" on="1"/>
        <pt x="813" y="348" on="0"/>
        <pt x="831" y="340" on="0"/>
        <pt x="831" y="331" on="1"/>
        <pt x="831" y="321" on="0"/>
        <pt x="816" y="309" on="0"/>
        <pt x="796" y="299" on="0"/>
        <pt x="779" y="285" on="0"/>
        <pt x="778" y="272" on="1"/>
        <pt x="776" y="260" on="0"/>
        <pt x="766" y="197" on="0"/>
        <pt x="753" y="126" on="0"/>
        <pt x="742" y="64" on="0"/>
        <pt x="739" y="52" on="1"/>
        <pt x="738" y="49" on="0"/>
        <pt x="732" y="33" on="0"/>
        <pt x="724" y="17" on="0"/>
        <pt x="716" y="3" on="0"/>
        <pt x="714" y="0" on="1"/>
        <pt x="690" y="5" on="0"/>
        <pt x="660" y="20" on="0"/>
        <pt x="660" y="70" on="0"/>
        <pt x="667" y="120" on="0"/>
        <pt x="676" y="169" on="0"/>
        <pt x="683" y="220" on="0"/>
        <pt x="683" y="246" on="1"/>
        <pt x="650" y="246" on="0"/>
        <pt x="602" y="240" on="0"/>
        <pt x="556" y="234" on="0"/>
        <pt x="504" y="231" on="0"/>
        <pt x="467" y="233" on="1"/>
        <pt x="440" y="203" on="0"/>
        <pt x="371" y="135" on="0"/>
        <pt x="293" y="77" on="0"/>
        <pt x="207" y="38" on="0"/>
        <pt x="163" y="38" on="1"/>
        <pt x="133" y="38" on="0"/>
        <pt x="78" y="58" on="0"/>
        <pt x="36" y="94" on="0"/>
        <pt x="12" y="145" on="0"/>
        <pt x="12" y="176" on="1"/>
        <pt x="12" y="192" on="0"/>
        <pt x="23" y="209" on="0"/>
        <pt x="41" y="209" on="1"/>
        <pt x="50" y="209" on="0"/>
        <pt x="64" y="176" on="0"/>
        <pt x="87" y="135" on="0"/>
        <pt x="123" y="102" on="0"/>
        <pt x="154" y="102" on="1"/>
        <pt x="192" y="102" on="0"/>
        <pt x="265" y="131" on="0"/>
        <pt x="332" y="176" on="0"/>
        <pt x="391" y="232" on="0"/>
        <pt x="415" y="259" on="1"/>
        <pt x="412" y="284" on="0"/>
        <pt x="382" y="308" on="0"/>
        <pt x="349" y="332" on="0"/>
        <pt x="323" y="372" on="0"/>
        <pt x="323" y="415" on="1"/>
        <pt x="323" y="476" on="0"/>
        <pt x="397" y="545" on="0"/>
        <pt x="461" y="545" on="1"/>
        <pt x="480" y="545" on="0"/>
        <pt x="517" y="537" on="0"/>
        <pt x="555" y="526" on="0"/>
        <pt x="592" y="518" on="0"/>
        <pt x="611" y="518" on="1"/>
        <pt x="623" y="518" on="0"/>
        <pt x="638" y="524" on="0"/>
        <pt x="650" y="536" on="0"/>
        <pt x="664" y="556" on="0"/>
        <pt x="675" y="570" on="1"/>
        <pt x="681" y="578" on="0"/>
        <pt x="706" y="613" on="0"/>
        <pt x="736" y="656" on="0"/>
        <pt x="770" y="704" on="0"/>
        <pt x="800" y="748" on="0"/>
        <pt x="812" y="765" on="1"/>
        <pt x="820" y="777" on="1"/>
        <pt x="806" y="781" on="0"/>
        <pt x="797" y="791" on="1"/>
        <pt x="781" y="808" on="0"/>
      </contour>
      <contour>
        <pt x="362" y="428" on="1"/>
        <pt x="362" y="414" on="0"/>
        <pt x="382" y="378" on="0"/>
        <pt x="412" y="346" on="0"/>
        <pt x="446" y="324" on="0"/>
        <pt x="461" y="324" on="1"/>
        <pt x="475" y="324" on="0"/>
        <pt x="513" y="358" on="0"/>
        <pt x="548" y="403" on="0"/>
        <pt x="572" y="445" on="0"/>
        <pt x="572" y="453" on="1"/>
        <pt x="572" y="470" on="0"/>
        <pt x="549" y="487" on="0"/>
        <pt x="518" y="494" on="0"/>
        <pt x="501" y="494" on="1"/>
        <pt x="473" y="494" on="1"/>
        <pt x="459" y="494" on="0"/>
        <pt x="420" y="489" on="0"/>
        <pt x="386" y="475" on="0"/>
        <pt x="362" y="449" on="0"/>
      </contour>
      <contour>
        <pt x="662" y="479" on="1"/>
        <pt x="684" y="453" on="0"/>
        <pt x="722" y="393" on="0"/>
        <pt x="739" y="362" on="1"/>
        <pt x="828" y="682" on="1"/>
      </contour>
      <contour>
        <pt x="643" y="429" on="1"/>
        <pt x="631" y="429" on="0"/>
        <pt x="588" y="395" on="0"/>
        <pt x="546" y="350" on="0"/>
        <pt x="514" y="305" on="0"/>
        <pt x="514" y="294" on="1"/>
        <pt x="520" y="294" on="0"/>
        <pt x="555" y="295" on="0"/>
        <pt x="594" y="296" on="0"/>
        <pt x="629" y="298" on="0"/>
        <pt x="636" y="298" on="1"/>
        <pt x="640" y="298" on="0"/>
        <pt x="657" y="302" on="0"/>
        <pt x="673" y="306" on="0"/>
        <pt x="686" y="310" on="0"/>
        <pt x="687" y="311" on="1"/>
        <pt x="688" y="311" on="0"/>
        <pt x="688" y="317" on="1"/>
        <pt x="688" y="328" on="1"/>
        <pt x="688" y="336" on="0"/>
        <pt x="683" y="370" on="0"/>
        <pt x="672" y="404" on="0"/>
        <pt x="655" y="429" on="0"/>
      </contour>
      <contour>
        <pt x="842" y="847" on="1"/>
        <pt x="842" y="839" on="0"/>
        <pt x="855" y="831" on="0"/>
        <pt x="862" y="831" on="1"/>
        <pt x="881" y="831" on="0"/>
        <pt x="919" y="851" on="0"/>
        <pt x="947" y="882" on="0"/>
        <pt x="965" y="920" on="0"/>
        <pt x="965" y="937" on="1"/>
        <pt x="965" y="945" on="0"/>
        <pt x="963" y="965" on="0"/>
        <pt x="954" y="981" on="0"/>
        <pt x="938" y="989" on="0"/>
        <pt x="923" y="986" on="1"/>
        <pt x="912" y="984" on="0"/>
        <pt x="884" y="950" on="0"/>
        <pt x="859" y="905" on="0"/>
        <pt x="842" y="860" on="0"/>
      </contour>
    </TTGlyph>
    <TTGlyph name="Atilde" xMin="12" yMin="0" xMax="1114" yMax="1077">
      <component glyphName="A" x="0" y="0" flags="0x1204"/>
      <component glyphName="tilde" x="669" y="441" flags="0x1004"/>
    </TTGlyph>
    <TTGlyph name="B" xMin="13" yMin="-1" xMax="676" yMax="778">
      <contour>
        <pt x="233" y="-1" on="1"/>
        <pt x="215" y="3" on="0"/>
        <pt x="171" y="4" on="0"/>
        <pt x="125" y="8" on="0"/>
        <pt x="82" y="17" on="0"/>
        <pt x="51" y="38" on="0"/>
        <pt x="35" y="74" on="0"/>
        <pt x="39" y="103" on="1"/>
        <pt x="38" y="106" on="0"/>
        <pt x="30" y="130" on="0"/>
        <pt x="21" y="156" on="0"/>
        <pt x="13" y="178" on="0"/>
        <pt x="13" y="181" on="1"/>
        <pt x="12" y="188" on="0"/>
        <pt x="20" y="202" on="0"/>
        <pt x="32" y="212" on="0"/>
        <pt x="46" y="219" on="0"/>
        <pt x="52" y="220" on="1"/>
        <pt x="53" y="217" on="0"/>
        <pt x="58" y="196" on="0"/>
        <pt x="67" y="173" on="0"/>
        <pt x="79" y="154" on="0"/>
        <pt x="85" y="154" on="1"/>
        <pt x="89" y="154" on="0"/>
        <pt x="97" y="162" on="0"/>
        <pt x="112" y="190" on="0"/>
        <pt x="138" y="242" on="0"/>
        <pt x="182" y="328" on="0"/>
        <pt x="249" y="456" on="0"/>
        <pt x="298" y="545" on="1"/>
        <pt x="307" y="560" on="0"/>
        <pt x="354" y="607" on="0"/>
        <pt x="417" y="658" on="0"/>
        <pt x="490" y="710" on="0"/>
        <pt x="561" y="752" on="0"/>
        <pt x="623" y="778" on="0"/>
        <pt x="643" y="778" on="1"/>
        <pt x="651" y="778" on="0"/>
        <pt x="672" y="777" on="0"/>
        <pt x="675" y="765" on="1"/>
        <pt x="675" y="763" on="0"/>
        <pt x="675" y="750" on="0"/>
        <pt x="676" y="735" on="0"/>
        <pt x="676" y="722" on="0"/>
        <pt x="676" y="720" on="1"/>
        <pt x="676" y="683" on="0"/>
        <pt x="652" y="624" on="0"/>
        <pt x="612" y="575" on="0"/>
        <pt x="559" y="530" on="0"/>
        <pt x="531" y="506" on="1"/>
        <pt x="531" y="505" on="0"/>
        <pt x="530" y="501" on="0"/>
        <pt x="530" y="499" on="1"/>
        <pt x="530" y="498" on="0"/>
        <pt x="555" y="469" on="0"/>
        <pt x="584" y="424" on="0"/>
        <pt x="609" y="367" on="0"/>
        <pt x="609" y="337" on="1"/>
        <pt x="609" y="274" on="0"/>
        <pt x="536" y="153" on="0"/>
        <pt x="425" y="57" on="0"/>
        <pt x="293" y="-1" on="0"/>
      </contour>
      <contour>
        <pt x="141" y="91" on="1"/>
        <pt x="141" y="77" on="0"/>
        <pt x="163" y="64" on="0"/>
        <pt x="191" y="61" on="0"/>
        <pt x="220" y="63" on="0"/>
        <pt x="226" y="63" on="1"/>
        <pt x="289" y="63" on="0"/>
        <pt x="391" y="100" on="0"/>
        <pt x="469" y="169" on="0"/>
        <pt x="526" y="265" on="0"/>
        <pt x="545" y="324" on="1"/>
        <pt x="545" y="326" on="0"/>
        <pt x="546" y="341" on="0"/>
        <pt x="546" y="343" on="1"/>
        <pt x="546" y="382" on="0"/>
        <pt x="523" y="425" on="0"/>
        <pt x="482" y="446" on="0"/>
        <pt x="424" y="452" on="0"/>
        <pt x="389" y="454" on="1"/>
        <pt x="384" y="455" on="0"/>
        <pt x="365" y="474" on="0"/>
        <pt x="364" y="479" on="1"/>
        <pt x="362" y="484" on="0"/>
        <pt x="372" y="504" on="0"/>
        <pt x="376" y="506" on="1"/>
        <pt x="416" y="507" on="0"/>
        <pt x="500" y="540" on="0"/>
        <pt x="569" y="596" on="0"/>
        <pt x="613" y="672" on="0"/>
        <pt x="613" y="716" on="1"/>
        <pt x="576" y="716" on="0"/>
        <pt x="493" y="665" on="0"/>
        <pt x="416" y="592" on="0"/>
        <pt x="354" y="510" on="0"/>
        <pt x="337" y="479" on="1"/>
        <pt x="330" y="465" on="0"/>
        <pt x="299" y="407" on="0"/>
        <pt x="260" y="333" on="0"/>
        <pt x="218" y="251" on="0"/>
        <pt x="180" y="177" on="0"/>
        <pt x="150" y="117" on="0"/>
        <pt x="143" y="103" on="1"/>
        <pt x="142" y="101" on="0"/>
        <pt x="141" y="93" on="0"/>
      </contour>
    </TTGlyph>
    <TTGlyph name="C" xMin="13" yMin="-1" xMax="495" yMax="676">
      <contour>
        <pt x="13" y="111" on="1"/>
        <pt x="20" y="169" on="0"/>
        <pt x="56" y="274" on="0"/>
        <pt x="108" y="373" on="0"/>
        <pt x="172" y="469" on="0"/>
        <pt x="208" y="518" on="1"/>
        <pt x="229" y="545" on="0"/>
        <pt x="279" y="601" on="0"/>
        <pt x="337" y="647" on="0"/>
        <pt x="404" y="676" on="0"/>
        <pt x="441" y="676" on="1"/>
        <pt x="461" y="676" on="0"/>
        <pt x="483" y="671" on="0"/>
        <pt x="494" y="656" on="0"/>
        <pt x="496" y="628" on="0"/>
        <pt x="495" y="606" on="1"/>
        <pt x="495" y="581" on="0"/>
        <pt x="477" y="529" on="0"/>
        <pt x="445" y="483" on="0"/>
        <pt x="401" y="448" on="0"/>
        <pt x="376" y="440" on="1"/>
        <pt x="376" y="454" on="1"/>
        <pt x="376" y="475" on="0"/>
        <pt x="395" y="513" on="0"/>
        <pt x="419" y="552" on="0"/>
        <pt x="438" y="594" on="0"/>
        <pt x="438" y="618" on="1"/>
        <pt x="427" y="618" on="0"/>
        <pt x="411" y="621" on="0"/>
        <pt x="398" y="622" on="0"/>
        <pt x="385" y="617" on="0"/>
        <pt x="376" y="609" on="1"/>
        <pt x="327" y="569" on="0"/>
        <pt x="224" y="462" on="0"/>
        <pt x="140" y="338" on="0"/>
        <pt x="87" y="203" on="0"/>
        <pt x="87" y="135" on="1"/>
        <pt x="87" y="132" on="0"/>
        <pt x="88" y="118" on="0"/>
        <pt x="89" y="104" on="0"/>
        <pt x="91" y="92" on="0"/>
        <pt x="91" y="91" on="1"/>
        <pt x="102" y="80" on="0"/>
        <pt x="133" y="76" on="0"/>
        <pt x="141" y="76" on="1"/>
        <pt x="184" y="76" on="0"/>
        <pt x="259" y="106" on="0"/>
        <pt x="331" y="141" on="0"/>
        <pt x="404" y="171" on="0"/>
        <pt x="445" y="171" on="1"/>
        <pt x="445" y="155" on="0"/>
        <pt x="408" y="116" on="0"/>
        <pt x="349" y="78" on="0"/>
        <pt x="277" y="43" on="0"/>
        <pt x="208" y="15" on="0"/>
        <pt x="151" y="-1" on="0"/>
        <pt x="136" y="-1" on="1"/>
        <pt x="114" y="-1" on="0"/>
        <pt x="70" y="16" on="0"/>
        <pt x="35" y="46" on="0"/>
        <pt x="13" y="87" on="0"/>
      </contour>
    </TTGlyph>
    <TTGlyph name="Cacute" xMin="13" yMin="-1" xMax="495" yMax="921">
      <component glyphName="C" x="0" y="0" flags="0x1204"/>
      <component glyphName="acute" x="298" y="92" flags="0x1004"/>
    </TTGlyph>
    <TTGlyph name="Ccaron" xMin="13" yMin="-1" xMax="504" yMax="885">
      <component glyphName="C" x="0" y="0" flags="0x1204"/>
      <component glyphName="caron" x="191" y="62" flags="0x1004"/>
    </TTGlyph>
    <TTGlyph name="Ccedilla" xMin="13" yMin="-242" xMax="495" yMax="676">
      <contour>
        <pt x="50" y="-168" on="1"/>
        <pt x="50" y="-154" on="0"/>
        <pt x="58" y="-136" on="0"/>
        <pt x="74" y="-136" on="1"/>
        <pt x="81" y="-136" on="1"/>
        <pt x="86" y="-136" on="0"/>
        <pt x="88" y="-137" on="1"/>
        <pt x="87" y="-168" on="0"/>
        <pt x="111" y="-199" on="0"/>
        <pt x="140" y="-199" on="1"/>
        <pt x="165" y="-199" on="0"/>
        <pt x="197" y="-192" on="0"/>
        <pt x="215" y="-174" on="0"/>
        <pt x="222" y="-141" on="0"/>
        <pt x="222" y="-114" on="1"/>
        <pt x="222" y="-98" on="0"/>
        <pt x="203" y="-82" on="0"/>
        <pt x="180" y="-70" on="0"/>
        <pt x="161" y="-58" on="0"/>
        <pt x="161" y="-46" on="1"/>
        <pt x="159" y="-16" on="0"/>
        <pt x="163" y="2" on="1"/>
        <pt x="146" y="-1" on="0"/>
        <pt x="136" y="-1" on="1"/>
        <pt x="114" y="-1" on="0"/>
        <pt x="70" y="16" on="0"/>
        <pt x="35" y="46" on="0"/>
        <pt x="13" y="87" on="0"/>
        <pt x="13" y="111" on="1"/>
        <pt x="20" y="169" on="0"/>
        <pt x="56" y="274" on="0"/>
        <pt x="108" y="373" on="0"/>
        <pt x="172" y="469" on="0"/>
        <pt x="208" y="518" on="1"/>
        <pt x="229" y="545" on="0"/>
        <pt x="279" y="601" on="0"/>
        <pt x="337" y="647" on="0"/>
        <pt x="404" y="676" on="0"/>
        <pt x="441" y="676" on="1"/>
        <pt x="461" y="676" on="0"/>
        <pt x="483" y="671" on="0"/>
        <pt x="494" y="656" on="0"/>
        <pt x="496" y="628" on="0"/>
        <pt x="495" y="606" on="1"/>
        <pt x="495" y="581" on="0"/>
        <pt x="477" y="529" on="0"/>
        <pt x="445" y="483" on="0"/>
        <pt x="401" y="448" on="0"/>
        <pt x="376" y="440" on="1"/>
        <pt x="376" y="454" on="1"/>
        <pt x="376" y="475" on="0"/>
        <pt x="395" y="513" on="0"/>
        <pt x="419" y="552" on="0"/>
        <pt x="438" y="594" on="0"/>
        <pt x="438" y="618" on="1"/>
        <pt x="427" y="618" on="0"/>
        <pt x="411" y="621" on="0"/>
        <pt x="398" y="622" on="0"/>
        <pt x="385" y="617" on="0"/>
        <pt x="376" y="609" on="1"/>
        <pt x="327" y="569" on="0"/>
        <pt x="224" y="462" on="0"/>
        <pt x="140" y="338" on="0"/>
        <pt x="87" y="203" on="0"/>
        <pt x="87" y="135" on="1"/>
        <pt x="87" y="125" on="1"/>
        <pt x="88" y="111" on="1"/>
        <pt x="89" y="104" on="0"/>
        <pt x="91" y="92" on="0"/>
        <pt x="91" y="91" on="1"/>
        <pt x="102" y="80" on="0"/>
        <pt x="133" y="76" on="0"/>
        <pt x="141" y="76" on="1"/>
        <pt x="184" y="76" on="0"/>
        <pt x="259" y="106" on="0"/>
        <pt x="331" y="141" on="0"/>
        <pt x="404" y="171" on="0"/>
        <pt x="445" y="171" on="1"/>
        <pt x="445" y="155" on="0"/>
        <pt x="408" y="116" on="0"/>
        <pt x="349" y="78" on="0"/>
        <pt x="277" y="43" on="0"/>
        <pt x="242" y="29" on="1"/>
        <pt x="223" y="21" on="0"/>
        <pt x="206" y="15" on="1"/>
        <pt x="210" y="-8" on="0"/>
        <pt x="200" y="-46" on="1"/>
        <pt x="211" y="-54" on="0"/>
        <pt x="235" y="-67" on="0"/>
        <pt x="254" y="-81" on="0"/>
        <pt x="267" y="-99" on="0"/>
        <pt x="267" y="-112" on="1"/>
        <pt x="267" y="-182" on="0"/>
        <pt x="211" y="-242" on="0"/>
        <pt x="145" y="-242" on="1"/>
        <pt x="107" y="-242" on="0"/>
        <pt x="50" y="-206" on="0"/>
      </contour>
    </TTGlyph>
    <TTGlyph name="Ccircumflex" xMin="13" yMin="-1" xMax="530" yMax="963">
      <component glyphName="C" x="0" y="0" flags="0x1204"/>
      <component glyphName="circumflex" x="175" y="15" flags="0x1004"/>
    </TTGlyph>
    <TTGlyph name="Cdotaccent" xMin="13" yMin="-1" xMax="495" yMax="822">
      <component glyphName="C" x="0" y="0" flags="0x1204"/>
      <component glyphName="dotaccent" x="249" y="187" flags="0x1004"/>
    </TTGlyph>
    <TTGlyph name="D" xMin="6" yMin="-1" xMax="733" yMax="818">
      <contour>
        <pt x="6" y="26" on="1"/>
        <pt x="6" y="41" on="0"/>
        <pt x="26" y="78" on="0"/>
        <pt x="53" y="111" on="0"/>
        <pt x="78" y="137" on="0"/>
        <pt x="84" y="142" on="1"/>
        <pt x="304" y="545" on="1"/>
        <pt x="314" y="553" on="0"/>
        <pt x="330" y="578" on="0"/>
        <pt x="347" y="601" on="0"/>
        <pt x="368" y="617" on="0"/>
        <pt x="383" y="617" on="1"/>
        <pt x="383" y="601" on="0"/>
        <pt x="376" y="556" on="0"/>
        <pt x="369" y="545" on="1"/>
        <pt x="180" y="208" on="1"/>
        <pt x="210" y="220" on="0"/>
        <pt x="261" y="211" on="0"/>
        <pt x="305" y="185" on="0"/>
        <pt x="344" y="148" on="0"/>
        <pt x="379" y="114" on="0"/>
        <pt x="411" y="90" on="0"/>
        <pt x="427" y="90" on="1"/>
        <pt x="462" y="90" on="0"/>
        <pt x="528" y="160" on="0"/>
        <pt x="588" y="270" on="0"/>
        <pt x="638" y="404" on="0"/>
        <pt x="674" y="531" on="0"/>
        <pt x="694" y="636" on="0"/>
        <pt x="694" y="662" on="1"/>
        <pt x="694" y="676" on="0"/>
        <pt x="689" y="709" on="0"/>
        <pt x="675" y="736" on="0"/>
        <pt x="652" y="754" on="0"/>
        <pt x="634" y="754" on="1"/>
        <pt x="607" y="754" on="0"/>
        <pt x="563" y="708" on="0"/>
        <pt x="527" y="636" on="0"/>
        <pt x="500" y="547" on="0"/>
        <pt x="481" y="463" on="0"/>
        <pt x="472" y="393" on="0"/>
        <pt x="472" y="375" on="1"/>
        <pt x="472" y="355" on="0"/>
        <pt x="481" y="319" on="0"/>
        <pt x="493" y="285" on="0"/>
        <pt x="502" y="250" on="0"/>
        <pt x="502" y="231" on="1"/>
        <pt x="474" y="231" on="0"/>
        <pt x="441" y="259" on="0"/>
        <pt x="425" y="301" on="0"/>
        <pt x="420" y="350" on="0"/>
        <pt x="420" y="371" on="1"/>
        <pt x="420" y="395" on="0"/>
        <pt x="433" y="481" on="0"/>
        <pt x="458" y="580" on="0"/>
        <pt x="495" y="682" on="0"/>
        <pt x="544" y="765" on="0"/>
        <pt x="605" y="818" on="0"/>
        <pt x="641" y="818" on="1"/>
        <pt x="644" y="818" on="0"/>
        <pt x="665" y="816" on="0"/>
        <pt x="668" y="816" on="1"/>
        <pt x="684" y="796" on="0"/>
        <pt x="708" y="760" on="0"/>
        <pt x="725" y="724" on="0"/>
        <pt x="733" y="684" on="0"/>
        <pt x="733" y="659" on="1"/>
        <pt x="733" y="628" on="0"/>
        <pt x="714" y="510" on="0"/>
        <pt x="678" y="369" on="0"/>
        <pt x="626" y="222" on="0"/>
        <pt x="558" y="102" on="0"/>
        <pt x="476" y="25" on="0"/>
        <pt x="429" y="25" on="1"/>
        <pt x="397" y="25" on="0"/>
        <pt x="352" y="45" on="0"/>
        <pt x="318" y="74" on="0"/>
        <pt x="290" y="109" on="0"/>
        <pt x="260" y="138" on="0"/>
        <pt x="224" y="158" on="0"/>
        <pt x="198" y="158" on="1"/>
        <pt x="171" y="158" on="0"/>
        <pt x="131" y="124" on="0"/>
        <pt x="101" y="74" on="0"/>
        <pt x="79" y="20" on="0"/>
        <pt x="71" y="0" on="1"/>
        <pt x="69" y="0" on="0"/>
        <pt x="60" y="-1" on="0"/>
        <pt x="58" y="-1" on="1"/>
        <pt x="53" y="-1" on="0"/>
        <pt x="36" y="3" on="0"/>
        <pt x="19" y="10" on="0"/>
        <pt x="6" y="20" on="0"/>
      </contour>
    </TTGlyph>
    <TTGlyph name="Dcaron" xMin="6" yMin="-1" xMax="733" yMax="1019">
      <component glyphName="D" x="0" y="0" flags="0x1204"/>
      <component glyphName="caron" x="350" y="196" flags="0x1004"/>
    </TTGlyph>
    <TTGlyph name="Dcroat" xMin="6" yMin="-1" xMax="733" yMax="818">
      <contour>
        <pt x="81" y="418" on="1"/>
        <pt x="108" y="421" on="0"/>
        <pt x="180" y="423" on="0"/>
        <pt x="218" y="424" on="1"/>
        <pt x="238" y="424" on="1"/>
        <pt x="304" y="545" on="1"/>
        <pt x="314" y="553" on="0"/>
        <pt x="330" y="578" on="0"/>
        <pt x="347" y="601" on="0"/>
        <pt x="368" y="617" on="0"/>
        <pt x="383" y="617" on="1"/>
        <pt x="383" y="601" on="0"/>
        <pt x="376" y="556" on="0"/>
        <pt x="369" y="545" on="1"/>
        <pt x="301" y="425" on="1"/>
        <pt x="357" y="425" on="1"/>
        <pt x="374" y="425" on="0"/>
        <pt x="402" y="410" on="0"/>
        <pt x="409" y="387" on="1"/>
        <pt x="383" y="382" on="0"/>
        <pt x="318" y="375" on="0"/>
        <pt x="283" y="372" on="1"/>
        <pt x="271" y="371" on="1"/>
        <pt x="180" y="208" on="1"/>
        <pt x="210" y="220" on="0"/>
        <pt x="261" y="211" on="0"/>
        <pt x="305" y="185" on="0"/>
        <pt x="344" y="148" on="0"/>
        <pt x="379" y="114" on="0"/>
        <pt x="411" y="90" on="0"/>
        <pt x="427" y="90" on="1"/>
        <pt x="462" y="90" on="0"/>
        <pt x="528" y="160" on="0"/>
        <pt x="588" y="270" on="0"/>
        <pt x="638" y="404" on="0"/>
        <pt x="674" y="531" on="0"/>
        <pt x="694" y="636" on="0"/>
        <pt x="694" y="662" on="1"/>
        <pt x="694" y="676" on="0"/>
        <pt x="689" y="709" on="0"/>
        <pt x="675" y="736" on="0"/>
        <pt x="652" y="754" on="0"/>
        <pt x="634" y="754" on="1"/>
        <pt x="607" y="754" on="0"/>
        <pt x="563" y="708" on="0"/>
        <pt x="527" y="636" on="0"/>
        <pt x="500" y="547" on="0"/>
        <pt x="481" y="463" on="0"/>
        <pt x="472" y="393" on="0"/>
        <pt x="472" y="375" on="1"/>
        <pt x="472" y="355" on="0"/>
        <pt x="481" y="319" on="0"/>
        <pt x="493" y="285" on="0"/>
        <pt x="502" y="250" on="0"/>
        <pt x="502" y="231" on="1"/>
        <pt x="474" y="231" on="0"/>
        <pt x="441" y="259" on="0"/>
        <pt x="425" y="301" on="0"/>
        <pt x="420" y="350" on="0"/>
        <pt x="420" y="371" on="1"/>
        <pt x="420" y="395" on="0"/>
        <pt x="433" y="481" on="0"/>
        <pt x="458" y="580" on="0"/>
        <pt x="495" y="682" on="0"/>
        <pt x="544" y="765" on="0"/>
        <pt x="605" y="818" on="0"/>
        <pt x="641" y="818" on="1"/>
        <pt x="644" y="818" on="0"/>
        <pt x="665" y="816" on="0"/>
        <pt x="668" y="816" on="1"/>
        <pt x="684" y="796" on="0"/>
        <pt x="708" y="760" on="0"/>
        <pt x="725" y="724" on="0"/>
        <pt x="733" y="684" on="0"/>
        <pt x="733" y="659" on="1"/>
        <pt x="733" y="628" on="0"/>
        <pt x="714" y="510" on="0"/>
        <pt x="678" y="369" on="0"/>
        <pt x="626" y="222" on="0"/>
        <pt x="558" y="102" on="0"/>
        <pt x="476" y="25" on="0"/>
        <pt x="429" y="25" on="1"/>
        <pt x="397" y="25" on="0"/>
        <pt x="352" y="45" on="0"/>
        <pt x="318" y="74" on="0"/>
        <pt x="290" y="109" on="0"/>
        <pt x="260" y="138" on="0"/>
        <pt x="224" y="158" on="0"/>
        <pt x="198" y="158" on="1"/>
        <pt x="171" y="158" on="0"/>
        <pt x="131" y="124" on="0"/>
        <pt x="101" y="74" on="0"/>
        <pt x="79" y="20" on="0"/>
        <pt x="71" y="0" on="1"/>
        <pt x="69" y="0" on="0"/>
        <pt x="60" y="-1" on="0"/>
        <pt x="58" y="-1" on="1"/>
        <pt x="53" y="-1" on="0"/>
        <pt x="36" y="3" on="0"/>
        <pt x="19" y="10" on="0"/>
        <pt x="6" y="20" on="0"/>
        <pt x="6" y="26" on="1"/>
        <pt x="6" y="41" on="0"/>
        <pt x="26" y="78" on="0"/>
        <pt x="53" y="111" on="0"/>
        <pt x="78" y="137" on="0"/>
        <pt x="84" y="142" on="1"/>
        <pt x="207" y="368" on="1"/>
        <pt x="152" y="368" on="1"/>
        <pt x="124" y="369" on="0"/>
        <pt x="83" y="374" on="0"/>
        <pt x="75" y="378" on="1"/>
      </contour>
    </TTGlyph>
    <TTGlyph name="E" xMin="12" yMin="-1" xMax="522" yMax="675">
      <contour>
        <pt x="12" y="131" on="1"/>
        <pt x="15" y="179" on="0"/>
        <pt x="67" y="264" on="0"/>
        <pt x="138" y="338" on="0"/>
        <pt x="217" y="401" on="0"/>
        <pt x="247" y="428" on="1"/>
        <pt x="247" y="434" on="0"/>
        <pt x="236" y="454" on="0"/>
        <pt x="233" y="479" on="1"/>
        <pt x="233" y="523" on="0"/>
        <pt x="273" y="596" on="0"/>
        <pt x="338" y="647" on="0"/>
        <pt x="419" y="675" on="0"/>
        <pt x="461" y="675" on="1"/>
        <pt x="479" y="675" on="0"/>
        <pt x="503" y="648" on="0"/>
        <pt x="517" y="610" on="0"/>
        <pt x="522" y="570" on="0"/>
        <pt x="522" y="557" on="1"/>
        <pt x="487" y="557" on="1"/>
        <pt x="487" y="568" on="0"/>
        <pt x="482" y="592" on="0"/>
        <pt x="471" y="611" on="0"/>
        <pt x="454" y="624" on="0"/>
        <pt x="441" y="624" on="1"/>
        <pt x="418" y="624" on="0"/>
        <pt x="364" y="599" on="0"/>
        <pt x="317" y="560" on="0"/>
        <pt x="285" y="510" on="0"/>
        <pt x="285" y="485" on="1"/>
        <pt x="285" y="472" on="0"/>
        <pt x="302" y="461" on="0"/>
        <pt x="329" y="457" on="0"/>
        <pt x="359" y="457" on="0"/>
        <pt x="386" y="454" on="0"/>
        <pt x="403" y="442" on="0"/>
        <pt x="403" y="429" on="1"/>
        <pt x="403" y="421" on="0"/>
        <pt x="399" y="406" on="0"/>
        <pt x="389" y="401" on="1"/>
        <pt x="331" y="386" on="0"/>
        <pt x="238" y="345" on="0"/>
        <pt x="162" y="288" on="0"/>
        <pt x="97" y="210" on="0"/>
        <pt x="66" y="156" on="1"/>
        <pt x="66" y="154" on="0"/>
        <pt x="65" y="138" on="0"/>
        <pt x="65" y="136" on="1"/>
        <pt x="65" y="100" on="0"/>
        <pt x="106" y="63" on="0"/>
        <pt x="140" y="63" on="1"/>
        <pt x="178" y="63" on="0"/>
        <pt x="273" y="87" on="0"/>
        <pt x="363" y="115" on="0"/>
        <pt x="438" y="139" on="0"/>
        <pt x="456" y="139" on="1"/>
        <pt x="455" y="117" on="0"/>
        <pt x="419" y="77" on="0"/>
        <pt x="361" y="44" on="0"/>
        <pt x="288" y="18" on="0"/>
        <pt x="213" y="2" on="0"/>
        <pt x="142" y="-4" on="0"/>
        <pt x="115" y="-1" on="1"/>
        <pt x="89" y="-1" on="0"/>
        <pt x="50" y="23" on="0"/>
        <pt x="25" y="61" on="0"/>
        <pt x="12" y="108" on="0"/>
      </contour>
    </TTGlyph>
    <TTGlyph name="Eacute" xMin="12" yMin="-1" xMax="522" yMax="890">
      <component glyphName="E" x="0" y="0" flags="0x1204"/>
      <component glyphName="acute" x="278" y="61" flags="0x1004"/>
    </TTGlyph>
    <TTGlyph name="Ebreve" xMin="12" yMin="-1" xMax="522" yMax="874">
      <component glyphName="E" x="0" y="0" flags="0x1204"/>
      <component glyphName="breve" x="158" y="32" flags="0x1004"/>
    </TTGlyph>
    <TTGlyph name="Ecaron" xMin="12" yMin="-1" xMax="522" yMax="855">
      <component glyphName="E" x="0" y="0" flags="0x1204"/>
      <component glyphName="caron" x="188" y="32" flags="0x1004"/>
    </TTGlyph>
    <TTGlyph name="Ecircumflex" xMin="12" yMin="-1" xMax="550" yMax="957">
      <component glyphName="E" x="0" y="0" flags="0x1204"/>
      <component glyphName="circumflex" x="195" y="9" flags="0x1004"/>
    </TTGlyph>
    <TTGlyph name="Edieresis" xMin="12" yMin="-1" xMax="522" yMax="822">
      <component glyphName="E" x="0" y="0" flags="0x1204"/>
      <component glyphName="dieresis" x="151" y="76" flags="0x1004"/>
    </TTGlyph>
    <TTGlyph name="Edotaccent" xMin="12" yMin="-1" xMax="522" yMax="845">
      <component glyphName="E" x="0" y="0" flags="0x1204"/>
      <component glyphName="dotaccent" x="258" y="210" flags="0x1004"/>
    </TTGlyph>
    <TTGlyph name="Egrave" xMin="12" yMin="-1" xMax="522" yMax="943">
      <component glyphName="E" x="0" y="0" flags="0x1204"/>
      <component glyphName="grave" x="285" y="103" flags="0x1004"/>
    </TTGlyph>
    <TTGlyph name="Emacron" xMin="12" yMin="-1" xMax="566" yMax="817">
      <component glyphName="E" x="0" y="0" flags="0x1204"/>
      <component glyphName="macron" x="195" y="200" flags="0x1004"/>
    </TTGlyph>
    <TTGlyph name="Eogonek" xMin="12" yMin="-142" xMax="522" yMax="675">
      <contour>
        <pt x="420" y="-142" on="1"/>
        <pt x="391" y="-142" on="0"/>
        <pt x="316" y="-132" on="0"/>
        <pt x="250" y="-113" on="0"/>
        <pt x="205" y="-84" on="0"/>
        <pt x="205" y="-65" on="1"/>
        <pt x="209" y="-35" on="0"/>
        <pt x="226" y="-9" on="1"/>
        <pt x="232" y="0" on="0"/>
        <pt x="239" y="7" on="1"/>
        <pt x="207" y="1" on="0"/>
        <pt x="177" y="-1" on="1"/>
        <pt x="142" y="-4" on="0"/>
        <pt x="115" y="-1" on="1"/>
        <pt x="89" y="-1" on="0"/>
        <pt x="50" y="23" on="0"/>
        <pt x="25" y="61" on="0"/>
        <pt x="12" y="108" on="0"/>
        <pt x="12" y="131" on="1"/>
        <pt x="15" y="179" on="0"/>
        <pt x="67" y="264" on="0"/>
        <pt x="138" y="338" on="0"/>
        <pt x="217" y="401" on="0"/>
        <pt x="247" y="428" on="1"/>
        <pt x="247" y="434" on="0"/>
        <pt x="236" y="454" on="0"/>
        <pt x="233" y="479" on="1"/>
        <pt x="233" y="523" on="0"/>
        <pt x="273" y="596" on="0"/>
        <pt x="338" y="647" on="0"/>
        <pt x="419" y="675" on="0"/>
        <pt x="461" y="675" on="1"/>
        <pt x="479" y="675" on="0"/>
        <pt x="503" y="648" on="0"/>
        <pt x="517" y="610" on="0"/>
        <pt x="522" y="570" on="0"/>
        <pt x="522" y="557" on="1"/>
        <pt x="487" y="557" on="1"/>
        <pt x="487" y="568" on="0"/>
        <pt x="482" y="592" on="0"/>
        <pt x="471" y="611" on="0"/>
        <pt x="454" y="624" on="0"/>
        <pt x="441" y="624" on="1"/>
        <pt x="418" y="624" on="0"/>
        <pt x="364" y="599" on="0"/>
        <pt x="317" y="560" on="0"/>
        <pt x="285" y="510" on="0"/>
        <pt x="285" y="485" on="1"/>
        <pt x="285" y="472" on="0"/>
        <pt x="302" y="461" on="0"/>
        <pt x="329" y="457" on="0"/>
        <pt x="359" y="457" on="0"/>
        <pt x="386" y="454" on="0"/>
        <pt x="403" y="442" on="0"/>
        <pt x="403" y="429" on="1"/>
        <pt x="403" y="421" on="0"/>
        <pt x="399" y="406" on="0"/>
        <pt x="389" y="401" on="1"/>
        <pt x="331" y="386" on="0"/>
        <pt x="238" y="345" on="0"/>
        <pt x="162" y="288" on="0"/>
        <pt x="97" y="210" on="0"/>
        <pt x="66" y="156" on="1"/>
        <pt x="66" y="154" on="0"/>
        <pt x="65" y="138" on="0"/>
        <pt x="65" y="136" on="1"/>
        <pt x="65" y="100" on="0"/>
        <pt x="106" y="63" on="0"/>
        <pt x="140" y="63" on="1"/>
        <pt x="178" y="63" on="0"/>
        <pt x="273" y="87" on="0"/>
        <pt x="363" y="115" on="0"/>
        <pt x="438" y="139" on="0"/>
        <pt x="456" y="139" on="1"/>
        <pt x="455" y="117" on="0"/>
        <pt x="419" y="77" on="0"/>
        <pt x="390" y="60" on="1"/>
        <pt x="369" y="48" on="0"/>
        <pt x="344" y="38" on="1"/>
        <pt x="339" y="30" on="0"/>
        <pt x="335" y="25" on="1"/>
        <pt x="324" y="12" on="0"/>
        <pt x="305" y="-7" on="0"/>
        <pt x="290" y="-27" on="0"/>
        <pt x="287" y="-47" on="1"/>
        <pt x="278" y="-66" on="0"/>
        <pt x="295" y="-84" on="0"/>
        <pt x="337" y="-92" on="0"/>
        <pt x="398" y="-93" on="0"/>
        <pt x="431" y="-95" on="1"/>
      </contour>
    </TTGlyph>
    <TTGlyph name="Eth" xMin="6" yMin="-1" xMax="733" yMax="818">
      <contour>
        <pt x="294" y="412" on="1"/>
        <pt x="320" y="416" on="0"/>
        <pt x="380" y="422" on="0"/>
        <pt x="415" y="425" on="1"/>
        <pt x="418" y="456" on="0"/>
        <pt x="435" y="539" on="0"/>
        <pt x="463" y="626" on="0"/>
        <pt x="502" y="711" on="0"/>
        <pt x="550" y="777" on="0"/>
        <pt x="608" y="818" on="0"/>
        <pt x="641" y="818" on="1"/>
        <pt x="644" y="818" on="0"/>
        <pt x="665" y="816" on="0"/>
        <pt x="668" y="816" on="1"/>
        <pt x="684" y="796" on="0"/>
        <pt x="708" y="760" on="0"/>
        <pt x="725" y="724" on="0"/>
        <pt x="733" y="684" on="0"/>
        <pt x="733" y="659" on="1"/>
        <pt x="733" y="628" on="0"/>
        <pt x="714" y="510" on="0"/>
        <pt x="678" y="369" on="0"/>
        <pt x="626" y="222" on="0"/>
        <pt x="558" y="102" on="0"/>
        <pt x="476" y="25" on="0"/>
        <pt x="429" y="25" on="1"/>
        <pt x="397" y="25" on="0"/>
        <pt x="352" y="45" on="0"/>
        <pt x="318" y="74" on="0"/>
        <pt x="290" y="109" on="0"/>
        <pt x="260" y="138" on="0"/>
        <pt x="224" y="158" on="0"/>
        <pt x="198" y="158" on="1"/>
        <pt x="171" y="158" on="0"/>
        <pt x="131" y="124" on="0"/>
        <pt x="101" y="74" on="0"/>
        <pt x="79" y="20" on="0"/>
        <pt x="71" y="0" on="1"/>
        <pt x="69" y="0" on="0"/>
        <pt x="60" y="-1" on="0"/>
        <pt x="58" y="-1" on="1"/>
        <pt x="53" y="-1" on="0"/>
        <pt x="36" y="3" on="0"/>
        <pt x="19" y="10" on="0"/>
        <pt x="6" y="20" on="0"/>
        <pt x="6" y="26" on="1"/>
        <pt x="6" y="41" on="0"/>
        <pt x="26" y="78" on="0"/>
        <pt x="53" y="111" on="0"/>
        <pt x="78" y="137" on="0"/>
        <pt x="84" y="142" on="1"/>
        <pt x="188" y="334" on="1"/>
        <pt x="153" y="338" on="0"/>
        <pt x="110" y="353" on="0"/>
        <pt x="112" y="371" on="0"/>
        <pt x="165" y="392" on="0"/>
        <pt x="226" y="402" on="1"/>
        <pt x="304" y="545" on="1"/>
        <pt x="314" y="553" on="0"/>
        <pt x="330" y="578" on="0"/>
        <pt x="347" y="601" on="0"/>
        <pt x="368" y="617" on="0"/>
        <pt x="383" y="617" on="1"/>
        <pt x="383" y="601" on="0"/>
        <pt x="376" y="556" on="0"/>
        <pt x="369" y="545" on="1"/>
      </contour>
      <contour>
        <pt x="586" y="429" on="1"/>
        <pt x="556" y="408" on="0"/>
        <pt x="498" y="375" on="0"/>
        <pt x="472" y="361" on="1"/>
        <pt x="473" y="343" on="0"/>
        <pt x="483" y="312" on="0"/>
        <pt x="494" y="280" on="0"/>
        <pt x="502" y="249" on="0"/>
        <pt x="502" y="231" on="1"/>
        <pt x="479" y="231" on="0"/>
        <pt x="448" y="250" on="0"/>
        <pt x="430" y="281" on="0"/>
        <pt x="422" y="319" on="0"/>
        <pt x="421" y="338" on="1"/>
        <pt x="379" y="331" on="0"/>
        <pt x="289" y="327" on="0"/>
        <pt x="248" y="329" on="1"/>
        <pt x="180" y="208" on="1"/>
        <pt x="210" y="220" on="0"/>
        <pt x="261" y="211" on="0"/>
        <pt x="305" y="185" on="0"/>
        <pt x="344" y="148" on="0"/>
        <pt x="379" y="114" on="0"/>
        <pt x="411" y="90" on="0"/>
        <pt x="427" y="90" on="1"/>
        <pt x="462" y="90" on="0"/>
        <pt x="528" y="160" on="0"/>
        <pt x="588" y="270" on="0"/>
        <pt x="638" y="404" on="0"/>
        <pt x="674" y="531" on="0"/>
        <pt x="694" y="636" on="0"/>
        <pt x="694" y="662" on="1"/>
        <pt x="694" y="676" on="0"/>
        <pt x="689" y="709" on="0"/>
        <pt x="675" y="736" on="0"/>
        <pt x="652" y="754" on="0"/>
        <pt x="634" y="754" on="1"/>
        <pt x="601" y="754" on="0"/>
        <pt x="549" y="685" on="0"/>
        <pt x="509" y="585" on="0"/>
        <pt x="483" y="474" on="0"/>
        <pt x="477" y="431" on="1"/>
        <pt x="525" y="456" on="1"/>
        <pt x="533" y="456" on="0"/>
        <pt x="552" y="457" on="0"/>
        <pt x="569" y="452" on="0"/>
        <pt x="583" y="441" on="0"/>
      </contour>
    </TTGlyph>
    <TTGlyph name="Euro" xMin="0" yMin="-37" xMax="733" yMax="941">
      <contour>
        <pt x="180" y="338" on="1"/>
        <pt x="151" y="338" on="0"/>
        <pt x="97" y="327" on="0"/>
        <pt x="69" y="327" on="1"/>
        <pt x="55" y="327" on="0"/>
        <pt x="26" y="341" on="0"/>
        <pt x="26" y="359" on="1"/>
        <pt x="26" y="372" on="0"/>
        <pt x="39" y="379" on="1"/>
        <pt x="70" y="385" on="0"/>
        <pt x="130" y="391" on="0"/>
        <pt x="177" y="408" on="0"/>
        <pt x="206" y="444" on="0"/>
        <pt x="206" y="480" on="1"/>
        <pt x="168" y="480" on="0"/>
        <pt x="93" y="469" on="0"/>
        <pt x="55" y="469" on="1"/>
        <pt x="45" y="469" on="0"/>
        <pt x="30" y="471" on="0"/>
        <pt x="18" y="479" on="0"/>
        <pt x="7" y="495" on="0"/>
        <pt x="0" y="509" on="1"/>
        <pt x="7" y="522" on="0"/>
        <pt x="33" y="533" on="0"/>
        <pt x="63" y="535" on="0"/>
        <pt x="92" y="533" on="0"/>
        <pt x="103" y="535" on="1"/>
        <pt x="110" y="536" on="0"/>
        <pt x="143" y="543" on="0"/>
        <pt x="181" y="551" on="0"/>
        <pt x="214" y="558" on="0"/>
        <pt x="220" y="560" on="1"/>
        <pt x="254" y="620" on="0"/>
        <pt x="319" y="715" on="0"/>
        <pt x="390" y="794" on="0"/>
        <pt x="473" y="865" on="0"/>
        <pt x="524" y="901" on="1"/>
        <pt x="538" y="921" on="0"/>
        <pt x="588" y="941" on="0"/>
        <pt x="608" y="941" on="1"/>
        <pt x="662" y="941" on="0"/>
        <pt x="733" y="888" on="0"/>
        <pt x="733" y="840" on="1"/>
        <pt x="733" y="822" on="0"/>
        <pt x="713" y="788" on="0"/>
        <pt x="693" y="788" on="1"/>
        <pt x="677" y="788" on="0"/>
        <pt x="661" y="813" on="0"/>
        <pt x="652" y="842" on="0"/>
        <pt x="645" y="867" on="0"/>
        <pt x="636" y="867" on="1"/>
        <pt x="578" y="842" on="0"/>
        <pt x="490" y="792" on="0"/>
        <pt x="418" y="728" on="0"/>
        <pt x="356" y="644" on="0"/>
        <pt x="324" y="587" on="1"/>
        <pt x="327" y="587" on="0"/>
        <pt x="347" y="586" on="0"/>
        <pt x="350" y="586" on="1"/>
        <pt x="382" y="586" on="0"/>
        <pt x="443" y="600" on="0"/>
        <pt x="475" y="600" on="1"/>
        <pt x="480" y="600" on="0"/>
        <pt x="495" y="601" on="0"/>
        <pt x="509" y="598" on="0"/>
        <pt x="519" y="589" on="0"/>
        <pt x="519" y="580" on="1"/>
        <pt x="519" y="579" on="0"/>
        <pt x="518" y="574" on="0"/>
        <pt x="518" y="573" on="1"/>
        <pt x="489" y="568" on="0"/>
        <pt x="441" y="558" on="0"/>
        <pt x="396" y="546" on="0"/>
        <pt x="350" y="531" on="0"/>
        <pt x="324" y="521" on="1"/>
        <pt x="318" y="519" on="0"/>
        <pt x="298" y="510" on="0"/>
        <pt x="298" y="509" on="1"/>
        <pt x="298" y="444" on="1"/>
        <pt x="352" y="444" on="0"/>
        <pt x="455" y="458" on="0"/>
        <pt x="509" y="458" on="1"/>
        <pt x="515" y="458" on="0"/>
        <pt x="532" y="459" on="0"/>
        <pt x="548" y="456" on="0"/>
        <pt x="559" y="446" on="0"/>
        <pt x="559" y="436" on="1"/>
        <pt x="559" y="435" on="0"/>
        <pt x="558" y="431" on="0"/>
        <pt x="557" y="431" on="1"/>
        <pt x="298" y="379" on="1"/>
        <pt x="272" y="367" on="1"/>
        <pt x="262" y="351" on="0"/>
        <pt x="261" y="293" on="0"/>
        <pt x="276" y="226" on="0"/>
        <pt x="305" y="154" on="0"/>
        <pt x="346" y="93" on="0"/>
        <pt x="395" y="50" on="0"/>
        <pt x="422" y="44" on="1"/>
        <pt x="459" y="44" on="0"/>
        <pt x="524" y="59" on="0"/>
        <pt x="559" y="59" on="1"/>
        <pt x="563" y="59" on="0"/>
        <pt x="589" y="58" on="0"/>
        <pt x="592" y="58" on="1"/>
        <pt x="598" y="49" on="0"/>
        <pt x="605" y="35" on="0"/>
        <pt x="605" y="26" on="1"/>
        <pt x="564" y="2" on="0"/>
        <pt x="486" y="-33" on="0"/>
        <pt x="411" y="-40" on="0"/>
        <pt x="340" y="-9" on="0"/>
        <pt x="272" y="76" on="0"/>
        <pt x="209" y="224" on="0"/>
      </contour>
    </TTGlyph>
    <TTGlyph name="F" xMin="12" yMin="-1" xMax="856" yMax="727">
      <contour>
        <pt x="12" y="91" on="1"/>
        <pt x="12" y="97" on="0"/>
        <pt x="12" y="115" on="0"/>
        <pt x="16" y="132" on="0"/>
        <pt x="24" y="144" on="0"/>
        <pt x="32" y="144" on="1"/>
        <pt x="40" y="144" on="0"/>
        <pt x="59" y="115" on="0"/>
        <pt x="89" y="80" on="0"/>
        <pt x="134" y="51" on="0"/>
        <pt x="168" y="51" on="1"/>
        <pt x="194" y="51" on="0"/>
        <pt x="266" y="67" on="0"/>
        <pt x="343" y="96" on="0"/>
        <pt x="418" y="137" on="0"/>
        <pt x="478" y="186" on="0"/>
        <pt x="515" y="241" on="0"/>
        <pt x="515" y="271" on="1"/>
        <pt x="479" y="271" on="0"/>
        <pt x="413" y="255" on="0"/>
        <pt x="373" y="255" on="1"/>
        <pt x="373" y="264" on="0"/>
        <pt x="379" y="281" on="0"/>
        <pt x="389" y="285" on="1"/>
        <pt x="570" y="362" on="1"/>
        <pt x="597" y="389" on="1"/>
        <pt x="601" y="399" on="0"/>
        <pt x="623" y="447" on="0"/>
        <pt x="648" y="500" on="0"/>
        <pt x="670" y="548" on="0"/>
        <pt x="675" y="557" on="1"/>
        <pt x="675" y="558" on="0"/>
        <pt x="683" y="570" on="0"/>
        <pt x="692" y="583" on="0"/>
        <pt x="699" y="594" on="0"/>
        <pt x="700" y="596" on="1"/>
        <pt x="700" y="604" on="0"/>
        <pt x="698" y="616" on="0"/>
        <pt x="687" y="623" on="1"/>
        <pt x="592" y="588" on="0"/>
        <pt x="416" y="529" on="0"/>
        <pt x="325" y="493" on="1"/>
        <pt x="324" y="493" on="0"/>
        <pt x="319" y="492" on="0"/>
        <pt x="317" y="492" on="1"/>
        <pt x="309" y="492" on="0"/>
        <pt x="298" y="504" on="0"/>
        <pt x="298" y="512" on="1"/>
        <pt x="298" y="522" on="0"/>
        <pt x="365" y="563" on="0"/>
        <pt x="467" y="610" on="0"/>
        <pt x="590" y="660" on="0"/>
        <pt x="702" y="701" on="0"/>
        <pt x="788" y="727" on="0"/>
        <pt x="803" y="727" on="1"/>
        <pt x="824" y="727" on="0"/>
        <pt x="856" y="707" on="0"/>
        <pt x="856" y="681" on="1"/>
        <pt x="856" y="673" on="0"/>
        <pt x="847" y="663" on="0"/>
        <pt x="834" y="656" on="0"/>
        <pt x="821" y="651" on="0"/>
        <pt x="817" y="648" on="1"/>
        <pt x="811" y="643" on="0"/>
        <pt x="791" y="623" on="0"/>
        <pt x="770" y="603" on="0"/>
        <pt x="754" y="586" on="0"/>
        <pt x="753" y="584" on="1"/>
        <pt x="744" y="569" on="0"/>
        <pt x="717" y="516" on="0"/>
        <pt x="693" y="462" on="0"/>
        <pt x="675" y="419" on="0"/>
        <pt x="675" y="415" on="1"/>
        <pt x="675" y="396" on="1"/>
        <pt x="679" y="396" on="0"/>
        <pt x="700" y="401" on="0"/>
        <pt x="722" y="403" on="0"/>
        <pt x="739" y="395" on="0"/>
        <pt x="739" y="382" on="1"/>
        <pt x="739" y="370" on="0"/>
        <pt x="726" y="362" on="1"/>
        <pt x="721" y="360" on="0"/>
        <pt x="696" y="349" on="0"/>
        <pt x="667" y="337" on="0"/>
        <pt x="641" y="326" on="0"/>
        <pt x="636" y="324" on="1"/>
        <pt x="592" y="252" on="0"/>
        <pt x="495" y="132" on="0"/>
        <pt x="378" y="47" on="0"/>
        <pt x="235" y="-1" on="0"/>
        <pt x="147" y="-1" on="1"/>
        <pt x="128" y="-1" on="0"/>
        <pt x="81" y="9" on="0"/>
        <pt x="40" y="32" on="0"/>
        <pt x="12" y="67" on="0"/>
      </contour>
    </TTGlyph>
    <TTGlyph name="G" xMin="6" yMin="-3" xMax="824" yMax="934">
      <contour>
        <pt x="71" y="52" on="1"/>
        <pt x="68" y="58" on="0"/>
        <pt x="53" y="87" on="0"/>
        <pt x="36" y="120" on="0"/>
        <pt x="22" y="150" on="0"/>
        <pt x="19" y="156" on="1"/>
        <pt x="16" y="162" on="0"/>
        <pt x="6" y="192" on="0"/>
        <pt x="6" y="195" on="1"/>
        <pt x="6" y="206" on="0"/>
        <pt x="17" y="234" on="0"/>
        <pt x="35" y="258" on="0"/>
        <pt x="59" y="274" on="0"/>
        <pt x="71" y="274" on="1"/>
        <pt x="73" y="274" on="0"/>
        <pt x="82" y="272" on="0"/>
        <pt x="84" y="272" on="1"/>
        <pt x="68" y="252" on="0"/>
        <pt x="56" y="221" on="0"/>
        <pt x="56" y="201" on="1"/>
        <pt x="56" y="191" on="0"/>
        <pt x="70" y="158" on="0"/>
        <pt x="92" y="126" on="0"/>
        <pt x="118" y="103" on="0"/>
        <pt x="129" y="103" on="1"/>
        <pt x="136" y="103" on="1"/>
        <pt x="144" y="109" on="0"/>
        <pt x="185" y="142" on="0"/>
        <pt x="231" y="180" on="0"/>
        <pt x="271" y="213" on="0"/>
        <pt x="279" y="220" on="1"/>
        <pt x="286" y="226" on="0"/>
        <pt x="322" y="262" on="0"/>
        <pt x="363" y="304" on="0"/>
        <pt x="400" y="342" on="0"/>
        <pt x="408" y="350" on="1"/>
        <pt x="410" y="351" on="0"/>
        <pt x="418" y="362" on="0"/>
        <pt x="426" y="375" on="0"/>
        <pt x="433" y="386" on="0"/>
        <pt x="434" y="389" on="1"/>
        <pt x="434" y="395" on="1"/>
        <pt x="434" y="411" on="0"/>
        <pt x="420" y="436" on="0"/>
        <pt x="420" y="453" on="1"/>
        <pt x="420" y="483" on="0"/>
        <pt x="458" y="577" on="0"/>
        <pt x="520" y="684" on="0"/>
        <pt x="599" y="792" on="0"/>
        <pt x="680" y="879" on="0"/>
        <pt x="756" y="934" on="0"/>
        <pt x="785" y="934" on="1"/>
        <pt x="805" y="934" on="0"/>
        <pt x="824" y="906" on="0"/>
        <pt x="824" y="889" on="1"/>
        <pt x="824" y="867" on="0"/>
        <pt x="796" y="808" on="0"/>
        <pt x="757" y="748" on="0"/>
        <pt x="718" y="692" on="0"/>
        <pt x="707" y="674" on="1"/>
        <pt x="703" y="668" on="0"/>
        <pt x="672" y="623" on="0"/>
        <pt x="636" y="570" on="0"/>
        <pt x="606" y="524" on="0"/>
        <pt x="602" y="518" on="1"/>
        <pt x="600" y="516" on="0"/>
        <pt x="591" y="496" on="0"/>
        <pt x="590" y="493" on="1"/>
        <pt x="627" y="507" on="0"/>
        <pt x="703" y="561" on="0"/>
        <pt x="732" y="584" on="1"/>
        <pt x="745" y="584" on="1"/>
        <pt x="763" y="584" on="0"/>
        <pt x="785" y="571" on="0"/>
        <pt x="785" y="551" on="1"/>
        <pt x="785" y="548" on="0"/>
        <pt x="784" y="532" on="0"/>
        <pt x="783" y="531" on="1"/>
        <pt x="629" y="181" on="1"/>
        <pt x="607" y="132" on="0"/>
        <pt x="538" y="70" on="0"/>
        <pt x="453" y="33" on="0"/>
        <pt x="357" y="18" on="0"/>
        <pt x="259" y="14" on="0"/>
        <pt x="164" y="15" on="0"/>
        <pt x="123" y="13" on="1"/>
        <pt x="121" y="13" on="0"/>
        <pt x="106" y="9" on="0"/>
        <pt x="88" y="5" on="0"/>
        <pt x="73" y="0" on="0"/>
        <pt x="71" y="0" on="1"/>
        <pt x="68" y="0" on="0"/>
        <pt x="52" y="-1" on="0"/>
        <pt x="34" y="-2" on="0"/>
        <pt x="18" y="-3" on="0"/>
        <pt x="15" y="-3" on="1"/>
        <pt x="15" y="21" on="0"/>
        <pt x="29" y="32" on="0"/>
        <pt x="47" y="34" on="0"/>
        <pt x="66" y="37" on="0"/>
      </contour>
      <contour>
        <pt x="240" y="103" on="1"/>
        <pt x="223" y="98" on="0"/>
        <pt x="198" y="78" on="0"/>
        <pt x="187" y="65" on="1"/>
        <pt x="265" y="65" on="1"/>
        <pt x="321" y="65" on="0"/>
        <pt x="415" y="77" on="0"/>
        <pt x="495" y="113" on="0"/>
        <pt x="561" y="179" on="0"/>
        <pt x="590" y="233" on="1"/>
        <pt x="596" y="245" on="0"/>
        <pt x="623" y="307" on="0"/>
        <pt x="652" y="378" on="0"/>
        <pt x="676" y="441" on="0"/>
        <pt x="680" y="454" on="1"/>
        <pt x="677" y="454" on="1"/>
        <pt x="675" y="454" on="1"/>
        <pt x="674" y="454" on="0"/>
        <pt x="674" y="455" on="1"/>
        <pt x="641" y="455" on="0"/>
        <pt x="572" y="427" on="0"/>
        <pt x="508" y="384" on="0"/>
        <pt x="453" y="333" on="0"/>
        <pt x="434" y="311" on="1"/>
        <pt x="427" y="303" on="0"/>
        <pt x="397" y="271" on="0"/>
        <pt x="359" y="230" on="0"/>
        <pt x="316" y="184" on="0"/>
        <pt x="278" y="143" on="0"/>
        <pt x="247" y="111" on="0"/>
      </contour>
      <contour>
        <pt x="745" y="868" on="1"/>
        <pt x="724" y="850" on="0"/>
        <pt x="672" y="795" on="0"/>
        <pt x="617" y="727" on="0"/>
        <pt x="564" y="652" on="0"/>
        <pt x="523" y="579" on="0"/>
        <pt x="498" y="512" on="0"/>
        <pt x="498" y="486" on="1"/>
        <pt x="498" y="484" on="0"/>
        <pt x="499" y="469" on="0"/>
        <pt x="499" y="467" on="1"/>
        <pt x="506" y="475" on="0"/>
        <pt x="539" y="519" on="0"/>
        <pt x="576" y="568" on="0"/>
        <pt x="609" y="614" on="0"/>
        <pt x="615" y="623" on="1"/>
        <pt x="630" y="645" on="0"/>
        <pt x="674" y="717" on="0"/>
        <pt x="715" y="788" on="0"/>
        <pt x="745" y="840" on="0"/>
        <pt x="745" y="843" on="1"/>
      </contour>
    </TTGlyph>
    <TTGlyph name="Gbreve" xMin="6" yMin="-3" xMax="902" yMax="1142">
      <component glyphName="G" x="0" y="0" flags="0x1204"/>
      <component glyphName="breve" x="569" y="300" flags="0x1004"/>
    </TTGlyph>
    <TTGlyph name="Gcircumflex" xMin="6" yMin="-3" xMax="849" yMax="1205">
      <component glyphName="G" x="0" y="0" flags="0x1204"/>
      <component glyphName="circumflex" x="494" y="257" flags="0x1004"/>
    </TTGlyph>
    <TTGlyph name="Gcommaaccent" xMin="6" yMin="-386" xMax="824" yMax="934">
      <component glyphName="G" x="0" y="0" flags="0x1204"/>
      <component glyphName="commaaccent" x="109" y="0" flags="0x1004"/>
    </TTGlyph>
    <TTGlyph name="Gdotaccent" xMin="6" yMin="-3" xMax="824" yMax="1099">
      <component glyphName="G" x="0" y="0" flags="0x1204"/>
      <component glyphName="dotaccent" x="641" y="464" flags="0x1004"/>
    </TTGlyph>
    <TTGlyph name="H" xMin="4" yMin="-61" xMax="1111" yMax="674">
      <contour>
        <pt x="4" y="70" on="1"/>
        <pt x="4" y="78" on="0"/>
        <pt x="14" y="96" on="0"/>
        <pt x="30" y="112" on="0"/>
        <pt x="48" y="122" on="0"/>
        <pt x="56" y="122" on="1"/>
        <pt x="58" y="122" on="0"/>
        <pt x="67" y="122" on="0"/>
        <pt x="69" y="121" on="1"/>
        <pt x="57" y="108" on="0"/>
        <pt x="54" y="82" on="0"/>
        <pt x="54" y="67" on="1"/>
        <pt x="54" y="44" on="0"/>
        <pt x="75" y="15" on="0"/>
        <pt x="107" y="-2" on="0"/>
        <pt x="146" y="-9" on="0"/>
        <pt x="164" y="-9" on="1"/>
        <pt x="239" y="-9" on="0"/>
        <pt x="365" y="32" on="0"/>
        <pt x="470" y="103" on="0"/>
        <pt x="556" y="200" on="0"/>
        <pt x="629" y="313" on="0"/>
        <pt x="690" y="435" on="0"/>
        <pt x="717" y="497" on="1"/>
        <pt x="714" y="497" on="1"/>
        <pt x="712" y="497" on="1"/>
        <pt x="711" y="497" on="0"/>
        <pt x="711" y="498" on="1"/>
        <pt x="681" y="498" on="0"/>
        <pt x="625" y="465" on="0"/>
        <pt x="569" y="424" on="0"/>
        <pt x="511" y="391" on="0"/>
        <pt x="480" y="391" on="1"/>
        <pt x="480" y="399" on="0"/>
        <pt x="527" y="443" on="0"/>
        <pt x="599" y="501" on="0"/>
        <pt x="682" y="565" on="0"/>
        <pt x="753" y="618" on="0"/>
        <pt x="801" y="653" on="0"/>
        <pt x="801" y="653" on="1"/>
        <pt x="820" y="653" on="0"/>
        <pt x="836" y="622" on="0"/>
        <pt x="836" y="606" on="1"/>
        <pt x="836" y="603" on="0"/>
        <pt x="835" y="589" on="0"/>
        <pt x="834" y="588" on="1"/>
        <pt x="790" y="493" on="0"/>
        <pt x="732" y="367" on="0"/>
        <pt x="696" y="291" on="0"/>
        <pt x="679" y="254" on="0"/>
        <pt x="674" y="242" on="0"/>
        <pt x="677" y="245" on="0"/>
        <pt x="680" y="246" on="1"/>
        <pt x="690" y="250" on="0"/>
        <pt x="749" y="263" on="0"/>
        <pt x="816" y="277" on="0"/>
        <pt x="875" y="288" on="0"/>
        <pt x="886" y="290" on="1"/>
        <pt x="898" y="302" on="1"/>
        <pt x="942" y="394" on="0"/>
        <pt x="1035" y="575" on="0"/>
        <pt x="1080" y="666" on="1"/>
        <pt x="1099" y="682" on="0"/>
        <pt x="1111" y="665" on="0"/>
        <pt x="1110" y="627" on="0"/>
        <pt x="1098" y="584" on="0"/>
        <pt x="1093" y="574" on="1"/>
        <pt x="847" y="31" on="1"/>
        <pt x="838" y="11" on="0"/>
        <pt x="818" y="3" on="0"/>
        <pt x="803" y="3" on="1"/>
        <pt x="794" y="3" on="0"/>
        <pt x="772" y="5" on="0"/>
        <pt x="769" y="17" on="1"/>
        <pt x="788" y="34" on="0"/>
        <pt x="821" y="87" on="0"/>
        <pt x="845" y="144" on="0"/>
        <pt x="858" y="201" on="0"/>
        <pt x="858" y="223" on="1"/>
        <pt x="856" y="223" on="0"/>
        <pt x="849" y="225" on="0"/>
        <pt x="847" y="224" on="1"/>
        <pt x="816" y="214" on="0"/>
        <pt x="746" y="203" on="0"/>
        <pt x="676" y="190" on="0"/>
        <pt x="612" y="168" on="0"/>
        <pt x="588" y="147" on="1"/>
        <pt x="530" y="98" on="0"/>
        <pt x="446" y="21" on="0"/>
        <pt x="358" y="-33" on="0"/>
        <pt x="248" y="-61" on="0"/>
        <pt x="166" y="-61" on="1"/>
        <pt x="133" y="-61" on="0"/>
        <pt x="75" y="-48" on="0"/>
        <pt x="30" y="-18" on="0"/>
        <pt x="4" y="32" on="0"/>
      </contour>
    </TTGlyph>
    <TTGlyph name="Hcircumflex" xMin="4" yMin="-61" xMax="1111" yMax="1049">
      <component glyphName="H" x="0" y="0" flags="0x1204"/>
      <component glyphName="circumflex" x="754" y="101" flags="0x1004"/>
    </TTGlyph>
    <TTGlyph name="I" xMin="13" yMin="0" xMax="895" yMax="662">
      <contour>
        <pt x="13" y="233" on="1"/>
        <pt x="12" y="237" on="0"/>
        <pt x="14" y="252" on="0"/>
        <pt x="18" y="269" on="0"/>
        <pt x="24" y="283" on="0"/>
        <pt x="27" y="285" on="1"/>
        <pt x="27" y="286" on="0"/>
        <pt x="40" y="289" on="0"/>
        <pt x="44" y="289" on="1"/>
        <pt x="60" y="289" on="0"/>
        <pt x="78" y="271" on="0"/>
        <pt x="95" y="250" on="0"/>
        <pt x="118" y="232" on="0"/>
        <pt x="139" y="232" on="1"/>
        <pt x="195" y="232" on="0"/>
        <pt x="290" y="270" on="0"/>
        <pt x="373" y="315" on="0"/>
        <pt x="448" y="353" on="0"/>
        <pt x="484" y="353" on="1"/>
        <pt x="484" y="339" on="0"/>
        <pt x="459" y="307" on="0"/>
        <pt x="424" y="277" on="0"/>
        <pt x="387" y="253" on="0"/>
        <pt x="376" y="247" on="1"/>
        <pt x="343" y="227" on="0"/>
        <pt x="289" y="200" on="0"/>
        <pt x="233" y="181" on="0"/>
        <pt x="171" y="171" on="0"/>
        <pt x="130" y="169" on="1"/>
        <pt x="134" y="164" on="0"/>
        <pt x="156" y="142" on="0"/>
        <pt x="181" y="117" on="0"/>
        <pt x="203" y="95" on="0"/>
        <pt x="208" y="91" on="1"/>
        <pt x="217" y="83" on="0"/>
        <pt x="241" y="76" on="0"/>
        <pt x="266" y="75" on="0"/>
        <pt x="291" y="77" on="0"/>
        <pt x="302" y="77" on="1"/>
        <pt x="327" y="77" on="0"/>
        <pt x="394" y="84" on="0"/>
        <pt x="458" y="103" on="0"/>
        <pt x="509" y="139" on="0"/>
        <pt x="519" y="169" on="1"/>
        <pt x="521" y="175" on="0"/>
        <pt x="532" y="213" on="0"/>
        <pt x="548" y="263" on="0"/>
        <pt x="566" y="321" on="0"/>
        <pt x="582" y="371" on="0"/>
        <pt x="595" y="409" on="0"/>
        <pt x="597" y="415" on="1"/>
        <pt x="615" y="451" on="0"/>
        <pt x="664" y="530" on="0"/>
        <pt x="724" y="599" on="0"/>
        <pt x="792" y="652" on="0"/>
        <pt x="829" y="662" on="1"/>
        <pt x="864" y="662" on="0"/>
        <pt x="895" y="614" on="0"/>
        <pt x="895" y="584" on="1"/>
        <pt x="895" y="509" on="0"/>
        <pt x="833" y="367" on="0"/>
        <pt x="738" y="239" on="0"/>
        <pt x="623" y="131" on="0"/>
        <pt x="570" y="91" on="1"/>
        <pt x="570" y="88" on="0"/>
        <pt x="567" y="77" on="0"/>
        <pt x="563" y="65" on="0"/>
        <pt x="559" y="54" on="0"/>
        <pt x="558" y="52" on="1"/>
        <pt x="557" y="51" on="0"/>
        <pt x="556" y="51" on="1"/>
        <pt x="553" y="51" on="1"/>
        <pt x="551" y="51" on="0"/>
        <pt x="546" y="52" on="0"/>
        <pt x="545" y="52" on="1"/>
        <pt x="540" y="53" on="0"/>
        <pt x="511" y="63" on="0"/>
        <pt x="506" y="65" on="1"/>
        <pt x="497" y="62" on="0"/>
        <pt x="453" y="46" on="0"/>
        <pt x="403" y="30" on="0"/>
        <pt x="359" y="16" on="0"/>
        <pt x="350" y="13" on="1"/>
        <pt x="348" y="12" on="0"/>
        <pt x="332" y="9" on="0"/>
        <pt x="311" y="5" on="0"/>
        <pt x="291" y="1" on="0"/>
        <pt x="286" y="0" on="1"/>
        <pt x="279" y="0" on="1"/>
        <pt x="233" y="0" on="0"/>
        <pt x="151" y="45" on="0"/>
        <pt x="84" y="114" on="0"/>
        <pt x="31" y="196" on="0"/>
      </contour>
      <contour>
        <pt x="848" y="601" on="1"/>
        <pt x="815" y="601" on="0"/>
        <pt x="750" y="556" on="0"/>
        <pt x="691" y="484" on="0"/>
        <pt x="641" y="393" on="0"/>
        <pt x="604" y="302" on="0"/>
        <pt x="583" y="217" on="0"/>
        <pt x="583" y="188" on="1"/>
        <pt x="583" y="186" on="0"/>
        <pt x="584" y="182" on="0"/>
        <pt x="584" y="181" on="1"/>
        <pt x="641" y="215" on="0"/>
        <pt x="737" y="304" on="0"/>
        <pt x="808" y="412" on="0"/>
        <pt x="848" y="534" on="0"/>
      </contour>
    </TTGlyph>
    <TTGlyph name="Iacute" xMin="13" yMin="0" xMax="895" yMax="890">
      <component glyphName="I" x="0" y="0" flags="0x1204"/>
      <component glyphName="acute" x="686" y="61" flags="0x1004"/>
    </TTGlyph>
    <TTGlyph name="Ibreve" xMin="13" yMin="0" xMax="964" yMax="930">
      <component glyphName="I" x="0" y="0" flags="0x1204"/>
      <component glyphName="breve" x="631" y="88" flags="0x1004"/>
    </TTGlyph>
    <TTGlyph name="Icircumflex" xMin="13" yMin="0" xMax="961" yMax="957">
      <component glyphName="I" x="0" y="0" flags="0x1204"/>
      <component glyphName="circumflex" x="606" y="9" flags="0x1004"/>
    </TTGlyph>
    <TTGlyph name="Idieresis" xMin="13" yMin="0" xMax="929" yMax="807">
      <component glyphName="I" x="0" y="0" flags="0x1204"/>
      <component glyphName="dieresis" x="560" y="61" flags="0x1004"/>
    </TTGlyph>
    <TTGlyph name="Idotaccent" xMin="13" yMin="0" xMax="895" yMax="831">
      <component glyphName="I" x="0" y="0" flags="0x1204"/>
      <component glyphName="dotaccent" x="693" y="196" flags="0x1004"/>
    </TTGlyph>
    <TTGlyph name="Igrave" xMin="13" yMin="0" xMax="895" yMax="929">
      <component glyphName="I" x="0" y="0" flags="0x1204"/>
      <component glyphName="grave" x="637" y="89" flags="0x1004"/>
    </TTGlyph>
    <TTGlyph name="Imacron" xMin="13" yMin="0" xMax="895" yMax="818">
      <component glyphName="I" x="0" y="0" flags="0x1204"/>
      <component glyphName="macron" x="474" y="201" flags="0x1004"/>
    </TTGlyph>
    <TTGlyph name="Iogonek" xMin="13" yMin="-121" xMax="895" yMax="662">
      <contour>
        <pt x="607" y="-121" on="1"/>
        <pt x="578" y="-121" on="0"/>
        <pt x="503" y="-111" on="0"/>
        <pt x="437" y="-92" on="0"/>
        <pt x="392" y="-63" on="0"/>
        <pt x="392" y="-44" on="1"/>
        <pt x="396" y="-14" on="0"/>
        <pt x="413" y="11" on="1"/>
        <pt x="424" y="27" on="0"/>
        <pt x="437" y="41" on="1"/>
        <pt x="433" y="39" on="0"/>
        <pt x="428" y="38" on="1"/>
        <pt x="403" y="30" on="0"/>
        <pt x="359" y="16" on="0"/>
        <pt x="350" y="13" on="1"/>
        <pt x="348" y="12" on="0"/>
        <pt x="332" y="9" on="0"/>
        <pt x="311" y="5" on="0"/>
        <pt x="301" y="3" on="1"/>
        <pt x="286" y="0" on="1"/>
        <pt x="279" y="0" on="1"/>
        <pt x="233" y="0" on="0"/>
        <pt x="151" y="45" on="0"/>
        <pt x="84" y="114" on="0"/>
        <pt x="31" y="196" on="0"/>
        <pt x="13" y="233" on="1"/>
        <pt x="12" y="237" on="0"/>
        <pt x="14" y="252" on="0"/>
        <pt x="18" y="269" on="0"/>
        <pt x="24" y="283" on="0"/>
        <pt x="27" y="285" on="1"/>
        <pt x="27" y="286" on="0"/>
        <pt x="40" y="289" on="0"/>
        <pt x="44" y="289" on="1"/>
        <pt x="60" y="289" on="0"/>
        <pt x="78" y="271" on="0"/>
        <pt x="95" y="250" on="0"/>
        <pt x="118" y="232" on="0"/>
        <pt x="139" y="232" on="1"/>
        <pt x="195" y="232" on="0"/>
        <pt x="290" y="270" on="0"/>
        <pt x="373" y="315" on="0"/>
        <pt x="448" y="353" on="0"/>
        <pt x="484" y="353" on="1"/>
        <pt x="484" y="339" on="0"/>
        <pt x="459" y="307" on="0"/>
        <pt x="424" y="277" on="0"/>
        <pt x="387" y="253" on="0"/>
        <pt x="376" y="247" on="1"/>
        <pt x="343" y="227" on="0"/>
        <pt x="289" y="200" on="0"/>
        <pt x="233" y="181" on="0"/>
        <pt x="171" y="171" on="0"/>
        <pt x="130" y="169" on="1"/>
        <pt x="134" y="164" on="0"/>
        <pt x="145" y="153" on="1"/>
        <pt x="192" y="106" on="1"/>
        <pt x="203" y="95" on="0"/>
        <pt x="208" y="91" on="1"/>
        <pt x="217" y="83" on="0"/>
        <pt x="241" y="76" on="0"/>
        <pt x="266" y="75" on="0"/>
        <pt x="291" y="77" on="0"/>
        <pt x="302" y="77" on="1"/>
        <pt x="327" y="77" on="0"/>
        <pt x="394" y="84" on="0"/>
        <pt x="458" y="103" on="0"/>
        <pt x="509" y="139" on="0"/>
        <pt x="519" y="169" on="1"/>
        <pt x="521" y="175" on="0"/>
        <pt x="532" y="213" on="0"/>
        <pt x="548" y="263" on="0"/>
        <pt x="566" y="321" on="0"/>
        <pt x="582" y="371" on="0"/>
        <pt x="595" y="409" on="0"/>
        <pt x="597" y="415" on="1"/>
        <pt x="615" y="451" on="0"/>
        <pt x="664" y="530" on="0"/>
        <pt x="724" y="599" on="0"/>
        <pt x="792" y="652" on="0"/>
        <pt x="829" y="662" on="1"/>
        <pt x="864" y="662" on="0"/>
        <pt x="895" y="614" on="0"/>
        <pt x="895" y="584" on="1"/>
        <pt x="895" y="509" on="0"/>
        <pt x="833" y="367" on="0"/>
        <pt x="738" y="239" on="0"/>
        <pt x="623" y="131" on="0"/>
        <pt x="570" y="91" on="1"/>
        <pt x="570" y="88" on="0"/>
        <pt x="567" y="77" on="0"/>
        <pt x="563" y="65" on="0"/>
        <pt x="559" y="54" on="0"/>
        <pt x="558" y="52" on="1"/>
        <pt x="557" y="51" on="0"/>
        <pt x="556" y="51" on="1"/>
        <pt x="553" y="51" on="1"/>
        <pt x="551" y="51" on="0"/>
        <pt x="546" y="52" on="0"/>
        <pt x="545" y="52" on="1"/>
        <pt x="529" y="56" on="1"/>
        <pt x="526" y="50" on="0"/>
        <pt x="522" y="46" on="1"/>
        <pt x="511" y="33" on="0"/>
        <pt x="492" y="14" on="0"/>
        <pt x="477" y="-6" on="0"/>
        <pt x="474" y="-26" on="1"/>
        <pt x="465" y="-45" on="0"/>
        <pt x="482" y="-63" on="0"/>
        <pt x="524" y="-71" on="0"/>
        <pt x="585" y="-72" on="0"/>
        <pt x="618" y="-74" on="1"/>
      </contour>
      <contour>
        <pt x="848" y="601" on="1"/>
        <pt x="815" y="601" on="0"/>
        <pt x="750" y="556" on="0"/>
        <pt x="691" y="484" on="0"/>
        <pt x="641" y="393" on="0"/>
        <pt x="604" y="302" on="0"/>
        <pt x="583" y="217" on="0"/>
        <pt x="583" y="188" on="1"/>
        <pt x="583" y="186" on="0"/>
        <pt x="584" y="182" on="0"/>
        <pt x="584" y="181" on="1"/>
        <pt x="641" y="215" on="0"/>
        <pt x="737" y="304" on="0"/>
        <pt x="808" y="412" on="0"/>
        <pt x="848" y="534" on="0"/>
      </contour>
    </TTGlyph>
    <TTGlyph name="Itilde" xMin="13" yMin="0" xMax="895" yMax="870">
      <component glyphName="I" x="0" y="0" flags="0x1204"/>
      <component glyphName="tilde" x="426" y="234" flags="0x1004"/>
    </TTGlyph>
    <TTGlyph name="J" xMin="-53" yMin="-322" xMax="841" yMax="949">
      <contour>
        <pt x="-30" y="-322" on="1"/>
        <pt x="-37" y="-320" on="0"/>
        <pt x="-49" y="-311" on="0"/>
        <pt x="-54" y="-299" on="0"/>
        <pt x="-51" y="-287" on="0"/>
        <pt x="-42" y="-283" on="1"/>
        <pt x="2" y="-268" on="0"/>
        <pt x="82" y="-234" on="0"/>
        <pt x="151" y="-187" on="0"/>
        <pt x="208" y="-121" on="0"/>
        <pt x="229" y="-75" on="1"/>
        <pt x="593" y="702" on="1"/>
        <pt x="580" y="702" on="1"/>
        <pt x="578" y="702" on="0"/>
        <pt x="538" y="684" on="0"/>
        <pt x="485" y="660" on="0"/>
        <pt x="429" y="634" on="0"/>
        <pt x="412" y="625" on="1"/>
        <pt x="388" y="613" on="0"/>
        <pt x="325" y="570" on="0"/>
        <pt x="258" y="514" on="0"/>
        <pt x="194" y="449" on="0"/>
        <pt x="143" y="382" on="0"/>
        <pt x="112" y="316" on="0"/>
        <pt x="112" y="288" on="1"/>
        <pt x="112" y="277" on="0"/>
        <pt x="121" y="261" on="0"/>
        <pt x="133" y="246" on="0"/>
        <pt x="142" y="229" on="0"/>
        <pt x="142" y="219" on="1"/>
        <pt x="121" y="219" on="0"/>
        <pt x="91" y="234" on="0"/>
        <pt x="72" y="259" on="0"/>
        <pt x="63" y="291" on="0"/>
        <pt x="63" y="308" on="1"/>
        <pt x="63" y="334" on="0"/>
        <pt x="81" y="381" on="0"/>
        <pt x="110" y="424" on="0"/>
        <pt x="146" y="463" on="0"/>
        <pt x="165" y="482" on="1"/>
        <pt x="181" y="498" on="0"/>
        <pt x="235" y="549" on="0"/>
        <pt x="289" y="599" on="0"/>
        <pt x="331" y="636" on="0"/>
        <pt x="334" y="638" on="1"/>
        <pt x="645" y="806" on="1"/>
        <pt x="667" y="819" on="0"/>
        <pt x="700" y="867" on="0"/>
        <pt x="733" y="914" on="0"/>
        <pt x="775" y="949" on="0"/>
        <pt x="807" y="949" on="1"/>
        <pt x="816" y="949" on="0"/>
        <pt x="830" y="942" on="0"/>
        <pt x="839" y="936" on="1"/>
        <pt x="840" y="932" on="0"/>
        <pt x="841" y="907" on="0"/>
        <pt x="841" y="903" on="1"/>
        <pt x="841" y="890" on="0"/>
        <pt x="841" y="875" on="0"/>
        <pt x="836" y="864" on="0"/>
        <pt x="825" y="854" on="0"/>
        <pt x="813" y="845" on="1"/>
        <pt x="804" y="838" on="0"/>
        <pt x="759" y="804" on="0"/>
        <pt x="707" y="759" on="0"/>
        <pt x="660" y="710" on="0"/>
        <pt x="651" y="689" on="1"/>
        <pt x="424" y="236" on="1"/>
        <pt x="423" y="231" on="0"/>
        <pt x="414" y="202" on="0"/>
        <pt x="412" y="197" on="1"/>
        <pt x="404" y="181" on="0"/>
        <pt x="379" y="128" on="0"/>
        <pt x="350" y="67" on="0"/>
        <pt x="319" y="2" on="0"/>
        <pt x="292" y="-54" on="0"/>
        <pt x="272" y="-95" on="0"/>
        <pt x="268" y="-101" on="1"/>
        <pt x="251" y="-134" on="0"/>
        <pt x="188" y="-216" on="0"/>
        <pt x="108" y="-286" on="0"/>
        <pt x="16" y="-328" on="0"/>
      </contour>
    </TTGlyph>
    <TTGlyph name="Jcircumflex" xMin="-53" yMin="-322" xMax="841" yMax="1235">
      <component glyphName="J" x="0" y="0" flags="0x1204"/>
      <component glyphName="circumflex" x="459" y="287" flags="0x1004"/>
    </TTGlyph>
    <TTGlyph name="K" xMin="26" yMin="-288" xMax="696" yMax="696">
      <contour>
        <pt x="310" y="-246" on="1"/>
        <pt x="310" y="-168" on="0"/>
        <pt x="315" y="-28" on="0"/>
        <pt x="324" y="52" on="1"/>
        <pt x="321" y="82" on="0"/>
        <pt x="313" y="153" on="0"/>
        <pt x="296" y="222" on="0"/>
        <pt x="267" y="280" on="0"/>
        <pt x="244" y="296" on="1"/>
        <pt x="198" y="241" on="0"/>
        <pt x="139" y="150" on="0"/>
        <pt x="102" y="81" on="0"/>
        <pt x="80" y="36" on="0"/>
        <pt x="62" y="18" on="0"/>
        <pt x="42" y="30" on="0"/>
        <pt x="26" y="52" on="1"/>
        <pt x="44" y="81" on="0"/>
        <pt x="100" y="174" on="0"/>
        <pt x="167" y="288" on="0"/>
        <pt x="241" y="415" on="0"/>
        <pt x="314" y="538" on="0"/>
        <pt x="380" y="650" on="0"/>
        <pt x="406" y="692" on="1"/>
        <pt x="415" y="696" on="0"/>
        <pt x="426" y="696" on="0"/>
        <pt x="431" y="692" on="0"/>
        <pt x="432" y="687" on="0"/>
        <pt x="432" y="686" on="1"/>
        <pt x="432" y="659" on="0"/>
        <pt x="405" y="583" on="0"/>
        <pt x="366" y="504" on="0"/>
        <pt x="325" y="435" on="0"/>
        <pt x="310" y="416" on="1"/>
        <pt x="340" y="423" on="0"/>
        <pt x="409" y="461" on="0"/>
        <pt x="478" y="509" on="0"/>
        <pt x="545" y="563" on="0"/>
        <pt x="604" y="607" on="0"/>
        <pt x="652" y="636" on="0"/>
        <pt x="668" y="636" on="1"/>
        <pt x="673" y="636" on="0"/>
        <pt x="683" y="626" on="0"/>
        <pt x="691" y="611" on="0"/>
        <pt x="696" y="596" on="0"/>
        <pt x="696" y="592" on="1"/>
        <pt x="679" y="592" on="0"/>
        <pt x="621" y="557" on="0"/>
        <pt x="527" y="491" on="0"/>
        <pt x="392" y="398" on="0"/>
        <pt x="299" y="341" on="1"/>
        <pt x="310" y="326" on="0"/>
        <pt x="337" y="284" on="0"/>
        <pt x="360" y="238" on="0"/>
        <pt x="376" y="190" on="0"/>
        <pt x="376" y="169" on="1"/>
        <pt x="381" y="67" on="0"/>
        <pt x="365" y="-135" on="0"/>
        <pt x="362" y="-232" on="1"/>
        <pt x="403" y="-241" on="0"/>
        <pt x="436" y="-262" on="0"/>
        <pt x="434" y="-279" on="0"/>
        <pt x="405" y="-289" on="0"/>
        <pt x="366" y="-286" on="0"/>
        <pt x="324" y="-267" on="0"/>
      </contour>
    </TTGlyph>
    <TTGlyph name="Kcommaaccent" xMin="26" yMin="-381" xMax="696" yMax="696">
      <component glyphName="K" x="0" y="0" flags="0x1204"/>
      <component glyphName="commaaccent" x="-89" y="5" flags="0x1004"/>
    </TTGlyph>
    <TTGlyph name="L" xMin="13" yMin="-109" xMax="858" yMax="725">
      <contour>
        <pt x="424" y="205" on="1"/>
        <pt x="410" y="205" on="0"/>
        <pt x="382" y="174" on="0"/>
        <pt x="349" y="128" on="0"/>
        <pt x="309" y="73" on="0"/>
        <pt x="258" y="27" on="0"/>
        <pt x="194" y="-4" on="0"/>
        <pt x="153" y="-4" on="1"/>
        <pt x="134" y="-4" on="0"/>
        <pt x="85" y="-1" on="0"/>
        <pt x="42" y="12" on="0"/>
        <pt x="13" y="41" on="0"/>
        <pt x="13" y="67" on="1"/>
        <pt x="13" y="102" on="0"/>
        <pt x="56" y="159" on="0"/>
        <pt x="125" y="205" on="0"/>
        <pt x="210" y="239" on="0"/>
        <pt x="294" y="263" on="0"/>
        <pt x="368" y="278" on="0"/>
        <pt x="391" y="282" on="1"/>
        <pt x="586" y="593" on="1"/>
        <pt x="599" y="614" on="0"/>
        <pt x="643" y="660" on="0"/>
        <pt x="695" y="699" on="0"/>
        <pt x="752" y="725" on="0"/>
        <pt x="778" y="725" on="1"/>
        <pt x="783" y="725" on="0"/>
        <pt x="810" y="721" on="0"/>
        <pt x="837" y="697" on="0"/>
        <pt x="858" y="643" on="0"/>
        <pt x="858" y="593" on="1"/>
        <pt x="851" y="591" on="0"/>
        <pt x="839" y="582" on="0"/>
        <pt x="824" y="573" on="0"/>
        <pt x="805" y="566" on="0"/>
        <pt x="793" y="566" on="1"/>
        <pt x="809" y="599" on="0"/>
        <pt x="800" y="638" on="0"/>
        <pt x="768" y="652" on="0"/>
        <pt x="720" y="644" on="0"/>
        <pt x="672" y="619" on="0"/>
        <pt x="633" y="579" on="0"/>
        <pt x="625" y="554" on="1"/>
        <pt x="456" y="268" on="1"/>
        <pt x="456" y="255" on="1"/>
        <pt x="497" y="226" on="0"/>
        <pt x="540" y="158" on="0"/>
        <pt x="563" y="89" on="0"/>
        <pt x="575" y="23" on="0"/>
        <pt x="594" y="-30" on="0"/>
        <pt x="629" y="-65" on="0"/>
        <pt x="664" y="-69" on="1"/>
        <pt x="664" y="-70" on="0"/>
        <pt x="665" y="-74" on="0"/>
        <pt x="665" y="-75" on="1"/>
        <pt x="665" y="-87" on="0"/>
        <pt x="646" y="-100" on="0"/>
        <pt x="620" y="-107" on="0"/>
        <pt x="593" y="-109" on="0"/>
        <pt x="585" y="-109" on="1"/>
        <pt x="564" y="-91" on="0"/>
        <pt x="537" y="-31" on="0"/>
        <pt x="517" y="38" on="0"/>
        <pt x="500" y="109" on="0"/>
        <pt x="478" y="166" on="0"/>
        <pt x="448" y="204" on="0"/>
      </contour>
      <contour>
        <pt x="67" y="81" on="1"/>
        <pt x="67" y="69" on="0"/>
        <pt x="84" y="55" on="0"/>
        <pt x="108" y="49" on="0"/>
        <pt x="133" y="47" on="0"/>
        <pt x="140" y="47" on="1"/>
        <pt x="167" y="47" on="0"/>
        <pt x="233" y="76" on="0"/>
        <pt x="290" y="122" on="0"/>
        <pt x="329" y="179" on="0"/>
        <pt x="329" y="208" on="1"/>
        <pt x="251" y="208" on="0"/>
        <pt x="116" y="153" on="0"/>
        <pt x="68" y="87" on="1"/>
        <pt x="68" y="86" on="0"/>
        <pt x="67" y="82" on="0"/>
      </contour>
    </TTGlyph>
    <TTGlyph name="Lacute" xMin="13" yMin="-109" xMax="858" yMax="1020">
      <component glyphName="L" x="0" y="0" flags="0x1204"/>
      <component glyphName="acute" x="558" y="191" flags="0x1004"/>
    </TTGlyph>
    <TTGlyph name="Lcaron" xMin="13" yMin="-109" xMax="906" yMax="1014">
      <component glyphName="L" x="0" y="0" flags="0x1204"/>
      <component glyphName="caron" x="593" y="191" flags="0x1004"/>
    </TTGlyph>
    <TTGlyph name="Lcommaaccent" xMin="13" yMin="-386" xMax="858" yMax="725">
      <component glyphName="L" x="0" y="0" flags="0x1204"/>
      <component glyphName="commaaccent" x="103" y="0" flags="0x1004"/>
    </TTGlyph>
    <TTGlyph name="Ldot" xMin="13" yMin="-109" xMax="858" yMax="725">
      <component glyphName="L" x="0" y="0" flags="0x1204"/>
      <component glyphName="periodcentered" x="502" y="8" flags="0x1004"/>
    </TTGlyph>
    <TTGlyph name="Lslash" xMin="26" yMin="-112" xMax="871" yMax="722">
      <contour>
        <pt x="332" y="395" on="1"/>
        <pt x="359" y="398" on="0"/>
        <pt x="422" y="407" on="0"/>
        <pt x="455" y="411" on="1"/>
        <pt x="472" y="414" on="0"/>
        <pt x="490" y="416" on="1"/>
        <pt x="599" y="590" on="1"/>
        <pt x="612" y="611" on="0"/>
        <pt x="656" y="657" on="0"/>
        <pt x="708" y="696" on="0"/>
        <pt x="765" y="722" on="0"/>
        <pt x="791" y="722" on="1"/>
        <pt x="796" y="722" on="0"/>
        <pt x="823" y="718" on="0"/>
        <pt x="850" y="694" on="0"/>
        <pt x="871" y="640" on="0"/>
        <pt x="871" y="590" on="1"/>
        <pt x="864" y="588" on="0"/>
        <pt x="852" y="579" on="0"/>
        <pt x="837" y="570" on="0"/>
        <pt x="818" y="563" on="0"/>
        <pt x="806" y="563" on="1"/>
        <pt x="822" y="596" on="0"/>
        <pt x="813" y="635" on="0"/>
        <pt x="781" y="649" on="0"/>
        <pt x="733" y="641" on="0"/>
        <pt x="685" y="616" on="0"/>
        <pt x="646" y="576" on="0"/>
        <pt x="638" y="551" on="1"/>
        <pt x="562" y="422" on="1"/>
        <pt x="582" y="422" on="1"/>
        <pt x="590" y="422" on="0"/>
        <pt x="608" y="423" on="0"/>
        <pt x="625" y="418" on="0"/>
        <pt x="639" y="407" on="0"/>
        <pt x="642" y="395" on="1"/>
        <pt x="636" y="384" on="0"/>
        <pt x="600" y="367" on="0"/>
        <pt x="550" y="355" on="0"/>
        <pt x="522" y="351" on="1"/>
        <pt x="520" y="351" on="1"/>
        <pt x="469" y="265" on="1"/>
        <pt x="469" y="252" on="1"/>
        <pt x="510" y="223" on="0"/>
        <pt x="553" y="155" on="0"/>
        <pt x="576" y="86" on="0"/>
        <pt x="588" y="20" on="0"/>
        <pt x="607" y="-33" on="0"/>
        <pt x="642" y="-68" on="0"/>
        <pt x="677" y="-72" on="1"/>
        <pt x="677" y="-73" on="0"/>
        <pt x="678" y="-77" on="0"/>
        <pt x="678" y="-78" on="1"/>
        <pt x="678" y="-90" on="0"/>
        <pt x="659" y="-103" on="0"/>
        <pt x="633" y="-110" on="0"/>
        <pt x="606" y="-112" on="0"/>
        <pt x="598" y="-112" on="1"/>
        <pt x="577" y="-94" on="0"/>
        <pt x="550" y="-34" on="0"/>
        <pt x="530" y="35" on="0"/>
        <pt x="513" y="106" on="0"/>
        <pt x="491" y="163" on="0"/>
        <pt x="461" y="201" on="0"/>
        <pt x="437" y="202" on="1"/>
        <pt x="423" y="202" on="0"/>
        <pt x="395" y="171" on="0"/>
        <pt x="362" y="125" on="0"/>
        <pt x="322" y="70" on="0"/>
        <pt x="271" y="24" on="0"/>
        <pt x="207" y="-7" on="0"/>
        <pt x="166" y="-7" on="1"/>
        <pt x="147" y="-7" on="0"/>
        <pt x="98" y="-4" on="0"/>
        <pt x="55" y="9" on="0"/>
        <pt x="26" y="38" on="0"/>
        <pt x="26" y="64" on="1"/>
        <pt x="26" y="99" on="0"/>
        <pt x="69" y="156" on="0"/>
        <pt x="138" y="202" on="0"/>
        <pt x="223" y="236" on="0"/>
        <pt x="307" y="260" on="0"/>
        <pt x="381" y="275" on="0"/>
        <pt x="404" y="279" on="1"/>
        <pt x="444" y="343" on="1"/>
        <pt x="435" y="342" on="0"/>
        <pt x="428" y="342" on="1"/>
        <pt x="408" y="342" on="1"/>
        <pt x="399" y="342" on="0"/>
        <pt x="373" y="345" on="0"/>
        <pt x="349" y="352" on="0"/>
        <pt x="332" y="362" on="0"/>
        <pt x="332" y="368" on="1"/>
      </contour>
      <contour>
        <pt x="80" y="78" on="1"/>
        <pt x="80" y="66" on="0"/>
        <pt x="97" y="52" on="0"/>
        <pt x="121" y="46" on="0"/>
        <pt x="146" y="44" on="0"/>
        <pt x="153" y="44" on="1"/>
        <pt x="180" y="44" on="0"/>
        <pt x="246" y="73" on="0"/>
        <pt x="303" y="119" on="0"/>
        <pt x="342" y="176" on="0"/>
        <pt x="342" y="205" on="1"/>
        <pt x="264" y="205" on="0"/>
        <pt x="129" y="150" on="0"/>
        <pt x="81" y="84" on="1"/>
        <pt x="81" y="83" on="0"/>
        <pt x="80" y="79" on="0"/>
      </contour>
    </TTGlyph>
    <TTGlyph name="M" xMin="20" yMin="-72" xMax="1021" yMax="665">
      <contour>
        <pt x="758" y="46" on="1"/>
        <pt x="758" y="104" on="0"/>
        <pt x="789" y="223" on="0"/>
        <pt x="836" y="339" on="0"/>
        <pt x="890" y="448" on="0"/>
        <pt x="914" y="496" on="1"/>
        <pt x="914" y="509" on="1"/>
        <pt x="903" y="497" on="0"/>
        <pt x="856" y="446" on="0"/>
        <pt x="797" y="382" on="0"/>
        <pt x="732" y="311" on="0"/>
        <pt x="673" y="247" on="0"/>
        <pt x="627" y="196" on="0"/>
        <pt x="616" y="184" on="1"/>
        <pt x="605" y="172" on="0"/>
        <pt x="585" y="125" on="0"/>
        <pt x="561" y="77" on="0"/>
        <pt x="532" y="41" on="0"/>
        <pt x="514" y="41" on="1"/>
        <pt x="499" y="41" on="0"/>
        <pt x="482" y="47" on="0"/>
        <pt x="474" y="60" on="0"/>
        <pt x="472" y="80" on="0"/>
        <pt x="472" y="94" on="1"/>
        <pt x="472" y="168" on="0"/>
        <pt x="515" y="307" on="0"/>
        <pt x="539" y="379" on="1"/>
        <pt x="539" y="392" on="1"/>
        <pt x="537" y="390" on="0"/>
        <pt x="527" y="381" on="0"/>
        <pt x="526" y="379" on="1"/>
        <pt x="502" y="343" on="0"/>
        <pt x="452" y="260" on="0"/>
        <pt x="398" y="179" on="0"/>
        <pt x="336" y="105" on="0"/>
        <pt x="264" y="48" on="0"/>
        <pt x="179" y="14" on="0"/>
        <pt x="128" y="14" on="1"/>
        <pt x="117" y="14" on="0"/>
        <pt x="80" y="16" on="0"/>
        <pt x="45" y="26" on="0"/>
        <pt x="20" y="48" on="0"/>
        <pt x="20" y="68" on="1"/>
        <pt x="20" y="76" on="0"/>
        <pt x="39" y="101" on="0"/>
        <pt x="46" y="106" on="1"/>
        <pt x="60" y="83" on="0"/>
        <pt x="79" y="68" on="0"/>
        <pt x="97" y="68" on="1"/>
        <pt x="127" y="68" on="0"/>
        <pt x="194" y="87" on="0"/>
        <pt x="257" y="119" on="0"/>
        <pt x="313" y="161" on="0"/>
        <pt x="332" y="184" on="1"/>
        <pt x="347" y="204" on="0"/>
        <pt x="390" y="267" on="0"/>
        <pt x="439" y="342" on="0"/>
        <pt x="491" y="420" on="0"/>
        <pt x="540" y="491" on="0"/>
        <pt x="582" y="547" on="0"/>
        <pt x="597" y="561" on="1"/>
        <pt x="611" y="561" on="0"/>
        <pt x="625" y="552" on="0"/>
        <pt x="631" y="536" on="0"/>
        <pt x="631" y="514" on="0"/>
        <pt x="631" y="502" on="1"/>
        <pt x="631" y="460" on="0"/>
        <pt x="606" y="380" on="0"/>
        <pt x="576" y="305" on="0"/>
        <pt x="551" y="233" on="0"/>
        <pt x="551" y="198" on="1"/>
        <pt x="551" y="196" on="0"/>
        <pt x="552" y="186" on="0"/>
        <pt x="552" y="184" on="1"/>
        <pt x="646" y="288" on="0"/>
        <pt x="782" y="440" on="0"/>
        <pt x="877" y="547" on="0"/>
        <pt x="937" y="614" on="0"/>
        <pt x="973" y="651" on="0"/>
        <pt x="992" y="665" on="0"/>
        <pt x="998" y="665" on="1"/>
        <pt x="1008" y="665" on="0"/>
        <pt x="1018" y="653" on="0"/>
        <pt x="1021" y="637" on="0"/>
        <pt x="1020" y="619" on="0"/>
        <pt x="1020" y="613" on="1"/>
        <pt x="1020" y="571" on="0"/>
        <pt x="989" y="484" on="0"/>
        <pt x="942" y="393" on="0"/>
        <pt x="887" y="300" on="0"/>
        <pt x="840" y="202" on="0"/>
        <pt x="809" y="101" on="0"/>
        <pt x="809" y="48" on="1"/>
        <pt x="809" y="21" on="0"/>
        <pt x="811" y="-4" on="0"/>
        <pt x="821" y="-21" on="0"/>
        <pt x="843" y="-40" on="0"/>
        <pt x="863" y="-61" on="1"/>
        <pt x="840" y="-74" on="0"/>
        <pt x="797" y="-69" on="0"/>
        <pt x="766" y="-39" on="0"/>
        <pt x="752" y="13" on="0"/>
      </contour>
    </TTGlyph>
    <TTGlyph name="N" xMin="6" yMin="-6" xMax="1095" yMax="896">
      <contour>
        <pt x="602" y="56" on="1"/>
        <pt x="602" y="111" on="0"/>
        <pt x="610" y="222" on="0"/>
        <pt x="621" y="332" on="0"/>
        <pt x="629" y="443" on="0"/>
        <pt x="629" y="499" on="1"/>
        <pt x="629" y="570" on="1"/>
        <pt x="627" y="568" on="0"/>
        <pt x="619" y="557" on="0"/>
        <pt x="610" y="545" on="0"/>
        <pt x="603" y="534" on="0"/>
        <pt x="602" y="531" on="1"/>
        <pt x="598" y="524" on="0"/>
        <pt x="575" y="481" on="0"/>
        <pt x="543" y="422" on="0"/>
        <pt x="507" y="356" on="0"/>
        <pt x="475" y="297" on="0"/>
        <pt x="450" y="254" on="0"/>
        <pt x="446" y="247" on="1"/>
        <pt x="426" y="213" on="0"/>
        <pt x="380" y="131" on="0"/>
        <pt x="323" y="59" on="0"/>
        <pt x="251" y="11" on="0"/>
        <pt x="205" y="11" on="1"/>
        <pt x="158" y="11" on="0"/>
        <pt x="85" y="52" on="0"/>
        <pt x="33" y="119" on="0"/>
        <pt x="6" y="203" on="0"/>
        <pt x="6" y="247" on="1"/>
        <pt x="6" y="252" on="0"/>
        <pt x="16" y="281" on="0"/>
        <pt x="19" y="285" on="1"/>
        <pt x="35" y="272" on="0"/>
        <pt x="59" y="233" on="0"/>
        <pt x="80" y="189" on="0"/>
        <pt x="101" y="146" on="0"/>
        <pt x="128" y="111" on="0"/>
        <pt x="164" y="89" on="0"/>
        <pt x="190" y="89" on="1"/>
        <pt x="224" y="89" on="0"/>
        <pt x="275" y="114" on="0"/>
        <pt x="317" y="155" on="0"/>
        <pt x="357" y="206" on="0"/>
        <pt x="382" y="233" on="1"/>
        <pt x="390" y="247" on="0"/>
        <pt x="423" y="303" on="0"/>
        <pt x="465" y="375" on="0"/>
        <pt x="510" y="454" on="0"/>
        <pt x="550" y="525" on="0"/>
        <pt x="582" y="582" on="0"/>
        <pt x="590" y="596" on="1"/>
        <pt x="592" y="600" on="0"/>
        <pt x="607" y="634" on="0"/>
        <pt x="624" y="674" on="0"/>
        <pt x="639" y="708" on="0"/>
        <pt x="641" y="713" on="1"/>
        <pt x="647" y="726" on="0"/>
        <pt x="660" y="726" on="1"/>
        <pt x="678" y="726" on="0"/>
        <pt x="693" y="688" on="0"/>
        <pt x="697" y="640" on="0"/>
        <pt x="694" y="598" on="0"/>
        <pt x="694" y="594" on="1"/>
        <pt x="694" y="523" on="0"/>
        <pt x="680" y="383" on="0"/>
        <pt x="680" y="311" on="1"/>
        <pt x="680" y="226" on="1"/>
        <pt x="687" y="242" on="0"/>
        <pt x="717" y="314" on="0"/>
        <pt x="755" y="406" on="0"/>
        <pt x="797" y="509" on="0"/>
        <pt x="836" y="601" on="0"/>
        <pt x="866" y="672" on="0"/>
        <pt x="874" y="687" on="1"/>
        <pt x="889" y="716" on="0"/>
        <pt x="933" y="789" on="0"/>
        <pt x="988" y="853" on="0"/>
        <pt x="1056" y="896" on="0"/>
        <pt x="1095" y="896" on="1"/>
        <pt x="1038" y="858" on="0"/>
        <pt x="940" y="721" on="0"/>
        <pt x="858" y="552" on="0"/>
        <pt x="789" y="368" on="0"/>
        <pt x="732" y="200" on="0"/>
        <pt x="685" y="63" on="0"/>
        <pt x="646" y="-9" on="0"/>
        <pt x="615" y="-3" on="0"/>
      </contour>
    </TTGlyph>
    <TTGlyph name="Nacute" xMin="6" yMin="-6" xMax="1095" yMax="1090">
      <component glyphName="N" x="0" y="0" flags="0x1204"/>
      <component glyphName="acute" x="729" y="261" flags="0x1004"/>
    </TTGlyph>
    <TTGlyph name="Ncaron" xMin="6" yMin="-6" xMax="1095" yMax="1014">
      <component glyphName="N" x="0" y="0" flags="0x1204"/>
      <component glyphName="caron" x="593" y="191" flags="0x1004"/>
    </TTGlyph>
    <TTGlyph name="Ncommaaccent" xMin="6" yMin="-386" xMax="1095" yMax="896">
      <component glyphName="N" x="0" y="0" flags="0x1204"/>
      <component glyphName="commaaccent" x="205" y="0" flags="0x1004"/>
    </TTGlyph>
    <TTGlyph name="Ntilde" xMin="6" yMin="-6" xMax="1095" yMax="1008">
      <component glyphName="N" x="0" y="0" flags="0x1204"/>
      <component glyphName="tilde" x="484" y="372" flags="0x1004"/>
    </TTGlyph>
    <TTGlyph name="O" xMin="14" yMin="-1" xMax="526" yMax="731">
      <contour>
        <pt x="84" y="-1" on="1"/>
        <pt x="57" y="0" on="0"/>
        <pt x="26" y="25" on="0"/>
        <pt x="14" y="62" on="0"/>
        <pt x="15" y="108" on="0"/>
        <pt x="19" y="130" on="1"/>
        <pt x="71" y="288" on="0"/>
        <pt x="167" y="507" on="0"/>
        <pt x="253" y="646" on="0"/>
        <pt x="329" y="717" on="0"/>
        <pt x="394" y="739" on="0"/>
        <pt x="447" y="722" on="0"/>
        <pt x="489" y="686" on="0"/>
        <pt x="518" y="641" on="0"/>
        <pt x="526" y="624" on="1"/>
        <pt x="522" y="524" on="0"/>
        <pt x="454" y="328" on="0"/>
        <pt x="337" y="160" on="0"/>
        <pt x="178" y="32" on="0"/>
      </contour>
      <contour>
        <pt x="343" y="635" on="1"/>
        <pt x="321" y="630" on="0"/>
        <pt x="266" y="558" on="0"/>
        <pt x="209" y="450" on="0"/>
        <pt x="153" y="319" on="0"/>
        <pt x="107" y="195" on="0"/>
        <pt x="73" y="89" on="0"/>
        <pt x="67" y="60" on="1"/>
        <pt x="104" y="60" on="0"/>
        <pt x="193" y="104" on="0"/>
        <pt x="273" y="169" on="0"/>
        <pt x="333" y="243" on="0"/>
        <pt x="343" y="272" on="1"/>
        <pt x="343" y="275" on="1"/>
        <pt x="343" y="277" on="0"/>
        <pt x="344" y="278" on="0"/>
        <pt x="344" y="279" on="1"/>
        <pt x="344" y="280" on="0"/>
        <pt x="343" y="282" on="0"/>
        <pt x="343" y="283" on="1"/>
        <pt x="343" y="285" on="1"/>
        <pt x="321" y="324" on="0"/>
        <pt x="298" y="414" on="0"/>
        <pt x="298" y="506" on="0"/>
        <pt x="320" y="596" on="0"/>
      </contour>
      <contour>
        <pt x="460" y="663" on="1"/>
        <pt x="406" y="647" on="0"/>
        <pt x="353" y="568" on="0"/>
        <pt x="339" y="469" on="0"/>
        <pt x="357" y="364" on="0"/>
        <pt x="375" y="323" on="1"/>
        <pt x="482" y="440" on="0"/>
        <pt x="487" y="603" on="1"/>
        <pt x="487" y="612" on="0"/>
        <pt x="488" y="632" on="0"/>
        <pt x="485" y="649" on="0"/>
        <pt x="473" y="662" on="0"/>
      </contour>
    </TTGlyph>
    <TTGlyph name="OE" xMin="14" yMin="-10" xMax="796" yMax="731">
      <contour>
        <pt x="84" y="-1" on="1"/>
        <pt x="57" y="0" on="0"/>
        <pt x="26" y="25" on="0"/>
        <pt x="14" y="62" on="0"/>
        <pt x="15" y="108" on="0"/>
        <pt x="19" y="130" on="1"/>
        <pt x="71" y="288" on="0"/>
        <pt x="167" y="507" on="0"/>
        <pt x="253" y="646" on="0"/>
        <pt x="329" y="717" on="0"/>
        <pt x="394" y="739" on="0"/>
        <pt x="447" y="722" on="0"/>
        <pt x="489" y="686" on="0"/>
        <pt x="518" y="641" on="0"/>
        <pt x="526" y="624" on="1"/>
        <pt x="523" y="567" on="0"/>
        <pt x="512" y="512" on="1"/>
        <pt x="517" y="532" on="0"/>
        <pt x="527" y="550" on="1"/>
        <pt x="547" y="587" on="0"/>
        <pt x="612" y="638" on="0"/>
        <pt x="693" y="666" on="0"/>
        <pt x="735" y="666" on="1"/>
        <pt x="753" y="666" on="0"/>
        <pt x="777" y="639" on="0"/>
        <pt x="791" y="601" on="0"/>
        <pt x="796" y="561" on="0"/>
        <pt x="796" y="548" on="1"/>
        <pt x="761" y="548" on="1"/>
        <pt x="761" y="559" on="0"/>
        <pt x="756" y="583" on="0"/>
        <pt x="745" y="602" on="0"/>
        <pt x="728" y="615" on="0"/>
        <pt x="715" y="615" on="1"/>
        <pt x="692" y="615" on="0"/>
        <pt x="638" y="590" on="0"/>
        <pt x="591" y="551" on="0"/>
        <pt x="559" y="501" on="0"/>
        <pt x="559" y="476" on="1"/>
        <pt x="559" y="463" on="0"/>
        <pt x="576" y="452" on="0"/>
        <pt x="603" y="448" on="0"/>
        <pt x="633" y="448" on="0"/>
        <pt x="660" y="445" on="0"/>
        <pt x="677" y="433" on="0"/>
        <pt x="677" y="420" on="1"/>
        <pt x="677" y="412" on="0"/>
        <pt x="673" y="397" on="0"/>
        <pt x="663" y="392" on="1"/>
        <pt x="605" y="377" on="0"/>
        <pt x="512" y="336" on="0"/>
        <pt x="436" y="279" on="0"/>
        <pt x="371" y="201" on="0"/>
        <pt x="340" y="147" on="1"/>
        <pt x="340" y="145" on="0"/>
        <pt x="339" y="129" on="0"/>
        <pt x="339" y="127" on="1"/>
        <pt x="339" y="91" on="0"/>
        <pt x="380" y="54" on="0"/>
        <pt x="414" y="54" on="1"/>
        <pt x="452" y="54" on="0"/>
        <pt x="547" y="78" on="0"/>
        <pt x="637" y="106" on="0"/>
        <pt x="712" y="130" on="0"/>
        <pt x="730" y="130" on="1"/>
        <pt x="729" y="108" on="0"/>
        <pt x="693" y="68" on="0"/>
        <pt x="635" y="35" on="0"/>
        <pt x="562" y="9" on="0"/>
        <pt x="487" y="-7" on="0"/>
        <pt x="416" y="-13" on="0"/>
        <pt x="389" y="-10" on="1"/>
        <pt x="363" y="-10" on="0"/>
        <pt x="324" y="14" on="0"/>
        <pt x="299" y="52" on="0"/>
        <pt x="292" y="75" on="1"/>
        <pt x="286" y="98" on="0"/>
        <pt x="286" y="120" on="1"/>
        <pt x="272" y="108" on="0"/>
        <pt x="257" y="96" on="1"/>
        <pt x="178" y="32" on="0"/>
      </contour>
      <contour>
        <pt x="343" y="635" on="1"/>
        <pt x="321" y="630" on="0"/>
        <pt x="266" y="558" on="0"/>
        <pt x="209" y="450" on="0"/>
        <pt x="153" y="319" on="0"/>
        <pt x="107" y="195" on="0"/>
        <pt x="73" y="89" on="0"/>
        <pt x="67" y="60" on="1"/>
        <pt x="104" y="60" on="0"/>
        <pt x="193" y="104" on="0"/>
        <pt x="273" y="169" on="0"/>
        <pt x="333" y="243" on="0"/>
        <pt x="343" y="272" on="1"/>
        <pt x="343" y="277" on="1"/>
        <pt x="344" y="279" on="1"/>
        <pt x="344" y="280" on="0"/>
        <pt x="343" y="282" on="0"/>
        <pt x="343" y="283" on="1"/>
        <pt x="343" y="285" on="1"/>
        <pt x="321" y="324" on="0"/>
        <pt x="298" y="414" on="0"/>
        <pt x="298" y="506" on="0"/>
        <pt x="320" y="596" on="0"/>
      </contour>
      <contour>
        <pt x="460" y="663" on="1"/>
        <pt x="406" y="647" on="0"/>
        <pt x="353" y="568" on="0"/>
        <pt x="339" y="469" on="0"/>
        <pt x="357" y="364" on="0"/>
        <pt x="375" y="323" on="1"/>
        <pt x="482" y="440" on="0"/>
        <pt x="487" y="603" on="1"/>
        <pt x="487" y="612" on="0"/>
        <pt x="488" y="632" on="0"/>
        <pt x="485" y="649" on="0"/>
        <pt x="473" y="662" on="0"/>
      </contour>
      <contour>
        <pt x="488" y="426" on="1"/>
        <pt x="479" y="399" on="0"/>
        <pt x="468" y="373" on="1"/>
        <pt x="497" y="397" on="0"/>
        <pt x="521" y="419" on="1"/>
        <pt x="521" y="425" on="0"/>
        <pt x="510" y="445" on="0"/>
        <pt x="507" y="470" on="1"/>
        <pt x="507" y="485" on="0"/>
        <pt x="508" y="498" on="1"/>
        <pt x="500" y="462" on="0"/>
      </contour>
    </TTGlyph>
    <TTGlyph name="Oacute" xMin="14" yMin="-1" xMax="526" yMax="954">
      <component glyphName="O" x="0" y="0" flags="0x1204"/>
      <component glyphName="acute" x="291" y="125" flags="0x1004"/>
    </TTGlyph>
    <TTGlyph name="Obreve" xMin="14" yMin="-1" xMax="526" yMax="1047">
      <component glyphName="O" x="0" y="0" flags="0x1204"/>
      <component glyphName="breve" x="67" y="205" flags="0x1004"/>
    </TTGlyph>
    <TTGlyph name="Ocircumflex" xMin="14" yMin="-1" xMax="557" yMax="948">
      <component glyphName="O" x="0" y="0" flags="0x1204"/>
      <component glyphName="circumflex" x="202" y="0" flags="0x1004"/>
    </TTGlyph>
    <TTGlyph name="Odieresis" xMin="14" yMin="-1" xMax="530" yMax="881">
      <component glyphName="O" x="0" y="0" flags="0x1204"/>
      <component glyphName="dieresis" x="161" y="135" flags="0x1004"/>
    </TTGlyph>
    <TTGlyph name="Ograve" xMin="14" yMin="-1" xMax="526" yMax="975">
      <component glyphName="O" x="0" y="0" flags="0x1204"/>
      <component glyphName="grave" x="264" y="135" flags="0x1004"/>
    </TTGlyph>
    <TTGlyph name="Ohungarumlaut" xMin="14" yMin="-1" xMax="526" yMax="1005">
      <component glyphName="O" x="0" y="0" flags="0x1204"/>
      <component glyphName="hungarumlaut" x="247" y="166" flags="0x1004"/>
    </TTGlyph>
    <TTGlyph name="Omacron" xMin="14" yMin="-1" xMax="579" yMax="896">
      <component glyphName="O" x="0" y="0" flags="0x1204"/>
      <component glyphName="macron" x="208" y="279" flags="0x1004"/>
    </TTGlyph>
    <TTGlyph name="Oslash" xMin="14" yMin="-30" xMax="560" yMax="731">
      <contour>
        <pt x="23" y="10" on="1"/>
        <pt x="23" y="22" on="0"/>
        <pt x="25" y="31" on="1"/>
        <pt x="22" y="37" on="0"/>
        <pt x="20" y="43" on="1"/>
        <pt x="14" y="62" on="0"/>
        <pt x="15" y="108" on="0"/>
        <pt x="19" y="130" on="1"/>
        <pt x="71" y="288" on="0"/>
        <pt x="167" y="507" on="0"/>
        <pt x="253" y="646" on="0"/>
        <pt x="329" y="717" on="0"/>
        <pt x="394" y="739" on="0"/>
        <pt x="447" y="722" on="0"/>
        <pt x="468" y="704" on="1"/>
        <pt x="480" y="693" on="0"/>
        <pt x="490" y="681" on="1"/>
        <pt x="516" y="706" on="0"/>
        <pt x="540" y="724" on="1"/>
        <pt x="542" y="725" on="0"/>
        <pt x="558" y="728" on="0"/>
        <pt x="560" y="728" on="1"/>
        <pt x="560" y="711" on="0"/>
        <pt x="543" y="677" on="1"/>
        <pt x="533" y="658" on="0"/>
        <pt x="520" y="636" on="1"/>
        <pt x="523" y="629" on="0"/>
        <pt x="526" y="624" on="1"/>
        <pt x="522" y="524" on="0"/>
        <pt x="454" y="328" on="0"/>
        <pt x="337" y="160" on="0"/>
        <pt x="257" y="96" on="1"/>
        <pt x="181" y="34" on="0"/>
        <pt x="91" y="1" on="1"/>
        <pt x="82" y="-7" on="0"/>
        <pt x="74" y="-15" on="1"/>
        <pt x="71" y="-18" on="0"/>
        <pt x="45" y="-30" on="0"/>
        <pt x="42" y="-30" on="1"/>
        <pt x="35" y="-30" on="0"/>
        <pt x="26" y="-20" on="0"/>
        <pt x="23" y="-7" on="0"/>
        <pt x="23" y="0" on="1"/>
      </contour>
      <contour>
        <pt x="343" y="635" on="1"/>
        <pt x="321" y="630" on="0"/>
        <pt x="266" y="558" on="0"/>
        <pt x="209" y="450" on="0"/>
        <pt x="153" y="319" on="0"/>
        <pt x="107" y="195" on="0"/>
        <pt x="90" y="142" on="1"/>
        <pt x="79" y="109" on="0"/>
        <pt x="73" y="85" on="1"/>
        <pt x="80" y="96" on="0"/>
        <pt x="90" y="111" on="1"/>
        <pt x="112" y="146" on="0"/>
        <pt x="167" y="232" on="0"/>
        <pt x="228" y="327" on="0"/>
        <pt x="256" y="370" on="1"/>
        <pt x="279" y="405" on="0"/>
        <pt x="298" y="434" on="1"/>
        <pt x="298" y="460" on="1"/>
        <pt x="298" y="506" on="0"/>
        <pt x="320" y="596" on="0"/>
      </contour>
      <contour>
        <pt x="233" y="136" on="1"/>
        <pt x="273" y="169" on="0"/>
        <pt x="333" y="243" on="0"/>
        <pt x="343" y="272" on="1"/>
        <pt x="343" y="277" on="1"/>
        <pt x="344" y="279" on="1"/>
        <pt x="344" y="280" on="0"/>
        <pt x="343" y="282" on="0"/>
        <pt x="343" y="283" on="1"/>
        <pt x="343" y="285" on="1"/>
        <pt x="326" y="314" on="0"/>
        <pt x="315" y="347" on="1"/>
        <pt x="289" y="310" on="0"/>
        <pt x="274" y="286" on="1"/>
        <pt x="259" y="262" on="0"/>
        <pt x="214" y="179" on="0"/>
        <pt x="187" y="135" on="1"/>
        <pt x="155" y="85" on="1"/>
        <pt x="196" y="106" on="0"/>
      </contour>
      <contour>
        <pt x="375" y="323" on="1"/>
        <pt x="475" y="432" on="0"/>
        <pt x="485" y="582" on="1"/>
        <pt x="464" y="550" on="0"/>
        <pt x="438" y="515" on="1"/>
        <pt x="405" y="470" on="0"/>
        <pt x="373" y="427" on="1"/>
        <pt x="362" y="412" on="0"/>
        <pt x="351" y="398" on="1"/>
        <pt x="360" y="356" on="0"/>
      </contour>
      <contour>
        <pt x="460" y="663" on="1"/>
        <pt x="406" y="647" on="0"/>
        <pt x="353" y="568" on="0"/>
        <pt x="346" y="518" on="1"/>
        <pt x="344" y="502" on="1"/>
        <pt x="356" y="521" on="0"/>
        <pt x="377" y="549" on="1"/>
        <pt x="400" y="580" on="0"/>
        <pt x="427" y="612" on="1"/>
        <pt x="448" y="637" on="0"/>
        <pt x="470" y="661" on="1"/>
        <pt x="466" y="662" on="0"/>
      </contour>
    </TTGlyph>
    <TTGlyph name="Oslashacute" xMin="14" yMin="-1" xMax="548" yMax="1078">
      <contour>
        <pt x="84" y="-1" on="1"/>
        <pt x="75" y="0" on="0"/>
        <pt x="67" y="1" on="1"/>
        <pt x="64" y="0" on="0"/>
        <pt x="63" y="0" on="1"/>
        <pt x="55" y="0" on="0"/>
        <pt x="51" y="5" on="1"/>
        <pt x="49" y="7" on="1"/>
        <pt x="45" y="9" on="0"/>
        <pt x="41" y="12" on="1"/>
        <pt x="26" y="25" on="0"/>
        <pt x="14" y="62" on="0"/>
        <pt x="15" y="108" on="0"/>
        <pt x="19" y="130" on="1"/>
        <pt x="71" y="288" on="0"/>
        <pt x="167" y="507" on="0"/>
        <pt x="253" y="646" on="0"/>
        <pt x="329" y="717" on="0"/>
        <pt x="394" y="739" on="0"/>
        <pt x="447" y="722" on="0"/>
        <pt x="468" y="704" on="1"/>
        <pt x="484" y="688" on="1"/>
        <pt x="508" y="712" on="0"/>
        <pt x="529" y="728" on="1"/>
        <pt x="531" y="729" on="0"/>
        <pt x="546" y="733" on="0"/>
        <pt x="548" y="733" on="1"/>
        <pt x="548" y="716" on="0"/>
        <pt x="532" y="683" on="1"/>
        <pt x="524" y="667" on="0"/>
        <pt x="513" y="648" on="1"/>
        <pt x="521" y="635" on="0"/>
        <pt x="526" y="624" on="1"/>
        <pt x="522" y="524" on="0"/>
        <pt x="454" y="328" on="0"/>
        <pt x="337" y="160" on="0"/>
        <pt x="178" y="32" on="0"/>
      </contour>
      <contour>
        <pt x="343" y="635" on="1"/>
        <pt x="321" y="630" on="0"/>
        <pt x="266" y="558" on="0"/>
        <pt x="209" y="450" on="0"/>
        <pt x="153" y="319" on="0"/>
        <pt x="107" y="195" on="0"/>
        <pt x="90" y="142" on="1"/>
        <pt x="79" y="109" on="0"/>
        <pt x="73" y="86" on="1"/>
        <pt x="77" y="88" on="1"/>
        <pt x="87" y="103" on="0"/>
        <pt x="128" y="170" on="0"/>
        <pt x="179" y="253" on="0"/>
        <pt x="237" y="345" on="0"/>
        <pt x="263" y="386" on="1"/>
        <pt x="282" y="416" on="0"/>
        <pt x="298" y="441" on="1"/>
        <pt x="298" y="460" on="1"/>
        <pt x="298" y="506" on="0"/>
        <pt x="320" y="596" on="0"/>
      </contour>
      <contour>
        <pt x="233" y="136" on="1"/>
        <pt x="273" y="169" on="0"/>
        <pt x="333" y="243" on="0"/>
        <pt x="343" y="272" on="1"/>
        <pt x="343" y="277" on="1"/>
        <pt x="344" y="279" on="1"/>
        <pt x="344" y="280" on="0"/>
        <pt x="343" y="282" on="0"/>
        <pt x="343" y="283" on="1"/>
        <pt x="343" y="285" on="1"/>
        <pt x="324" y="318" on="0"/>
        <pt x="312" y="356" on="1"/>
        <pt x="291" y="325" on="0"/>
        <pt x="280" y="306" on="1"/>
        <pt x="266" y="282" on="0"/>
        <pt x="224" y="202" on="0"/>
        <pt x="198" y="160" on="1"/>
        <pt x="174" y="120" on="0"/>
        <pt x="149" y="82" on="1"/>
        <pt x="193" y="104" on="0"/>
      </contour>
      <contour>
        <pt x="375" y="323" on="1"/>
        <pt x="482" y="440" on="0"/>
        <pt x="487" y="603" on="1"/>
        <pt x="487" y="605" on="1"/>
        <pt x="463" y="568" on="0"/>
        <pt x="434" y="527" on="1"/>
        <pt x="403" y="483" on="0"/>
        <pt x="373" y="441" on="1"/>
        <pt x="349" y="409" on="1"/>
        <pt x="358" y="361" on="0"/>
      </contour>
      <contour>
        <pt x="394" y="1078" on="1"/>
        <pt x="411" y="1077" on="0"/>
        <pt x="407" y="1046" on="0"/>
        <pt x="382" y="1003" on="0"/>
        <pt x="344" y="955" on="0"/>
        <pt x="306" y="920" on="0"/>
        <pt x="277" y="906" on="0"/>
        <pt x="275" y="918" on="1"/>
        <pt x="279" y="928" on="0"/>
        <pt x="307" y="976" on="0"/>
        <pt x="343" y="1027" on="0"/>
        <pt x="380" y="1071" on="0"/>
      </contour>
      <contour>
        <pt x="379" y="607" on="1"/>
        <pt x="353" y="568" on="0"/>
        <pt x="346" y="518" on="1"/>
        <pt x="345" y="516" on="0"/>
        <pt x="345" y="514" on="1"/>
        <pt x="357" y="532" on="0"/>
        <pt x="376" y="559" on="1"/>
        <pt x="398" y="589" on="0"/>
        <pt x="423" y="620" on="1"/>
        <pt x="440" y="642" on="0"/>
        <pt x="459" y="663" on="1"/>
        <pt x="406" y="647" on="0"/>
      </contour>
    </TTGlyph>
    <TTGlyph name="Otilde" xMin="14" yMin="-1" xMax="621" yMax="949">
      <component glyphName="O" x="0" y="0" flags="0x1204"/>
      <component glyphName="tilde" x="176" y="313" flags="0x1004"/>
    </TTGlyph>
    <TTGlyph name="P" xMin="5" yMin="-1" xMax="616" yMax="870">
      <contour>
        <pt x="5" y="26" on="1"/>
        <pt x="5" y="63" on="0"/>
        <pt x="46" y="149" on="0"/>
        <pt x="95" y="236" on="0"/>
        <pt x="136" y="320" on="0"/>
        <pt x="136" y="356" on="1"/>
        <pt x="136" y="370" on="0"/>
        <pt x="123" y="395" on="0"/>
        <pt x="108" y="420" on="0"/>
        <pt x="96" y="445" on="0"/>
        <pt x="96" y="460" on="1"/>
        <pt x="96" y="477" on="0"/>
        <pt x="123" y="509" on="0"/>
        <pt x="140" y="509" on="1"/>
        <pt x="140" y="500" on="0"/>
        <pt x="142" y="475" on="0"/>
        <pt x="149" y="451" on="0"/>
        <pt x="163" y="432" on="0"/>
        <pt x="175" y="428" on="1"/>
        <pt x="185" y="455" on="0"/>
        <pt x="226" y="542" on="0"/>
        <pt x="283" y="641" on="0"/>
        <pt x="350" y="740" on="0"/>
        <pt x="421" y="820" on="0"/>
        <pt x="493" y="870" on="0"/>
        <pt x="525" y="870" on="1"/>
        <pt x="549" y="870" on="0"/>
        <pt x="584" y="850" on="0"/>
        <pt x="606" y="817" on="0"/>
        <pt x="616" y="775" on="0"/>
        <pt x="616" y="753" on="1"/>
        <pt x="616" y="672" on="0"/>
        <pt x="547" y="531" on="0"/>
        <pt x="434" y="424" on="0"/>
        <pt x="290" y="357" on="0"/>
        <pt x="214" y="350" on="1"/>
        <pt x="187" y="311" on="1"/>
        <pt x="71" y="26" on="1"/>
        <pt x="63" y="9" on="0"/>
        <pt x="46" y="-1" on="0"/>
        <pt x="33" y="-1" on="1"/>
        <pt x="5" y="-1" on="0"/>
      </contour>
      <contour>
        <pt x="512" y="805" on="1"/>
        <pt x="484" y="805" on="0"/>
        <pt x="425" y="764" on="0"/>
        <pt x="367" y="698" on="0"/>
        <pt x="315" y="616" on="0"/>
        <pt x="275" y="535" on="0"/>
        <pt x="252" y="463" on="0"/>
        <pt x="252" y="440" on="1"/>
        <pt x="252" y="438" on="0"/>
        <pt x="253" y="418" on="0"/>
        <pt x="253" y="415" on="1"/>
        <pt x="316" y="418" on="0"/>
        <pt x="426" y="481" on="0"/>
        <pt x="506" y="579" on="0"/>
        <pt x="552" y="700" on="0"/>
        <pt x="552" y="760" on="1"/>
        <pt x="552" y="788" on="0"/>
        <pt x="540" y="805" on="0"/>
      </contour>
    </TTGlyph>
    <TTGlyph name="Q" xMin="18" yMin="-1" xMax="565" yMax="766">
      <contour>
        <pt x="304" y="130" on="1"/>
        <pt x="263" y="97" on="0"/>
        <pt x="163" y="51" on="0"/>
        <pt x="109" y="51" on="1"/>
        <pt x="63" y="51" on="0"/>
        <pt x="18" y="111" on="0"/>
        <pt x="18" y="150" on="1"/>
        <pt x="18" y="196" on="0"/>
        <pt x="49" y="300" on="0"/>
        <pt x="101" y="407" on="0"/>
        <pt x="171" y="511" on="0"/>
        <pt x="249" y="606" on="0"/>
        <pt x="331" y="685" on="0"/>
        <pt x="370" y="713" on="1"/>
        <pt x="370" y="724" on="1"/>
        <pt x="358" y="729" on="0"/>
        <pt x="331" y="714" on="0"/>
        <pt x="308" y="697" on="0"/>
        <pt x="291" y="692" on="0"/>
        <pt x="290" y="707" on="1"/>
        <pt x="290" y="738" on="0"/>
        <pt x="332" y="766" on="0"/>
        <pt x="359" y="766" on="1"/>
        <pt x="404" y="766" on="0"/>
        <pt x="479" y="728" on="0"/>
        <pt x="534" y="666" on="0"/>
        <pt x="565" y="587" on="0"/>
        <pt x="565" y="545" on="1"/>
        <pt x="565" y="497" on="0"/>
        <pt x="533" y="406" on="0"/>
        <pt x="483" y="322" on="0"/>
        <pt x="423" y="244" on="0"/>
        <pt x="395" y="208" on="1"/>
        <pt x="387" y="173" on="0"/>
        <pt x="382" y="126" on="0"/>
        <pt x="382" y="95" on="1"/>
        <pt x="382" y="77" on="0"/>
        <pt x="389" y="56" on="0"/>
        <pt x="404" y="43" on="0"/>
        <pt x="429" y="33" on="0"/>
        <pt x="447" y="26" on="1"/>
        <pt x="447" y="25" on="0"/>
        <pt x="448" y="23" on="1"/>
        <pt x="448" y="20" on="1"/>
        <pt x="448" y="19" on="0"/>
        <pt x="449" y="19" on="1"/>
        <pt x="449" y="11" on="0"/>
        <pt x="435" y="2" on="0"/>
        <pt x="417" y="-1" on="0"/>
        <pt x="398" y="-1" on="0"/>
        <pt x="393" y="-1" on="1"/>
        <pt x="369" y="-1" on="0"/>
        <pt x="334" y="24" on="0"/>
        <pt x="311" y="63" on="0"/>
        <pt x="302" y="109" on="0"/>
      </contour>
      <contour>
        <pt x="71" y="156" on="1"/>
        <pt x="71" y="133" on="0"/>
        <pt x="87" y="116" on="0"/>
        <pt x="109" y="116" on="1"/>
        <pt x="135" y="116" on="0"/>
        <pt x="211" y="137" on="0"/>
        <pt x="282" y="174" on="0"/>
        <pt x="332" y="226" on="0"/>
        <pt x="332" y="258" on="1"/>
        <pt x="332" y="283" on="0"/>
        <pt x="307" y="299" on="0"/>
        <pt x="277" y="307" on="0"/>
        <pt x="252" y="320" on="0"/>
        <pt x="252" y="343" on="1"/>
        <pt x="270" y="365" on="0"/>
        <pt x="310" y="370" on="0"/>
        <pt x="348" y="351" on="0"/>
        <pt x="382" y="316" on="0"/>
        <pt x="395" y="298" on="1"/>
        <pt x="397" y="299" on="0"/>
        <pt x="407" y="309" on="0"/>
        <pt x="409" y="311" on="1"/>
        <pt x="425" y="341" on="0"/>
        <pt x="465" y="400" on="0"/>
        <pt x="500" y="456" on="0"/>
        <pt x="524" y="508" on="0"/>
        <pt x="525" y="531" on="1"/>
        <pt x="525" y="538" on="1"/>
        <pt x="525" y="557" on="0"/>
        <pt x="508" y="612" on="0"/>
        <pt x="479" y="662" on="0"/>
        <pt x="441" y="698" on="0"/>
        <pt x="421" y="700" on="1"/>
        <pt x="411" y="676" on="0"/>
        <pt x="399" y="649" on="0"/>
        <pt x="393" y="636" on="0"/>
        <pt x="390" y="633" on="0"/>
        <pt x="389" y="633" on="1"/>
        <pt x="383" y="633" on="0"/>
        <pt x="378" y="642" on="0"/>
        <pt x="375" y="654" on="0"/>
        <pt x="370" y="663" on="0"/>
        <pt x="364" y="663" on="1"/>
        <pt x="348" y="663" on="0"/>
        <pt x="292" y="596" on="0"/>
        <pt x="227" y="492" on="0"/>
        <pt x="160" y="368" on="0"/>
        <pt x="105" y="256" on="0"/>
        <pt x="71" y="170" on="0"/>
      </contour>
    </TTGlyph>
    <TTGlyph name="R" xMin="15" yMin="-106" xMax="668" yMax="803">
      <contour>
        <pt x="484" y="-106" on="1"/>
        <pt x="439" y="-106" on="0"/>
        <pt x="385" y="-64" on="0"/>
        <pt x="356" y="5" on="0"/>
        <pt x="346" y="93" on="0"/>
        <pt x="343" y="185" on="0"/>
        <pt x="342" y="272" on="0"/>
        <pt x="330" y="338" on="0"/>
        <pt x="303" y="377" on="0"/>
        <pt x="275" y="374" on="1"/>
        <pt x="268" y="361" on="0"/>
        <pt x="241" y="309" on="0"/>
        <pt x="205" y="243" on="0"/>
        <pt x="166" y="169" on="0"/>
        <pt x="130" y="103" on="0"/>
        <pt x="101" y="50" on="0"/>
        <pt x="94" y="37" on="1"/>
        <pt x="86" y="23" on="0"/>
        <pt x="80" y="8" on="0"/>
        <pt x="73" y="-1" on="0"/>
        <pt x="62" y="-3" on="0"/>
        <pt x="51" y="-3" on="1"/>
        <pt x="31" y="-3" on="0"/>
        <pt x="15" y="10" on="0"/>
        <pt x="15" y="30" on="1"/>
        <pt x="32" y="94" on="0"/>
        <pt x="89" y="221" on="0"/>
        <pt x="159" y="346" on="0"/>
        <pt x="237" y="469" on="0"/>
        <pt x="275" y="529" on="1"/>
        <pt x="299" y="565" on="0"/>
        <pt x="363" y="660" on="0"/>
        <pt x="442" y="745" on="0"/>
        <pt x="535" y="803" on="0"/>
        <pt x="588" y="803" on="1"/>
        <pt x="607" y="804" on="0"/>
        <pt x="640" y="791" on="0"/>
        <pt x="662" y="765" on="0"/>
        <pt x="672" y="731" on="0"/>
        <pt x="668" y="711" on="1"/>
        <pt x="668" y="662" on="0"/>
        <pt x="627" y="571" on="0"/>
        <pt x="565" y="493" on="0"/>
        <pt x="494" y="429" on="0"/>
        <pt x="432" y="383" on="0"/>
        <pt x="391" y="356" on="0"/>
        <pt x="391" y="355" on="1"/>
        <pt x="391" y="343" on="0"/>
        <pt x="392" y="276" on="0"/>
        <pt x="397" y="190" on="0"/>
        <pt x="407" y="95" on="0"/>
        <pt x="424" y="12" on="0"/>
        <pt x="451" y="-46" on="0"/>
        <pt x="470" y="-53" on="1"/>
        <pt x="473" y="-54" on="0"/>
        <pt x="495" y="-58" on="0"/>
        <pt x="522" y="-63" on="0"/>
        <pt x="545" y="-66" on="0"/>
        <pt x="548" y="-67" on="1"/>
        <pt x="550" y="-68" on="0"/>
        <pt x="560" y="-78" on="0"/>
        <pt x="561" y="-80" on="1"/>
        <pt x="538" y="-98" on="0"/>
        <pt x="508" y="-106" on="0"/>
      </contour>
      <contour>
        <pt x="313" y="462" on="1"/>
        <pt x="313" y="447" on="0"/>
        <pt x="323" y="432" on="0"/>
        <pt x="341" y="426" on="0"/>
        <pt x="364" y="425" on="0"/>
        <pt x="377" y="425" on="1"/>
        <pt x="417" y="425" on="0"/>
        <pt x="497" y="482" on="0"/>
        <pt x="562" y="565" on="0"/>
        <pt x="602" y="659" on="0"/>
        <pt x="602" y="695" on="1"/>
        <pt x="602" y="705" on="0"/>
        <pt x="602" y="725" on="0"/>
        <pt x="598" y="742" on="0"/>
        <pt x="586" y="752" on="0"/>
        <pt x="573" y="752" on="1"/>
        <pt x="550" y="752" on="0"/>
        <pt x="494" y="721" on="0"/>
        <pt x="436" y="671" on="0"/>
        <pt x="381" y="608" on="0"/>
        <pt x="339" y="543" on="0"/>
        <pt x="313" y="483" on="0"/>
      </contour>
    </TTGlyph>
    <TTGlyph name="Racute" xMin="15" yMin="-106" xMax="668" yMax="1081">
      <component glyphName="R" x="0" y="0" flags="0x1204"/>
      <component glyphName="acute" x="478" y="252" flags="0x1004"/>
    </TTGlyph>
    <TTGlyph name="Rcaron" xMin="15" yMin="-106" xMax="678" yMax="1044">
      <component glyphName="R" x="0" y="0" flags="0x1204"/>
      <component glyphName="caron" x="365" y="221" flags="0x1004"/>
    </TTGlyph>
    <TTGlyph name="Rcommaaccent" xMin="15" yMin="-360" xMax="668" yMax="803">
      <component glyphName="R" x="0" y="0" flags="0x1204"/>
      <component glyphName="commaaccent" x="-14" y="26" flags="0x1004"/>
    </TTGlyph>
    <TTGlyph name="S" xMin="5" yMin="-1" xMax="705" yMax="700">
      <contour>
        <pt x="5" y="221" on="1"/>
        <pt x="5" y="237" on="0"/>
        <pt x="9" y="276" on="0"/>
        <pt x="23" y="308" on="0"/>
        <pt x="50" y="330" on="0"/>
        <pt x="73" y="330" on="1"/>
        <pt x="73" y="317" on="0"/>
        <pt x="68" y="295" on="0"/>
        <pt x="61" y="273" on="0"/>
        <pt x="56" y="248" on="0"/>
        <pt x="56" y="233" on="1"/>
        <pt x="56" y="195" on="0"/>
        <pt x="76" y="129" on="0"/>
        <pt x="117" y="80" on="0"/>
        <pt x="178" y="52" on="0"/>
        <pt x="220" y="52" on="1"/>
        <pt x="238" y="52" on="0"/>
        <pt x="290" y="68" on="0"/>
        <pt x="342" y="90" on="0"/>
        <pt x="386" y="112" on="0"/>
        <pt x="395" y="117" on="1"/>
        <pt x="417" y="129" on="0"/>
        <pt x="443" y="172" on="0"/>
        <pt x="457" y="223" on="0"/>
        <pt x="461" y="276" on="0"/>
        <pt x="461" y="297" on="1"/>
        <pt x="461" y="331" on="0"/>
        <pt x="448" y="396" on="0"/>
        <pt x="433" y="460" on="0"/>
        <pt x="420" y="524" on="0"/>
        <pt x="420" y="557" on="1"/>
        <pt x="431" y="588" on="0"/>
        <pt x="478" y="639" on="0"/>
        <pt x="539" y="676" on="0"/>
        <pt x="609" y="698" on="0"/>
        <pt x="642" y="700" on="1"/>
        <pt x="669" y="693" on="0"/>
        <pt x="697" y="672" on="0"/>
        <pt x="708" y="648" on="0"/>
        <pt x="702" y="626" on="0"/>
        <pt x="695" y="617" on="1"/>
        <pt x="684" y="641" on="0"/>
        <pt x="649" y="657" on="0"/>
        <pt x="606" y="651" on="0"/>
        <pt x="562" y="627" on="0"/>
        <pt x="522" y="597" on="0"/>
        <pt x="492" y="564" on="0"/>
        <pt x="485" y="552" on="1"/>
        <pt x="485" y="522" on="0"/>
        <pt x="498" y="465" on="0"/>
        <pt x="513" y="408" on="0"/>
        <pt x="526" y="351" on="0"/>
        <pt x="526" y="321" on="1"/>
        <pt x="526" y="249" on="0"/>
        <pt x="481" y="130" on="0"/>
        <pt x="396" y="45" on="0"/>
        <pt x="275" y="-1" on="0"/>
        <pt x="200" y="-1" on="1"/>
        <pt x="153" y="-1" on="0"/>
        <pt x="80" y="37" on="0"/>
        <pt x="31" y="100" on="0"/>
        <pt x="5" y="180" on="0"/>
      </contour>
    </TTGlyph>
    <TTGlyph name="Sacute" xMin="5" yMin="-1" xMax="705" yMax="943">
      <component glyphName="S" x="0" y="0" flags="0x1204"/>
      <component glyphName="acute" x="457" y="114" flags="0x1004"/>
    </TTGlyph>
    <TTGlyph name="Scaron" xMin="5" yMin="-1" xMax="705" yMax="889">
      <component glyphName="S" x="0" y="0" flags="0x1204"/>
      <component glyphName="caron" x="392" y="66" flags="0x1004"/>
    </TTGlyph>
    <TTGlyph name="Scedilla" xMin="5" yMin="-247" xMax="705" yMax="700">
      <contour>
        <pt x="120" y="-173" on="1"/>
        <pt x="120" y="-159" on="0"/>
        <pt x="128" y="-141" on="0"/>
        <pt x="144" y="-141" on="1"/>
        <pt x="151" y="-141" on="1"/>
        <pt x="156" y="-141" on="0"/>
        <pt x="158" y="-142" on="1"/>
        <pt x="157" y="-173" on="0"/>
        <pt x="181" y="-204" on="0"/>
        <pt x="210" y="-204" on="1"/>
        <pt x="235" y="-204" on="0"/>
        <pt x="267" y="-197" on="0"/>
        <pt x="285" y="-179" on="0"/>
        <pt x="292" y="-146" on="0"/>
        <pt x="292" y="-119" on="1"/>
        <pt x="292" y="-103" on="0"/>
        <pt x="273" y="-87" on="0"/>
        <pt x="250" y="-75" on="0"/>
        <pt x="231" y="-63" on="0"/>
        <pt x="231" y="-51" on="1"/>
        <pt x="229" y="-19" on="0"/>
        <pt x="233" y="0" on="1"/>
        <pt x="217" y="-1" on="0"/>
        <pt x="200" y="-1" on="1"/>
        <pt x="153" y="-1" on="0"/>
        <pt x="80" y="37" on="0"/>
        <pt x="31" y="100" on="0"/>
        <pt x="5" y="180" on="0"/>
        <pt x="5" y="221" on="1"/>
        <pt x="5" y="237" on="0"/>
        <pt x="9" y="276" on="0"/>
        <pt x="23" y="308" on="0"/>
        <pt x="50" y="330" on="0"/>
        <pt x="73" y="330" on="1"/>
        <pt x="73" y="317" on="0"/>
        <pt x="68" y="295" on="0"/>
        <pt x="61" y="273" on="0"/>
        <pt x="56" y="248" on="0"/>
        <pt x="56" y="233" on="1"/>
        <pt x="56" y="195" on="0"/>
        <pt x="76" y="129" on="0"/>
        <pt x="117" y="80" on="0"/>
        <pt x="178" y="52" on="0"/>
        <pt x="220" y="52" on="1"/>
        <pt x="238" y="52" on="0"/>
        <pt x="290" y="68" on="0"/>
        <pt x="342" y="90" on="0"/>
        <pt x="386" y="112" on="0"/>
        <pt x="395" y="117" on="1"/>
        <pt x="417" y="129" on="0"/>
        <pt x="443" y="172" on="0"/>
        <pt x="457" y="223" on="0"/>
        <pt x="461" y="276" on="0"/>
        <pt x="461" y="297" on="1"/>
        <pt x="461" y="331" on="0"/>
        <pt x="448" y="396" on="0"/>
        <pt x="433" y="460" on="0"/>
        <pt x="420" y="524" on="0"/>
        <pt x="420" y="557" on="1"/>
        <pt x="431" y="588" on="0"/>
        <pt x="478" y="639" on="0"/>
        <pt x="539" y="676" on="0"/>
        <pt x="609" y="698" on="0"/>
        <pt x="642" y="700" on="1"/>
        <pt x="669" y="693" on="0"/>
        <pt x="697" y="672" on="0"/>
        <pt x="708" y="648" on="0"/>
        <pt x="702" y="626" on="0"/>
        <pt x="695" y="617" on="1"/>
        <pt x="684" y="641" on="0"/>
        <pt x="649" y="657" on="0"/>
        <pt x="606" y="651" on="0"/>
        <pt x="562" y="627" on="0"/>
        <pt x="522" y="597" on="0"/>
        <pt x="492" y="564" on="0"/>
        <pt x="485" y="552" on="1"/>
        <pt x="485" y="522" on="0"/>
        <pt x="498" y="465" on="0"/>
        <pt x="513" y="408" on="0"/>
        <pt x="526" y="351" on="0"/>
        <pt x="526" y="321" on="1"/>
        <pt x="526" y="249" on="0"/>
        <pt x="481" y="130" on="0"/>
        <pt x="396" y="45" on="0"/>
        <pt x="335" y="22" on="1"/>
        <pt x="307" y="11" on="0"/>
        <pt x="276" y="5" on="1"/>
        <pt x="279" y="-16" on="0"/>
        <pt x="270" y="-51" on="1"/>
        <pt x="281" y="-59" on="0"/>
        <pt x="305" y="-72" on="0"/>
        <pt x="324" y="-86" on="0"/>
        <pt x="337" y="-104" on="0"/>
        <pt x="337" y="-117" on="1"/>
        <pt x="337" y="-187" on="0"/>
        <pt x="281" y="-247" on="0"/>
        <pt x="215" y="-247" on="1"/>
        <pt x="177" y="-247" on="0"/>
        <pt x="120" y="-211" on="0"/>
      </contour>
    </TTGlyph>
    <TTGlyph name="Scircumflex" xMin="5" yMin="-1" xMax="737" yMax="985">
      <component glyphName="S" x="0" y="0" flags="0x1204"/>
      <component glyphName="circumflex" x="382" y="37" flags="0x1004"/>
    </TTGlyph>
    <TTGlyph name="Scommaaccent" xMin="5" yMin="-360" xMax="705" yMax="700">
      <component glyphName="S" x="0" y="0" flags="0x1204"/>
      <component glyphName="commaaccent" x="-14" y="26" flags="0x1004"/>
    </TTGlyph>
    <TTGlyph name="T" xMin="5" yMin="-1" xMax="719" yMax="700">
      <contour>
        <pt x="134" y="25" on="1"/>
        <pt x="134" y="48" on="0"/>
        <pt x="154" y="99" on="0"/>
        <pt x="162" y="117" on="1"/>
        <pt x="169" y="131" on="0"/>
        <pt x="199" y="190" on="0"/>
        <pt x="237" y="264" on="0"/>
        <pt x="280" y="346" on="0"/>
        <pt x="318" y="420" on="0"/>
        <pt x="349" y="479" on="0"/>
        <pt x="356" y="493" on="1"/>
        <pt x="357" y="494" on="0"/>
        <pt x="364" y="506" on="0"/>
        <pt x="373" y="518" on="0"/>
        <pt x="381" y="529" on="0"/>
        <pt x="382" y="531" on="1"/>
        <pt x="383" y="533" on="0"/>
        <pt x="379" y="537" on="0"/>
        <pt x="379" y="539" on="1"/>
        <pt x="336" y="534" on="0"/>
        <pt x="243" y="518" on="0"/>
        <pt x="152" y="497" on="0"/>
        <pt x="68" y="470" on="0"/>
        <pt x="34" y="453" on="1"/>
        <pt x="23" y="453" on="0"/>
        <pt x="5" y="461" on="0"/>
        <pt x="5" y="473" on="1"/>
        <pt x="5" y="476" on="1"/>
        <pt x="5" y="477" on="0"/>
        <pt x="6" y="479" on="1"/>
        <pt x="8" y="484" on="0"/>
        <pt x="17" y="505" on="0"/>
        <pt x="19" y="506" on="1"/>
        <pt x="110" y="545" on="1"/>
        <pt x="719" y="700" on="1"/>
        <pt x="730" y="672" on="0"/>
        <pt x="705" y="639" on="0"/>
        <pt x="651" y="618" on="0"/>
        <pt x="580" y="603" on="0"/>
        <pt x="509" y="582" on="0"/>
        <pt x="449" y="547" on="0"/>
        <pt x="434" y="518" on="1"/>
        <pt x="369" y="389" on="0"/>
        <pt x="232" y="133" on="0"/>
        <pt x="175" y="0" on="1"/>
        <pt x="174" y="0" on="0"/>
        <pt x="169" y="-1" on="0"/>
        <pt x="168" y="-1" on="1"/>
        <pt x="155" y="-1" on="0"/>
        <pt x="134" y="11" on="0"/>
      </contour>
    </TTGlyph>
    <TTGlyph name="Tcaron" xMin="5" yMin="-1" xMax="719" yMax="880">
      <component glyphName="T" x="0" y="0" flags="0x1204"/>
      <component glyphName="caron" x="215" y="57" flags="0x1004"/>
    </TTGlyph>
    <TTGlyph name="Tcommaaccent" xMin="5" yMin="-386" xMax="719" yMax="700">
      <component glyphName="T" x="0" y="0" flags="0x1204"/>
      <component glyphName="commaaccent" x="-124" y="0" flags="0x1004"/>
    </TTGlyph>
    <TTGlyph name="Thorn" xMin="-7" yMin="-109" xMax="410" yMax="533">
      <contour>
        <pt x="35" y="-108" on="1"/>
        <pt x="32" y="-113" on="0"/>
        <pt x="14" y="-104" on="0"/>
        <pt x="-3" y="-88" on="0"/>
        <pt x="-11" y="-72" on="0"/>
        <pt x="-4" y="-69" on="1"/>
        <pt x="136" y="208" on="1"/>
        <pt x="289" y="518" on="1"/>
        <pt x="294" y="524" on="1"/>
        <pt x="300" y="530" on="0"/>
        <pt x="316" y="536" on="0"/>
        <pt x="333" y="526" on="0"/>
        <pt x="341" y="505" on="1"/>
        <pt x="279" y="362" on="1"/>
        <pt x="279" y="350" on="1"/>
        <pt x="307" y="346" on="0"/>
        <pt x="355" y="331" on="0"/>
        <pt x="390" y="303" on="0"/>
        <pt x="410" y="262" on="0"/>
        <pt x="410" y="233" on="1"/>
        <pt x="410" y="201" on="0"/>
        <pt x="380" y="136" on="0"/>
        <pt x="331" y="79" on="0"/>
        <pt x="267" y="33" on="0"/>
        <pt x="199" y="6" on="0"/>
        <pt x="131" y="1" on="0"/>
        <pt x="103" y="13" on="1"/>
      </contour>
      <contour>
        <pt x="290" y="287" on="1"/>
        <pt x="276" y="287" on="0"/>
        <pt x="243" y="261" on="0"/>
        <pt x="211" y="220" on="0"/>
        <pt x="181" y="169" on="0"/>
        <pt x="158" y="119" on="0"/>
        <pt x="144" y="75" on="0"/>
        <pt x="144" y="62" on="1"/>
        <pt x="172" y="62" on="0"/>
        <pt x="242" y="88" on="0"/>
        <pt x="303" y="131" on="0"/>
        <pt x="344" y="188" on="0"/>
        <pt x="344" y="219" on="1"/>
        <pt x="344" y="246" on="0"/>
        <pt x="322" y="287" on="0"/>
      </contour>
    </TTGlyph>
    <TTGlyph name="U" xMin="18" yMin="-1" xMax="662" yMax="668">
      <contour>
        <pt x="18" y="84" on="1"/>
        <pt x="18" y="122" on="0"/>
        <pt x="42" y="198" on="0"/>
        <pt x="58" y="233" on="1"/>
        <pt x="65" y="249" on="0"/>
        <pt x="90" y="309" on="0"/>
        <pt x="120" y="383" on="0"/>
        <pt x="151" y="461" on="0"/>
        <pt x="178" y="529" on="0"/>
        <pt x="198" y="578" on="0"/>
        <pt x="202" y="585" on="1"/>
        <pt x="238" y="602" on="0"/>
        <pt x="258" y="574" on="0"/>
        <pt x="244" y="505" on="0"/>
        <pt x="205" y="409" on="0"/>
        <pt x="158" y="308" on="0"/>
        <pt x="111" y="213" on="0"/>
        <pt x="97" y="181" on="1"/>
        <pt x="71" y="123" on="0"/>
        <pt x="65" y="73" on="0"/>
        <pt x="100" y="78" on="0"/>
        <pt x="171" y="132" on="0"/>
        <pt x="272" y="225" on="0"/>
        <pt x="399" y="352" on="0"/>
        <pt x="473" y="428" on="1"/>
        <pt x="490" y="451" on="0"/>
        <pt x="523" y="514" on="0"/>
        <pt x="555" y="578" on="0"/>
        <pt x="585" y="635" on="0"/>
        <pt x="616" y="668" on="0"/>
        <pt x="646" y="668" on="0"/>
        <pt x="662" y="644" on="1"/>
        <pt x="642" y="588" on="0"/>
        <pt x="574" y="458" on="0"/>
        <pt x="507" y="319" on="0"/>
        <pt x="459" y="178" on="0"/>
        <pt x="459" y="112" on="1"/>
        <pt x="459" y="94" on="0"/>
        <pt x="481" y="83" on="0"/>
        <pt x="511" y="84" on="0"/>
        <pt x="544" y="87" on="0"/>
        <pt x="556" y="82" on="1"/>
        <pt x="551" y="73" on="0"/>
        <pt x="545" y="54" on="0"/>
        <pt x="537" y="38" on="0"/>
        <pt x="526" y="28" on="0"/>
        <pt x="515" y="28" on="1"/>
        <pt x="495" y="18" on="0"/>
        <pt x="444" y="40" on="0"/>
        <pt x="405" y="102" on="0"/>
        <pt x="391" y="203" on="0"/>
        <pt x="409" y="272" on="1"/>
        <pt x="399" y="263" on="0"/>
        <pt x="359" y="227" on="0"/>
        <pt x="307" y="181" on="0"/>
        <pt x="251" y="130" on="0"/>
        <pt x="200" y="84" on="0"/>
        <pt x="159" y="48" on="0"/>
        <pt x="150" y="39" on="1"/>
        <pt x="145" y="36" on="0"/>
        <pt x="127" y="22" on="0"/>
        <pt x="106" y="9" on="0"/>
        <pt x="85" y="-1" on="0"/>
        <pt x="78" y="-1" on="1"/>
        <pt x="61" y="-1" on="0"/>
        <pt x="39" y="15" on="0"/>
        <pt x="24" y="41" on="0"/>
        <pt x="18" y="70" on="0"/>
      </contour>
    </TTGlyph>
    <TTGlyph name="Uacute" xMin="18" yMin="-1" xMax="662" yMax="867">
      <component glyphName="U" x="0" y="0" flags="0x1204"/>
      <component glyphName="acute" x="354" y="38" flags="0x1004"/>
    </TTGlyph>
    <TTGlyph name="Ubreve" xMin="18" yMin="-1" xMax="662" yMax="938">
      <component glyphName="U" x="0" y="0" flags="0x1204"/>
      <component glyphName="breve" x="238" y="96" flags="0x1004"/>
    </TTGlyph>
    <TTGlyph name="Ucircumflex" xMin="18" yMin="-1" xMax="662" yMax="900">
      <component glyphName="U" x="0" y="0" flags="0x1204"/>
      <component glyphName="circumflex" x="228" y="-48" flags="0x1004"/>
    </TTGlyph>
    <TTGlyph name="Udieresis" xMin="18" yMin="-1" xMax="662" yMax="766">
      <component glyphName="U" x="0" y="0" flags="0x1204"/>
      <component glyphName="dieresis" x="188" y="20" flags="0x1004"/>
    </TTGlyph>
    <TTGlyph name="Ugrave" xMin="18" yMin="-1" xMax="662" yMax="895">
      <component glyphName="U" x="0" y="0" flags="0x1204"/>
      <component glyphName="grave" x="279" y="55" flags="0x1004"/>
    </TTGlyph>
    <TTGlyph name="Uhungarumlaut" xMin="18" yMin="-1" xMax="662" yMax="944">
      <component glyphName="U" x="0" y="0" flags="0x1204"/>
      <component glyphName="hungarumlaut" x="314" y="105" flags="0x1004"/>
    </TTGlyph>
    <TTGlyph name="Umacron" xMin="18" yMin="-1" xMax="662" yMax="813">
      <component glyphName="U" x="0" y="0" flags="0x1204"/>
      <component glyphName="macron" x="237" y="196" flags="0x1004"/>
    </TTGlyph>
    <TTGlyph name="Uogonek" xMin="18" yMin="-142" xMax="662" yMax="668">
      <contour>
        <pt x="538" y="-142" on="1"/>
        <pt x="509" y="-142" on="0"/>
        <pt x="434" y="-132" on="0"/>
        <pt x="368" y="-113" on="0"/>
        <pt x="323" y="-84" on="0"/>
        <pt x="323" y="-65" on="1"/>
        <pt x="327" y="-35" on="0"/>
        <pt x="362" y="16" on="0"/>
        <pt x="407" y="52" on="0"/>
        <pt x="431" y="60" on="1"/>
        <pt x="428" y="65" on="0"/>
        <pt x="424" y="71" on="1"/>
        <pt x="405" y="102" on="0"/>
        <pt x="391" y="203" on="0"/>
        <pt x="409" y="272" on="1"/>
        <pt x="379" y="245" on="1"/>
        <pt x="359" y="227" on="0"/>
        <pt x="307" y="181" on="0"/>
        <pt x="251" y="130" on="0"/>
        <pt x="200" y="84" on="0"/>
        <pt x="159" y="48" on="0"/>
        <pt x="150" y="39" on="1"/>
        <pt x="145" y="36" on="0"/>
        <pt x="127" y="22" on="0"/>
        <pt x="106" y="9" on="0"/>
        <pt x="85" y="-1" on="0"/>
        <pt x="78" y="-1" on="1"/>
        <pt x="61" y="-1" on="0"/>
        <pt x="39" y="15" on="0"/>
        <pt x="24" y="41" on="0"/>
        <pt x="18" y="70" on="0"/>
        <pt x="18" y="84" on="1"/>
        <pt x="18" y="122" on="0"/>
        <pt x="42" y="198" on="0"/>
        <pt x="58" y="233" on="1"/>
        <pt x="65" y="249" on="0"/>
        <pt x="90" y="309" on="0"/>
        <pt x="120" y="383" on="0"/>
        <pt x="151" y="461" on="0"/>
        <pt x="178" y="529" on="0"/>
        <pt x="198" y="578" on="0"/>
        <pt x="202" y="585" on="1"/>
        <pt x="238" y="602" on="0"/>
        <pt x="258" y="574" on="0"/>
        <pt x="244" y="505" on="0"/>
        <pt x="205" y="409" on="0"/>
        <pt x="158" y="308" on="0"/>
        <pt x="111" y="213" on="0"/>
        <pt x="97" y="181" on="1"/>
        <pt x="71" y="123" on="0"/>
        <pt x="65" y="73" on="0"/>
        <pt x="100" y="78" on="0"/>
        <pt x="171" y="132" on="0"/>
        <pt x="272" y="225" on="0"/>
        <pt x="399" y="352" on="0"/>
        <pt x="473" y="428" on="1"/>
        <pt x="490" y="451" on="0"/>
        <pt x="523" y="514" on="0"/>
        <pt x="555" y="578" on="0"/>
        <pt x="585" y="635" on="0"/>
        <pt x="616" y="668" on="0"/>
        <pt x="646" y="668" on="0"/>
        <pt x="662" y="644" on="1"/>
        <pt x="642" y="588" on="0"/>
        <pt x="574" y="458" on="0"/>
        <pt x="507" y="319" on="0"/>
        <pt x="459" y="178" on="0"/>
        <pt x="459" y="112" on="1"/>
        <pt x="459" y="94" on="0"/>
        <pt x="481" y="83" on="0"/>
        <pt x="511" y="84" on="0"/>
        <pt x="544" y="87" on="0"/>
        <pt x="556" y="82" on="1"/>
        <pt x="551" y="73" on="0"/>
        <pt x="545" y="54" on="0"/>
        <pt x="537" y="38" on="0"/>
        <pt x="526" y="28" on="0"/>
        <pt x="515" y="28" on="1"/>
        <pt x="495" y="18" on="0"/>
        <pt x="469" y="29" on="1"/>
        <pt x="464" y="31" on="0"/>
        <pt x="459" y="34" on="1"/>
        <pt x="456" y="29" on="0"/>
        <pt x="453" y="25" on="1"/>
        <pt x="442" y="12" on="0"/>
        <pt x="423" y="-7" on="0"/>
        <pt x="408" y="-27" on="0"/>
        <pt x="405" y="-47" on="1"/>
        <pt x="396" y="-66" on="0"/>
        <pt x="413" y="-84" on="0"/>
        <pt x="455" y="-92" on="0"/>
        <pt x="516" y="-93" on="0"/>
        <pt x="549" y="-95" on="1"/>
      </contour>
    </TTGlyph>
    <TTGlyph name="Uring" xMin="18" yMin="-1" xMax="662" yMax="881">
      <component glyphName="U" x="0" y="0" flags="0x1204"/>
      <component glyphName="ring" x="204" y="-78" flags="0x1004"/>
    </TTGlyph>
    <TTGlyph name="Utilde" xMin="18" yMin="-1" xMax="668" yMax="909">
      <component glyphName="U" x="0" y="0" flags="0x1204"/>
      <component glyphName="tilde" x="223" y="273" flags="0x1004"/>
    </TTGlyph>
    <TTGlyph name="V" xMin="16" yMin="-1" xMax="629" yMax="718">
      <contour>
        <pt x="45" y="13" on="1"/>
        <pt x="45" y="15" on="0"/>
        <pt x="45" y="28" on="0"/>
        <pt x="44" y="42" on="0"/>
        <pt x="44" y="55" on="0"/>
        <pt x="44" y="58" on="1"/>
        <pt x="44" y="103" on="0"/>
        <pt x="57" y="190" on="0"/>
        <pt x="72" y="277" on="0"/>
        <pt x="85" y="364" on="0"/>
        <pt x="85" y="409" on="1"/>
        <pt x="85" y="413" on="0"/>
        <pt x="85" y="437" on="0"/>
        <pt x="85" y="464" on="0"/>
        <pt x="84" y="488" on="0"/>
        <pt x="84" y="493" on="1"/>
        <pt x="78" y="503" on="0"/>
        <pt x="55" y="511" on="0"/>
        <pt x="33" y="519" on="0"/>
        <pt x="16" y="531" on="0"/>
        <pt x="16" y="544" on="1"/>
        <pt x="16" y="553" on="0"/>
        <pt x="26" y="564" on="0"/>
        <pt x="41" y="570" on="0"/>
        <pt x="58" y="571" on="0"/>
        <pt x="66" y="571" on="1"/>
        <pt x="114" y="571" on="0"/>
        <pt x="162" y="509" on="0"/>
        <pt x="162" y="461" on="1"/>
        <pt x="162" y="416" on="0"/>
        <pt x="146" y="329" on="0"/>
        <pt x="126" y="243" on="0"/>
        <pt x="110" y="156" on="0"/>
        <pt x="110" y="111" on="1"/>
        <pt x="110" y="103" on="1"/>
        <pt x="114" y="107" on="0"/>
        <pt x="133" y="125" on="0"/>
        <pt x="154" y="146" on="0"/>
        <pt x="172" y="165" on="0"/>
        <pt x="175" y="169" on="1"/>
        <pt x="230" y="235" on="0"/>
        <pt x="318" y="380" on="0"/>
        <pt x="392" y="514" on="0"/>
        <pt x="456" y="629" on="0"/>
        <pt x="520" y="705" on="0"/>
        <pt x="588" y="730" on="0"/>
        <pt x="629" y="707" on="1"/>
        <pt x="629" y="695" on="0"/>
        <pt x="612" y="684" on="0"/>
        <pt x="590" y="678" on="0"/>
        <pt x="568" y="671" on="0"/>
        <pt x="563" y="662" on="1"/>
        <pt x="468" y="492" on="0"/>
        <pt x="249" y="161" on="0"/>
        <pt x="123" y="13" on="1"/>
        <pt x="112" y="4" on="0"/>
        <pt x="96" y="-1" on="0"/>
        <pt x="84" y="-1" on="1"/>
        <pt x="72" y="-1" on="0"/>
        <pt x="56" y="4" on="0"/>
      </contour>
    </TTGlyph>
    <TTGlyph name="W" xMin="13" yMin="20" xMax="959" yMax="753">
      <contour>
        <pt x="37" y="57" on="1"/>
        <pt x="37" y="63" on="0"/>
        <pt x="39" y="89" on="0"/>
        <pt x="39" y="91" on="1"/>
        <pt x="59" y="172" on="0"/>
        <pt x="86" y="288" on="0"/>
        <pt x="104" y="368" on="0"/>
        <pt x="114" y="416" on="0"/>
        <pt x="118" y="443" on="0"/>
        <pt x="119" y="454" on="0"/>
        <pt x="119" y="457" on="1"/>
        <pt x="119" y="463" on="0"/>
        <pt x="120" y="493" on="0"/>
        <pt x="116" y="524" on="0"/>
        <pt x="105" y="547" on="0"/>
        <pt x="92" y="547" on="1"/>
        <pt x="79" y="547" on="0"/>
        <pt x="62" y="530" on="0"/>
        <pt x="46" y="513" on="0"/>
        <pt x="27" y="501" on="0"/>
        <pt x="13" y="506" on="1"/>
        <pt x="27" y="548" on="0"/>
        <pt x="70" y="584" on="0"/>
        <pt x="112" y="584" on="1"/>
        <pt x="137" y="584" on="0"/>
        <pt x="162" y="565" on="0"/>
        <pt x="171" y="534" on="0"/>
        <pt x="171" y="494" on="0"/>
        <pt x="171" y="473" on="1"/>
        <pt x="171" y="435" on="0"/>
        <pt x="158" y="361" on="0"/>
        <pt x="142" y="287" on="0"/>
        <pt x="129" y="213" on="0"/>
        <pt x="129" y="175" on="1"/>
        <pt x="129" y="173" on="0"/>
        <pt x="130" y="158" on="0"/>
        <pt x="130" y="156" on="1"/>
        <pt x="143" y="169" on="1"/>
        <pt x="225" y="286" on="0"/>
        <pt x="324" y="432" on="0"/>
        <pt x="382" y="515" on="0"/>
        <pt x="414" y="545" on="0"/>
        <pt x="428" y="545" on="1"/>
        <pt x="441" y="545" on="0"/>
        <pt x="456" y="531" on="0"/>
        <pt x="464" y="511" on="0"/>
        <pt x="467" y="488" on="0"/>
        <pt x="467" y="479" on="1"/>
        <pt x="467" y="169" on="1"/>
        <pt x="480" y="169" on="1"/>
        <pt x="829" y="700" on="1"/>
        <pt x="856" y="740" on="0"/>
        <pt x="914" y="765" on="0"/>
        <pt x="959" y="752" on="1"/>
        <pt x="856" y="648" on="1"/>
        <pt x="772" y="519" on="0"/>
        <pt x="657" y="330" on="0"/>
        <pt x="580" y="197" on="0"/>
        <pt x="533" y="114" on="0"/>
        <pt x="501" y="67" on="0"/>
        <pt x="477" y="50" on="0"/>
        <pt x="461" y="50" on="1"/>
        <pt x="434" y="50" on="0"/>
        <pt x="409" y="84" on="0"/>
        <pt x="400" y="131" on="0"/>
        <pt x="401" y="181" on="0"/>
        <pt x="401" y="197" on="1"/>
        <pt x="401" y="233" on="0"/>
        <pt x="402" y="292" on="0"/>
        <pt x="405" y="350" on="0"/>
        <pt x="410" y="413" on="0"/>
        <pt x="415" y="454" on="1"/>
        <pt x="325" y="317" on="0"/>
        <pt x="210" y="147" on="0"/>
        <pt x="138" y="53" on="0"/>
        <pt x="97" y="20" on="0"/>
        <pt x="80" y="20" on="1"/>
        <pt x="53" y="20" on="0"/>
        <pt x="37" y="37" on="0"/>
      </contour>
    </TTGlyph>
    <TTGlyph name="Wacute" xMin="13" yMin="20" xMax="959" yMax="956">
      <component glyphName="W" x="0" y="0" flags="0x1204"/>
      <component glyphName="acute" x="339" y="127" flags="0x1004"/>
    </TTGlyph>
    <TTGlyph name="Wcircumflex" xMin="13" yMin="20" xMax="959" yMax="989">
      <component glyphName="W" x="0" y="0" flags="0x1204"/>
      <component glyphName="circumflex" x="307" y="41" flags="0x1004"/>
    </TTGlyph>
    <TTGlyph name="Wdieresis" xMin="13" yMin="20" xMax="959" yMax="822">
      <component glyphName="W" x="0" y="0" flags="0x1204"/>
      <component glyphName="dieresis" x="276" y="76" flags="0x1004"/>
    </TTGlyph>
    <TTGlyph name="Wgrave" xMin="13" yMin="20" xMax="959" yMax="967">
      <component glyphName="W" x="0" y="0" flags="0x1204"/>
      <component glyphName="grave" x="335" y="127" flags="0x1004"/>
    </TTGlyph>
    <TTGlyph name="X" xMin="19" yMin="-3" xMax="654" yMax="719">
      <contour>
        <pt x="71" y="23" on="1"/>
        <pt x="71" y="25" on="0"/>
        <pt x="72" y="26" on="1"/>
        <pt x="88" y="43" on="0"/>
        <pt x="132" y="90" on="0"/>
        <pt x="179" y="142" on="0"/>
        <pt x="224" y="196" on="0"/>
        <pt x="240" y="220" on="1"/>
        <pt x="243" y="225" on="0"/>
        <pt x="253" y="245" on="0"/>
        <pt x="253" y="247" on="1"/>
        <pt x="237" y="291" on="0"/>
        <pt x="222" y="392" on="0"/>
        <pt x="216" y="494" on="0"/>
        <pt x="215" y="593" on="0"/>
        <pt x="214" y="635" on="1"/>
        <pt x="203" y="657" on="0"/>
        <pt x="154" y="663" on="0"/>
        <pt x="97" y="652" on="0"/>
        <pt x="42" y="636" on="0"/>
        <pt x="26" y="635" on="1"/>
        <pt x="19" y="635" on="1"/>
        <pt x="27" y="660" on="0"/>
        <pt x="72" y="697" on="0"/>
        <pt x="131" y="718" on="0"/>
        <pt x="196" y="720" on="0"/>
        <pt x="251" y="701" on="0"/>
        <pt x="289" y="658" on="0"/>
        <pt x="292" y="623" on="1"/>
        <pt x="304" y="311" on="1"/>
        <pt x="322" y="323" on="0"/>
        <pt x="366" y="371" on="0"/>
        <pt x="413" y="433" on="0"/>
        <pt x="462" y="504" on="0"/>
        <pt x="508" y="571" on="0"/>
        <pt x="548" y="629" on="0"/>
        <pt x="564" y="648" on="1"/>
        <pt x="579" y="669" on="0"/>
        <pt x="601" y="681" on="0"/>
        <pt x="615" y="674" on="0"/>
        <pt x="619" y="651" on="0"/>
        <pt x="615" y="622" on="0"/>
        <pt x="601" y="594" on="0"/>
        <pt x="590" y="584" on="1"/>
        <pt x="528" y="503" on="0"/>
        <pt x="443" y="389" on="0"/>
        <pt x="388" y="313" on="0"/>
        <pt x="358" y="269" on="0"/>
        <pt x="344" y="246" on="0"/>
        <pt x="342" y="239" on="0"/>
        <pt x="342" y="238" on="1"/>
        <pt x="342" y="200" on="0"/>
        <pt x="373" y="142" on="0"/>
        <pt x="424" y="99" on="0"/>
        <pt x="490" y="69" on="0"/>
        <pt x="559" y="50" on="0"/>
        <pt x="626" y="40" on="0"/>
        <pt x="654" y="39" on="1"/>
        <pt x="642" y="27" on="0"/>
        <pt x="637" y="11" on="0"/>
        <pt x="634" y="1" on="0"/>
        <pt x="624" y="-3" on="0"/>
        <pt x="609" y="-3" on="1"/>
        <pt x="518" y="-3" on="0"/>
        <pt x="358" y="76" on="0"/>
        <pt x="304" y="142" on="1"/>
        <pt x="300" y="148" on="0"/>
        <pt x="281" y="168" on="0"/>
        <pt x="279" y="169" on="1"/>
        <pt x="272" y="171" on="0"/>
        <pt x="247" y="147" on="0"/>
        <pt x="214" y="110" on="0"/>
        <pt x="177" y="65" on="0"/>
        <pt x="139" y="26" on="0"/>
        <pt x="101" y="0" on="0"/>
        <pt x="84" y="0" on="1"/>
        <pt x="76" y="0" on="0"/>
        <pt x="71" y="14" on="0"/>
        <pt x="71" y="19" on="1"/>
      </contour>
    </TTGlyph>
    <TTGlyph name="Y" xMin="-245" yMin="-794" xMax="693" yMax="738">
      <contour>
        <pt x="-245" y="-748" on="1"/>
        <pt x="-165" y="-725" on="0"/>
        <pt x="-24" y="-604" on="0"/>
        <pt x="99" y="-437" on="0"/>
        <pt x="204" y="-241" on="0"/>
        <pt x="291" y="-43" on="0"/>
        <pt x="361" y="141" on="0"/>
        <pt x="414" y="280" on="0"/>
        <pt x="435" y="326" on="0"/>
        <pt x="460" y="358" on="1"/>
        <pt x="435" y="331" on="0"/>
        <pt x="358" y="257" on="0"/>
        <pt x="268" y="191" on="0"/>
        <pt x="172" y="145" on="0"/>
        <pt x="129" y="145" on="1"/>
        <pt x="101" y="145" on="0"/>
        <pt x="66" y="170" on="0"/>
        <pt x="46" y="209" on="0"/>
        <pt x="39" y="258" on="0"/>
        <pt x="39" y="283" on="1"/>
        <pt x="39" y="304" on="0"/>
        <pt x="61" y="383" on="0"/>
        <pt x="97" y="477" on="0"/>
        <pt x="141" y="575" on="0"/>
        <pt x="187" y="655" on="0"/>
        <pt x="228" y="706" on="0"/>
        <pt x="242" y="706" on="1"/>
        <pt x="255" y="706" on="0"/>
        <pt x="275" y="694" on="0"/>
        <pt x="275" y="680" on="1"/>
        <pt x="275" y="661" on="0"/>
        <pt x="255" y="630" on="0"/>
        <pt x="234" y="627" on="1"/>
        <pt x="220" y="611" on="0"/>
        <pt x="185" y="550" on="0"/>
        <pt x="151" y="475" on="0"/>
        <pt x="121" y="393" on="0"/>
        <pt x="106" y="319" on="0"/>
        <pt x="108" y="259" on="0"/>
        <pt x="138" y="229" on="0"/>
        <pt x="198" y="235" on="0"/>
        <pt x="248" y="264" on="1"/>
        <pt x="299" y="301" on="0"/>
        <pt x="389" y="389" on="0"/>
        <pt x="465" y="479" on="0"/>
        <pt x="525" y="564" on="0"/>
        <pt x="569" y="633" on="0"/>
        <pt x="595" y="679" on="0"/>
        <pt x="599" y="685" on="1"/>
        <pt x="610" y="701" on="0"/>
        <pt x="626" y="722" on="0"/>
        <pt x="645" y="734" on="0"/>
        <pt x="671" y="738" on="0"/>
        <pt x="693" y="738" on="1"/>
        <pt x="685" y="711" on="0"/>
        <pt x="657" y="646" on="0"/>
        <pt x="608" y="543" on="0"/>
        <pt x="534" y="384" on="0"/>
        <pt x="429" y="141" on="0"/>
        <pt x="288" y="-201" on="0"/>
        <pt x="196" y="-436" on="1"/>
        <pt x="175" y="-478" on="0"/>
        <pt x="98" y="-580" on="0"/>
        <pt x="7" y="-677" on="0"/>
        <pt x="-90" y="-757" on="0"/>
        <pt x="-173" y="-799" on="0"/>
        <pt x="-235" y="-789" on="0"/>
      </contour>
    </TTGlyph>
    <TTGlyph name="Yacute" xMin="-245" yMin="-794" xMax="693" yMax="940">
      <component glyphName="Y" x="0" y="0" flags="0x1204"/>
      <component glyphName="acute" x="365" y="111" flags="0x1004"/>
    </TTGlyph>
    <TTGlyph name="Ycircumflex" xMin="-245" yMin="-794" xMax="693" yMax="1015">
      <component glyphName="Y" x="0" y="0" flags="0x1204"/>
      <component glyphName="circumflex" x="220" y="67" flags="0x1004"/>
    </TTGlyph>
    <TTGlyph name="Ydieresis" xMin="-245" yMin="-794" xMax="693" yMax="930">
      <component glyphName="Y" x="0" y="0" flags="0x1204"/>
      <component glyphName="dieresis" x="193" y="184" flags="0x1004"/>
    </TTGlyph>
    <TTGlyph name="Ygrave" xMin="-245" yMin="-794" xMax="693" yMax="988">
      <component glyphName="Y" x="0" y="0" flags="0x1204"/>
      <component glyphName="grave" x="279" y="148" flags="0x1004"/>
    </TTGlyph>
    <TTGlyph name="Z" xMin="18" yMin="-1" xMax="913" yMax="688">
      <contour>
        <pt x="582" y="-1" on="1"/>
        <pt x="545" y="1" on="0"/>
        <pt x="478" y="20" on="0"/>
        <pt x="412" y="46" on="0"/>
        <pt x="346" y="73" on="0"/>
        <pt x="275" y="92" on="0"/>
        <pt x="196" y="99" on="0"/>
        <pt x="150" y="91" on="1"/>
        <pt x="137" y="88" on="0"/>
        <pt x="108" y="66" on="0"/>
        <pt x="82" y="40" on="0"/>
        <pt x="62" y="17" on="0"/>
        <pt x="58" y="13" on="1"/>
        <pt x="56" y="13" on="0"/>
        <pt x="47" y="12" on="0"/>
        <pt x="45" y="12" on="1"/>
        <pt x="18" y="12" on="0"/>
        <pt x="18" y="39" on="1"/>
        <pt x="18" y="41" on="0"/>
        <pt x="19" y="50" on="0"/>
        <pt x="19" y="52" on="1"/>
        <pt x="83" y="115" on="0"/>
        <pt x="211" y="242" on="0"/>
        <pt x="324" y="378" on="0"/>
        <pt x="413" y="529" on="0"/>
        <pt x="438" y="616" on="1"/>
        <pt x="398" y="613" on="0"/>
        <pt x="307" y="603" on="0"/>
        <pt x="217" y="582" on="0"/>
        <pt x="135" y="547" on="0"/>
        <pt x="104" y="518" on="1"/>
        <pt x="89" y="518" on="0"/>
        <pt x="83" y="541" on="0"/>
        <pt x="83" y="552" on="1"/>
        <pt x="83" y="561" on="0"/>
        <pt x="84" y="570" on="0"/>
        <pt x="89" y="575" on="0"/>
        <pt x="100" y="579" on="0"/>
        <pt x="111" y="584" on="1"/>
        <pt x="149" y="599" on="0"/>
        <pt x="233" y="635" on="0"/>
        <pt x="320" y="666" on="0"/>
        <pt x="409" y="688" on="0"/>
        <pt x="454" y="688" on="1"/>
        <pt x="457" y="688" on="0"/>
        <pt x="470" y="688" on="0"/>
        <pt x="484" y="687" on="0"/>
        <pt x="497" y="687" on="0"/>
        <pt x="499" y="687" on="1"/>
        <pt x="520" y="679" on="0"/>
        <pt x="526" y="653" on="0"/>
        <pt x="526" y="637" on="1"/>
        <pt x="526" y="607" on="0"/>
        <pt x="514" y="562" on="0"/>
        <pt x="499" y="531" on="1"/>
        <pt x="468" y="487" on="0"/>
        <pt x="394" y="386" on="0"/>
        <pt x="313" y="282" on="0"/>
        <pt x="229" y="183" on="0"/>
        <pt x="188" y="142" on="1"/>
        <pt x="203" y="143" on="0"/>
        <pt x="259" y="146" on="0"/>
        <pt x="324" y="145" on="0"/>
        <pt x="387" y="138" on="0"/>
        <pt x="409" y="130" on="1"/>
        <pt x="434" y="120" on="0"/>
        <pt x="475" y="97" on="0"/>
        <pt x="514" y="78" on="0"/>
        <pt x="556" y="65" on="0"/>
        <pt x="582" y="65" on="1"/>
        <pt x="627" y="65" on="0"/>
        <pt x="713" y="87" on="0"/>
        <pt x="797" y="112" on="0"/>
        <pt x="876" y="134" on="0"/>
        <pt x="913" y="134" on="1"/>
        <pt x="913" y="117" on="1"/>
        <pt x="913" y="116" on="0"/>
        <pt x="892" y="103" on="0"/>
        <pt x="864" y="86" on="0"/>
        <pt x="833" y="70" on="0"/>
        <pt x="823" y="65" on="1"/>
        <pt x="761" y="36" on="0"/>
        <pt x="648" y="-1" on="0"/>
      </contour>
    </TTGlyph>
    <TTGlyph name="Zacute" xMin="18" yMin="-1" xMax="913" yMax="1034">
      <component glyphName="Z" x="0" y="0" flags="0x1204"/>
      <component glyphName="acute" x="301" y="205" flags="0x1004"/>
    </TTGlyph>
    <TTGlyph name="Zcaron" xMin="18" yMin="-1" xMax="913" yMax="865">
      <component glyphName="Z" x="0" y="0" flags="0x1204"/>
      <component glyphName="caron" x="141" y="42" flags="0x1004"/>
    </TTGlyph>
    <TTGlyph name="Zdotaccent" xMin="18" yMin="-1" xMax="913" yMax="840">
      <component glyphName="Z" x="0" y="0" flags="0x1204"/>
      <component glyphName="dotaccent" x="296" y="205" flags="0x1004"/>
    </TTGlyph>
    <TTGlyph name="a" xMin="18" yMin="-1" xMax="473" yMax="342">
      <contour>
        <pt x="18" y="65" on="1"/>
        <pt x="27" y="122" on="0"/>
        <pt x="77" y="218" on="0"/>
        <pt x="142" y="289" on="0"/>
        <pt x="218" y="335" on="0"/>
        <pt x="290" y="348" on="0"/>
        <pt x="351" y="328" on="0"/>
        <pt x="370" y="298" on="1"/>
        <pt x="370" y="275" on="0"/>
        <pt x="349" y="233" on="0"/>
        <pt x="324" y="191" on="0"/>
        <pt x="303" y="147" on="0"/>
        <pt x="303" y="122" on="1"/>
        <pt x="303" y="96" on="0"/>
        <pt x="326" y="65" on="0"/>
        <pt x="355" y="65" on="1"/>
        <pt x="379" y="65" on="0"/>
        <pt x="424" y="79" on="0"/>
        <pt x="447" y="79" on="1"/>
        <pt x="451" y="79" on="0"/>
        <pt x="470" y="78" on="0"/>
        <pt x="473" y="78" on="1"/>
        <pt x="461" y="61" on="0"/>
        <pt x="423" y="37" on="0"/>
        <pt x="381" y="20" on="0"/>
        <pt x="336" y="12" on="0"/>
        <pt x="317" y="12" on="1"/>
        <pt x="299" y="12" on="0"/>
        <pt x="271" y="28" on="0"/>
        <pt x="251" y="54" on="0"/>
        <pt x="240" y="87" on="0"/>
        <pt x="240" y="103" on="1"/>
        <pt x="225" y="86" on="0"/>
        <pt x="190" y="49" on="0"/>
        <pt x="151" y="19" on="0"/>
        <pt x="106" y="-1" on="0"/>
        <pt x="82" y="-1" on="1"/>
        <pt x="56" y="-1" on="0"/>
        <pt x="18" y="38" on="0"/>
      </contour>
      <contour>
        <pt x="84" y="96" on="1"/>
        <pt x="84" y="88" on="0"/>
        <pt x="85" y="68" on="0"/>
        <pt x="97" y="65" on="1"/>
        <pt x="122" y="71" on="0"/>
        <pt x="186" y="112" on="0"/>
        <pt x="242" y="167" on="0"/>
        <pt x="280" y="230" on="0"/>
        <pt x="280" y="259" on="1"/>
        <pt x="280" y="261" on="0"/>
        <pt x="279" y="270" on="0"/>
        <pt x="279" y="272" on="1"/>
        <pt x="245" y="272" on="0"/>
        <pt x="175" y="244" on="0"/>
        <pt x="119" y="195" on="0"/>
        <pt x="84" y="131" on="0"/>
      </contour>
    </TTGlyph>
    <TTGlyph name="aacute" xMin="18" yMin="-1" xMax="473" yMax="556">
      <component glyphName="a" x="0" y="0" flags="0x1204"/>
      <component glyphName="acute" x="140" y="-273" flags="0x1004"/>
    </TTGlyph>
    <TTGlyph name="abreve" xMin="18" yMin="-1" xMax="473" yMax="593">
      <component glyphName="a" x="0" y="0" flags="0x1204"/>
      <component glyphName="breve" x="47" y="-249" flags="0x1004"/>
    </TTGlyph>
    <TTGlyph name="acircumflex" xMin="18" yMin="-1" xMax="473" yMax="598">
      <component glyphName="a" x="0" y="0" flags="0x1204"/>
      <component glyphName="circumflex" x="32" y="-350" flags="0x1004"/>
    </TTGlyph>
    <TTGlyph name="acute" xMin="42" yMin="664" xMax="176" yMax="829">
      <contour>
        <pt x="161" y="829" on="1"/>
        <pt x="178" y="828" on="0"/>
        <pt x="174" y="797" on="0"/>
        <pt x="149" y="754" on="0"/>
        <pt x="111" y="706" on="0"/>
        <pt x="73" y="671" on="0"/>
        <pt x="44" y="657" on="0"/>
        <pt x="42" y="669" on="1"/>
        <pt x="46" y="679" on="0"/>
        <pt x="74" y="727" on="0"/>
        <pt x="110" y="778" on="0"/>
        <pt x="147" y="822" on="0"/>
      </contour>
    </TTGlyph>
    <TTGlyph name="adieresis" xMin="18" yMin="-1" xMax="473" yMax="504">
      <component glyphName="a" x="0" y="0" flags="0x1204"/>
      <component glyphName="dieresis" x="17" y="-242" flags="0x1004"/>
    </TTGlyph>
    <TTGlyph name="ae" xMin="18" yMin="-1" xMax="670" yMax="342">
      <contour>
        <pt x="18" y="65" on="1"/>
        <pt x="27" y="122" on="0"/>
        <pt x="77" y="218" on="0"/>
        <pt x="142" y="289" on="0"/>
        <pt x="218" y="335" on="0"/>
        <pt x="290" y="348" on="0"/>
        <pt x="351" y="328" on="0"/>
        <pt x="370" y="298" on="1"/>
        <pt x="370" y="288" on="0"/>
        <pt x="367" y="276" on="1"/>
        <pt x="396" y="303" on="0"/>
        <pt x="460" y="336" on="0"/>
        <pt x="513" y="341" on="0"/>
        <pt x="544" y="313" on="0"/>
        <pt x="540" y="280" on="1"/>
        <pt x="528" y="240" on="0"/>
        <pt x="476" y="172" on="0"/>
        <pt x="423" y="120" on="0"/>
        <pt x="379" y="82" on="0"/>
        <pt x="370" y="59" on="0"/>
        <pt x="410" y="52" on="0"/>
        <pt x="466" y="57" on="1"/>
        <pt x="550" y="74" on="0"/>
        <pt x="643" y="84" on="0"/>
        <pt x="678" y="78" on="0"/>
        <pt x="662" y="61" on="0"/>
        <pt x="614" y="39" on="0"/>
        <pt x="540" y="19" on="0"/>
        <pt x="457" y="6" on="0"/>
        <pt x="375" y="6" on="0"/>
        <pt x="308" y="27" on="0"/>
        <pt x="266" y="73" on="0"/>
        <pt x="266" y="112" on="1"/>
        <pt x="251" y="95" on="0"/>
        <pt x="208" y="55" on="0"/>
        <pt x="159" y="21" on="0"/>
        <pt x="106" y="-1" on="0"/>
        <pt x="82" y="-1" on="1"/>
        <pt x="56" y="-1" on="0"/>
        <pt x="18" y="38" on="0"/>
      </contour>
      <contour>
        <pt x="84" y="96" on="1"/>
        <pt x="84" y="88" on="0"/>
        <pt x="85" y="68" on="0"/>
        <pt x="97" y="65" on="1"/>
        <pt x="122" y="71" on="0"/>
        <pt x="186" y="112" on="0"/>
        <pt x="242" y="167" on="0"/>
        <pt x="280" y="230" on="0"/>
        <pt x="280" y="259" on="1"/>
        <pt x="280" y="261" on="0"/>
        <pt x="279" y="270" on="0"/>
        <pt x="279" y="272" on="1"/>
        <pt x="245" y="272" on="0"/>
        <pt x="175" y="244" on="0"/>
        <pt x="119" y="195" on="0"/>
        <pt x="84" y="131" on="0"/>
      </contour>
      <contour>
        <pt x="481" y="280" on="1"/>
        <pt x="461" y="280" on="0"/>
        <pt x="425" y="258" on="0"/>
        <pt x="396" y="225" on="0"/>
        <pt x="376" y="186" on="0"/>
        <pt x="371" y="169" on="1"/>
        <pt x="373" y="168" on="0"/>
        <pt x="374" y="168" on="1"/>
        <pt x="377" y="168" on="1"/>
        <pt x="391" y="168" on="0"/>
        <pt x="427" y="192" on="0"/>
        <pt x="459" y="227" on="0"/>
        <pt x="481" y="265" on="0"/>
      </contour>
    </TTGlyph>
    <TTGlyph name="aeacute" xMin="18" yMin="-1" xMax="670" yMax="580">
      <component glyphName="ae" x="0" y="0" flags="0x1204"/>
      <component glyphName="acute" x="248" y="-249" flags="0x1004"/>
    </TTGlyph>
    <TTGlyph name="agrave" xMin="18" yMin="-1" xMax="473" yMax="598">
      <component glyphName="a" x="0" y="0" flags="0x1204"/>
      <component glyphName="grave" x="136" y="-242" flags="0x1004"/>
    </TTGlyph>
    <TTGlyph name="amacron" xMin="18" yMin="-1" xMax="473" yMax="481">
      <component glyphName="a" x="0" y="0" flags="0x1204"/>
      <component glyphName="macron" x="16" y="-136" flags="0x1004"/>
    </TTGlyph>
    <TTGlyph name="ampersand" xMin="12" yMin="-1" xMax="551" yMax="480">
      <contour>
        <pt x="195" y="130" on="1"/>
        <pt x="171" y="131" on="0"/>
        <pt x="108" y="145" on="0"/>
        <pt x="51" y="174" on="0"/>
        <pt x="12" y="220" on="0"/>
        <pt x="12" y="253" on="1"/>
        <pt x="12" y="271" on="0"/>
        <pt x="30" y="290" on="0"/>
        <pt x="57" y="298" on="0"/>
        <pt x="88" y="299" on="0"/>
        <pt x="100" y="299" on="1"/>
        <pt x="134" y="299" on="0"/>
        <pt x="173" y="290" on="0"/>
        <pt x="193" y="274" on="0"/>
        <pt x="201" y="254" on="0"/>
        <pt x="211" y="230" on="0"/>
        <pt x="228" y="206" on="0"/>
        <pt x="247" y="195" on="1"/>
        <pt x="261" y="204" on="0"/>
        <pt x="288" y="254" on="0"/>
        <pt x="313" y="317" on="0"/>
        <pt x="337" y="386" on="0"/>
        <pt x="361" y="443" on="0"/>
        <pt x="383" y="480" on="0"/>
        <pt x="395" y="480" on="1"/>
        <pt x="405" y="480" on="0"/>
        <pt x="415" y="469" on="0"/>
        <pt x="418" y="453" on="0"/>
        <pt x="417" y="436" on="0"/>
        <pt x="417" y="430" on="1"/>
        <pt x="417" y="425" on="0"/>
        <pt x="416" y="403" on="0"/>
        <pt x="415" y="401" on="1"/>
        <pt x="325" y="220" on="1"/>
        <pt x="325" y="209" on="1"/>
        <pt x="359" y="209" on="0"/>
        <pt x="427" y="246" on="0"/>
        <pt x="487" y="291" on="0"/>
        <pt x="536" y="329" on="0"/>
        <pt x="551" y="329" on="1"/>
        <pt x="551" y="297" on="0"/>
        <pt x="515" y="247" on="0"/>
        <pt x="460" y="208" on="0"/>
        <pt x="396" y="178" on="0"/>
        <pt x="339" y="155" on="0"/>
        <pt x="300" y="138" on="0"/>
        <pt x="298" y="130" on="1"/>
        <pt x="260" y="0" on="1"/>
        <pt x="260" y="-1" on="0"/>
        <pt x="251" y="-1" on="0"/>
        <pt x="249" y="-1" on="1"/>
        <pt x="244" y="-1" on="0"/>
        <pt x="226" y="3" on="0"/>
        <pt x="208" y="10" on="0"/>
        <pt x="195" y="20" on="0"/>
        <pt x="195" y="26" on="1"/>
      </contour>
      <contour>
        <pt x="73" y="251" on="1"/>
        <pt x="73" y="234" on="0"/>
        <pt x="100" y="213" on="0"/>
        <pt x="136" y="201" on="0"/>
        <pt x="173" y="195" on="0"/>
        <pt x="182" y="195" on="1"/>
        <pt x="182" y="196" on="0"/>
        <pt x="183" y="200" on="0"/>
        <pt x="183" y="201" on="1"/>
        <pt x="183" y="218" on="0"/>
        <pt x="155" y="238" on="0"/>
        <pt x="118" y="248" on="0"/>
        <pt x="82" y="251" on="0"/>
      </contour>
    </TTGlyph>
    <TTGlyph name="aogonek" xMin="18" yMin="-173" xMax="473" yMax="342">
      <contour>
        <pt x="462" y="-173" on="1"/>
        <pt x="433" y="-173" on="0"/>
        <pt x="358" y="-163" on="0"/>
        <pt x="292" y="-144" on="0"/>
        <pt x="247" y="-115" on="0"/>
        <pt x="247" y="-96" on="1"/>
        <pt x="251" y="-66" on="0"/>
        <pt x="286" y="-15" on="0"/>
        <pt x="308" y="3" on="1"/>
        <pt x="314" y="8" on="0"/>
        <pt x="320" y="12" on="1"/>
        <pt x="317" y="12" on="1"/>
        <pt x="299" y="12" on="0"/>
        <pt x="271" y="28" on="0"/>
        <pt x="251" y="54" on="0"/>
        <pt x="240" y="87" on="0"/>
        <pt x="240" y="103" on="1"/>
        <pt x="225" y="86" on="0"/>
        <pt x="190" y="49" on="0"/>
        <pt x="151" y="19" on="0"/>
        <pt x="106" y="-1" on="0"/>
        <pt x="82" y="-1" on="1"/>
        <pt x="56" y="-1" on="0"/>
        <pt x="18" y="38" on="0"/>
        <pt x="18" y="65" on="1"/>
        <pt x="27" y="122" on="0"/>
        <pt x="77" y="218" on="0"/>
        <pt x="142" y="289" on="0"/>
        <pt x="218" y="335" on="0"/>
        <pt x="290" y="348" on="0"/>
        <pt x="351" y="328" on="0"/>
        <pt x="370" y="298" on="1"/>
        <pt x="370" y="275" on="0"/>
        <pt x="349" y="233" on="0"/>
        <pt x="324" y="191" on="0"/>
        <pt x="303" y="147" on="0"/>
        <pt x="303" y="122" on="1"/>
        <pt x="303" y="96" on="0"/>
        <pt x="326" y="65" on="0"/>
        <pt x="355" y="65" on="1"/>
        <pt x="379" y="65" on="0"/>
        <pt x="424" y="79" on="0"/>
        <pt x="447" y="79" on="1"/>
        <pt x="451" y="79" on="0"/>
        <pt x="470" y="78" on="0"/>
        <pt x="473" y="78" on="1"/>
        <pt x="461" y="61" on="0"/>
        <pt x="423" y="37" on="0"/>
        <pt x="402" y="28" on="1"/>
        <pt x="398" y="27" on="0"/>
        <pt x="394" y="25" on="1"/>
        <pt x="386" y="5" on="0"/>
        <pt x="377" y="-6" on="1"/>
        <pt x="366" y="-19" on="0"/>
        <pt x="347" y="-38" on="0"/>
        <pt x="332" y="-58" on="0"/>
        <pt x="329" y="-78" on="1"/>
        <pt x="320" y="-97" on="0"/>
        <pt x="337" y="-115" on="0"/>
        <pt x="379" y="-123" on="0"/>
        <pt x="440" y="-124" on="0"/>
        <pt x="473" y="-126" on="1"/>
      </contour>
      <contour>
        <pt x="84" y="96" on="1"/>
        <pt x="84" y="88" on="0"/>
        <pt x="85" y="68" on="0"/>
        <pt x="97" y="65" on="1"/>
        <pt x="122" y="71" on="0"/>
        <pt x="186" y="112" on="0"/>
        <pt x="242" y="167" on="0"/>
        <pt x="280" y="230" on="0"/>
        <pt x="280" y="259" on="1"/>
        <pt x="280" y="261" on="0"/>
        <pt x="279" y="270" on="0"/>
        <pt x="279" y="272" on="1"/>
        <pt x="245" y="272" on="0"/>
        <pt x="175" y="244" on="0"/>
        <pt x="119" y="195" on="0"/>
        <pt x="84" y="131" on="0"/>
      </contour>
    </TTGlyph>
    <TTGlyph name="aring" xMin="18" yMin="-1" xMax="473" yMax="594">
      <contour>
        <pt x="176" y="387" on="1"/>
        <pt x="176" y="389" on="0"/>
        <pt x="177" y="408" on="0"/>
        <pt x="177" y="410" on="1"/>
        <pt x="202" y="465" on="0"/>
        <pt x="279" y="557" on="0"/>
        <pt x="329" y="593" on="1"/>
        <pt x="330" y="593" on="0"/>
        <pt x="337" y="594" on="0"/>
        <pt x="339" y="594" on="1"/>
        <pt x="359" y="594" on="0"/>
        <pt x="386" y="577" on="0"/>
        <pt x="403" y="550" on="0"/>
        <pt x="410" y="517" on="0"/>
        <pt x="410" y="501" on="1"/>
        <pt x="410" y="472" on="0"/>
        <pt x="382" y="409" on="0"/>
        <pt x="358" y="383" on="1"/>
        <pt x="336" y="358" on="0"/>
        <pt x="307" y="341" on="1"/>
        <pt x="314" y="340" on="0"/>
        <pt x="320" y="338" on="1"/>
        <pt x="351" y="328" on="0"/>
        <pt x="370" y="298" on="1"/>
        <pt x="370" y="275" on="0"/>
        <pt x="349" y="233" on="0"/>
        <pt x="324" y="191" on="0"/>
        <pt x="303" y="147" on="0"/>
        <pt x="303" y="122" on="1"/>
        <pt x="303" y="96" on="0"/>
        <pt x="326" y="65" on="0"/>
        <pt x="355" y="65" on="1"/>
        <pt x="379" y="65" on="0"/>
        <pt x="424" y="79" on="0"/>
        <pt x="447" y="79" on="1"/>
        <pt x="451" y="79" on="0"/>
        <pt x="470" y="78" on="0"/>
        <pt x="473" y="78" on="1"/>
        <pt x="461" y="61" on="0"/>
        <pt x="423" y="37" on="0"/>
        <pt x="381" y="20" on="0"/>
        <pt x="336" y="12" on="0"/>
        <pt x="317" y="12" on="1"/>
        <pt x="299" y="12" on="0"/>
        <pt x="271" y="28" on="0"/>
        <pt x="251" y="54" on="0"/>
        <pt x="240" y="87" on="0"/>
        <pt x="240" y="103" on="1"/>
        <pt x="225" y="86" on="0"/>
        <pt x="190" y="49" on="0"/>
        <pt x="151" y="19" on="0"/>
        <pt x="106" y="-1" on="0"/>
        <pt x="82" y="-1" on="1"/>
        <pt x="56" y="-1" on="0"/>
        <pt x="18" y="38" on="0"/>
        <pt x="18" y="65" on="1"/>
        <pt x="27" y="122" on="0"/>
        <pt x="77" y="218" on="0"/>
        <pt x="142" y="289" on="0"/>
        <pt x="180" y="312" on="1"/>
        <pt x="195" y="321" on="0"/>
        <pt x="210" y="328" on="1"/>
        <pt x="199" y="332" on="0"/>
        <pt x="192" y="340" on="1"/>
        <pt x="176" y="357" on="0"/>
      </contour>
      <contour>
        <pt x="84" y="96" on="1"/>
        <pt x="84" y="88" on="0"/>
        <pt x="85" y="68" on="0"/>
        <pt x="97" y="65" on="1"/>
        <pt x="122" y="71" on="0"/>
        <pt x="186" y="112" on="0"/>
        <pt x="242" y="167" on="0"/>
        <pt x="280" y="230" on="0"/>
        <pt x="280" y="259" on="1"/>
        <pt x="280" y="261" on="0"/>
        <pt x="279" y="270" on="0"/>
        <pt x="279" y="272" on="1"/>
        <pt x="245" y="272" on="0"/>
        <pt x="175" y="244" on="0"/>
        <pt x="119" y="195" on="0"/>
        <pt x="84" y="131" on="0"/>
      </contour>
      <contour>
        <pt x="237" y="396" on="1"/>
        <pt x="237" y="388" on="0"/>
        <pt x="250" y="380" on="0"/>
        <pt x="257" y="380" on="1"/>
        <pt x="276" y="380" on="0"/>
        <pt x="314" y="400" on="0"/>
        <pt x="342" y="431" on="0"/>
        <pt x="360" y="469" on="0"/>
        <pt x="360" y="486" on="1"/>
        <pt x="360" y="494" on="0"/>
        <pt x="358" y="514" on="0"/>
        <pt x="349" y="530" on="0"/>
        <pt x="333" y="538" on="0"/>
        <pt x="318" y="535" on="1"/>
        <pt x="307" y="533" on="0"/>
        <pt x="279" y="499" on="0"/>
        <pt x="254" y="454" on="0"/>
        <pt x="237" y="409" on="0"/>
      </contour>
    </TTGlyph>
    <TTGlyph name="asciicircum" xMin="39" yMin="743" xMax="355" yMax="948">
      <contour>
        <pt x="39" y="757" on="1"/>
        <pt x="39" y="765" on="0"/>
        <pt x="58" y="800" on="0"/>
        <pt x="88" y="843" on="0"/>
        <pt x="125" y="888" on="0"/>
        <pt x="160" y="924" on="0"/>
        <pt x="190" y="948" on="0"/>
        <pt x="198" y="948" on="1"/>
        <pt x="214" y="948" on="0"/>
        <pt x="249" y="928" on="0"/>
        <pt x="284" y="895" on="0"/>
        <pt x="316" y="856" on="0"/>
        <pt x="340" y="817" on="0"/>
        <pt x="355" y="784" on="0"/>
        <pt x="355" y="775" on="1"/>
        <pt x="354" y="754" on="0"/>
        <pt x="333" y="758" on="0"/>
        <pt x="303" y="788" on="0"/>
        <pt x="269" y="833" on="0"/>
        <pt x="239" y="874" on="0"/>
        <pt x="217" y="898" on="0"/>
        <pt x="215" y="892" on="1"/>
        <pt x="208" y="892" on="0"/>
        <pt x="203" y="888" on="0"/>
        <pt x="198" y="883" on="1"/>
        <pt x="177" y="874" on="0"/>
        <pt x="142" y="840" on="0"/>
        <pt x="114" y="802" on="0"/>
        <pt x="90" y="766" on="0"/>
        <pt x="69" y="744" on="0"/>
        <pt x="49" y="742" on="0"/>
      </contour>
    </TTGlyph>
    <TTGlyph name="asciitilde" xMin="-1" yMin="484" xMax="481" yMax="636">
      <contour>
        <pt x="306" y="484" on="1"/>
        <pt x="283" y="482" on="0"/>
        <pt x="247" y="497" on="0"/>
        <pt x="213" y="522" on="0"/>
        <pt x="179" y="550" on="0"/>
        <pt x="141" y="571" on="0"/>
        <pt x="94" y="578" on="0"/>
        <pt x="65" y="570" on="1"/>
        <pt x="63" y="570" on="0"/>
        <pt x="47" y="566" on="0"/>
        <pt x="30" y="562" on="0"/>
        <pt x="15" y="558" on="0"/>
        <pt x="13" y="558" on="1"/>
        <pt x="5" y="558" on="0"/>
        <pt x="-1" y="572" on="0"/>
        <pt x="-1" y="578" on="1"/>
        <pt x="-1" y="586" on="0"/>
        <pt x="27" y="606" on="0"/>
        <pt x="63" y="624" on="0"/>
        <pt x="97" y="636" on="0"/>
        <pt x="103" y="636" on="1"/>
        <pt x="134" y="636" on="0"/>
        <pt x="177" y="607" on="0"/>
        <pt x="216" y="573" on="0"/>
        <pt x="261" y="544" on="0"/>
        <pt x="294" y="544" on="1"/>
        <pt x="336" y="544" on="0"/>
        <pt x="389" y="569" on="0"/>
        <pt x="420" y="599" on="0"/>
        <pt x="437" y="624" on="0"/>
        <pt x="445" y="624" on="1"/>
        <pt x="457" y="624" on="0"/>
        <pt x="481" y="618" on="0"/>
        <pt x="481" y="602" on="1"/>
        <pt x="478" y="579" on="0"/>
        <pt x="445" y="545" on="0"/>
        <pt x="396" y="519" on="0"/>
        <pt x="336" y="496" on="0"/>
      </contour>
    </TTGlyph>
    <TTGlyph name="asterisk" xMin="12" yMin="155" xMax="692" yMax="639">
      <contour>
        <pt x="221" y="195" on="1"/>
        <pt x="212" y="187" on="0"/>
        <pt x="182" y="165" on="0"/>
        <pt x="166" y="165" on="1"/>
        <pt x="166" y="185" on="0"/>
        <pt x="177" y="220" on="0"/>
        <pt x="191" y="255" on="0"/>
        <pt x="202" y="291" on="0"/>
        <pt x="202" y="311" on="1"/>
        <pt x="27" y="311" on="1"/>
        <pt x="19" y="311" on="0"/>
        <pt x="12" y="326" on="0"/>
        <pt x="12" y="331" on="1"/>
        <pt x="12" y="334" on="1"/>
        <pt x="12" y="335" on="0"/>
        <pt x="13" y="337" on="1"/>
        <pt x="28" y="338" on="0"/>
        <pt x="77" y="342" on="0"/>
        <pt x="129" y="350" on="0"/>
        <pt x="178" y="365" on="0"/>
        <pt x="195" y="376" on="1"/>
        <pt x="195" y="378" on="1"/>
        <pt x="195" y="379" on="0"/>
        <pt x="196" y="380" on="0"/>
        <pt x="196" y="381" on="1"/>
        <pt x="196" y="395" on="0"/>
        <pt x="187" y="418" on="0"/>
        <pt x="175" y="439" on="0"/>
        <pt x="166" y="459" on="0"/>
        <pt x="166" y="470" on="1"/>
        <pt x="178" y="470" on="0"/>
        <pt x="198" y="457" on="0"/>
        <pt x="216" y="441" on="0"/>
        <pt x="235" y="428" on="0"/>
        <pt x="247" y="428" on="1"/>
        <pt x="256" y="428" on="0"/>
        <pt x="270" y="459" on="0"/>
        <pt x="283" y="506" on="0"/>
        <pt x="298" y="561" on="0"/>
        <pt x="319" y="608" on="0"/>
        <pt x="345" y="639" on="0"/>
        <pt x="364" y="639" on="1"/>
        <pt x="364" y="545" on="1"/>
        <pt x="376" y="569" on="0"/>
        <pt x="418" y="593" on="0"/>
        <pt x="443" y="593" on="1"/>
        <pt x="443" y="572" on="0"/>
        <pt x="422" y="525" on="0"/>
        <pt x="392" y="480" on="0"/>
        <pt x="360" y="441" on="0"/>
        <pt x="350" y="428" on="1"/>
        <pt x="354" y="428" on="0"/>
        <pt x="379" y="427" on="0"/>
        <pt x="383" y="427" on="1"/>
        <pt x="421" y="427" on="0"/>
        <pt x="498" y="436" on="0"/>
        <pt x="575" y="446" on="0"/>
        <pt x="653" y="455" on="0"/>
        <pt x="692" y="455" on="1"/>
        <pt x="692" y="445" on="0"/>
        <pt x="651" y="425" on="0"/>
        <pt x="586" y="406" on="0"/>
        <pt x="507" y="389" on="0"/>
        <pt x="431" y="373" on="0"/>
        <pt x="367" y="357" on="0"/>
        <pt x="350" y="350" on="1"/>
        <pt x="367" y="327" on="0"/>
        <pt x="425" y="292" on="0"/>
        <pt x="481" y="256" on="0"/>
        <pt x="522" y="212" on="0"/>
        <pt x="522" y="179" on="1"/>
        <pt x="490" y="179" on="0"/>
        <pt x="434" y="207" on="0"/>
        <pt x="381" y="246" on="0"/>
        <pt x="328" y="286" on="0"/>
        <pt x="298" y="298" on="1"/>
        <pt x="292" y="284" on="0"/>
        <pt x="289" y="236" on="0"/>
        <pt x="284" y="189" on="0"/>
        <pt x="271" y="155" on="0"/>
        <pt x="253" y="155" on="1"/>
        <pt x="247" y="155" on="0"/>
        <pt x="236" y="164" on="0"/>
        <pt x="228" y="177" on="0"/>
        <pt x="222" y="190" on="0"/>
      </contour>
    </TTGlyph>
</ttFont>
